<svg width="20" height="20" viewBox="0 0 20 20" fill="none" xmlns="http://www.w3.org/2000/svg">
<path d="M9.9974 18.9585H3.33073C2.72314 18.9579 2.14063 18.7162 1.71101 18.2866C1.28138 17.857 1.03972 17.2744 1.03906 16.6669V14.1669C1.04039 13.1175 1.45785 12.1114 2.19989 11.3694C2.94194 10.6273 3.94799 10.2099 4.9974 10.2085H8.33073C8.85716 10.2064 9.37859 10.3107 9.86374 10.515C10.3489 10.7194 10.7878 11.0196 11.1541 11.3977C11.2123 11.4563 11.2584 11.5259 11.2896 11.6024C11.3208 11.6789 11.3365 11.7609 11.3358 11.8435C11.3351 11.9262 11.318 12.0078 11.2856 12.0838C11.2531 12.1598 11.2059 12.2286 11.1467 12.2863C11.0875 12.3439 11.0174 12.3892 10.9405 12.4196C10.8637 12.45 10.7816 12.4648 10.6989 12.4632C10.6163 12.4616 10.5348 12.4437 10.4592 12.4104C10.3835 12.3772 10.3152 12.3292 10.2582 12.2694C10.0082 12.0113 9.7085 11.8065 9.37727 11.6671C9.04604 11.5278 8.69007 11.4568 8.33073 11.4585H4.9974C4.27937 11.4594 3.59101 11.745 3.08329 12.2528C2.57557 12.7605 2.28994 13.4488 2.28906 14.1669V16.6669C2.2895 16.943 2.39939 17.2077 2.59465 17.4029C2.7899 17.5982 3.0546 17.7081 3.33073 17.7085H9.9974C10.1951 17.708 10.3886 17.6515 10.5554 17.5454C10.7222 17.4394 10.8556 17.2882 10.9399 17.1094C11.0104 16.9593 11.1376 16.8434 11.2936 16.7871C11.4496 16.7309 11.6215 16.7389 11.7716 16.8094C11.9216 16.8799 12.0375 17.0071 12.0938 17.1631C12.1501 17.319 12.1421 17.491 12.0716 17.641C11.8855 18.034 11.5919 18.3663 11.2248 18.5995C10.8578 18.8326 10.4322 18.9571 9.9974 18.9585Z" fill="black"/>
<path d="M6.66406 9.79199C5.79877 9.79199 4.95291 9.5354 4.23344 9.05467C3.51398 8.57394 2.95322 7.89066 2.62209 7.09123C2.29096 6.29181 2.20432 5.41214 2.37313 4.56347C2.54194 3.71481 2.95862 2.93526 3.57047 2.3234C4.18233 1.71155 4.96188 1.29487 5.81054 1.12606C6.65921 0.957248 7.53888 1.04389 8.3383 1.37502C9.13773 1.70615 9.82101 2.26691 10.3017 2.98637C10.7825 3.70584 11.0391 4.5517 11.0391 5.41699C11.0377 6.57691 10.5764 7.68894 9.7562 8.50912C8.93601 9.32931 7.82398 9.79067 6.66406 9.79199ZM6.66406 2.29199C6.046 2.29199 5.44181 2.47527 4.92791 2.81865C4.414 3.16203 4.01347 3.65009 3.77694 4.22111C3.54042 4.79213 3.47853 5.42046 3.59911 6.02665C3.71969 6.63284 4.01732 7.18966 4.45436 7.6267C4.8914 8.06374 5.44822 8.36137 6.05441 8.48195C6.6606 8.60253 7.28893 8.54064 7.85995 8.30412C8.43097 8.06759 8.91903 7.66706 9.26241 7.15315C9.60579 6.63925 9.78906 6.03506 9.78906 5.41699C9.78818 4.58846 9.45866 3.79412 8.8728 3.20826C8.28694 2.6224 7.4926 2.29288 6.66406 2.29199Z" fill="black"/>
<path d="M14.1667 18.9586C13.219 18.9586 12.2925 18.6776 11.5046 18.151C10.7166 17.6245 10.1024 16.8762 9.73975 16.0006C9.37708 15.125 9.28219 14.1616 9.46707 13.2321C9.65196 12.3026 10.1083 11.4488 10.7784 10.7787C11.4486 10.1086 12.3024 9.6522 13.2319 9.46732C14.1614 9.28243 15.1248 9.37732 16.0004 9.73999C16.8759 10.1027 17.6243 10.7168 18.1508 11.5048C18.6773 12.2928 18.9583 13.2192 18.9583 14.1669C18.9568 15.4373 18.4515 16.6551 17.5532 17.5534C16.6549 18.4517 15.437 18.957 14.1667 18.9586ZM14.1667 10.6252C13.4662 10.6252 12.7814 10.833 12.199 11.2221C11.6166 11.6113 11.1627 12.1644 10.8946 12.8116C10.6265 13.4587 10.5564 14.1708 10.6931 14.8579C10.8297 15.5449 11.167 16.1759 11.6623 16.6712C12.1576 17.1666 12.7887 17.5039 13.4757 17.6405C14.1627 17.7772 14.8748 17.707 15.522 17.439C16.1692 17.1709 16.7223 16.717 17.1115 16.1346C17.5006 15.5521 17.7083 14.8674 17.7083 14.1669C17.7072 13.2279 17.3337 12.3277 16.6698 11.6638C16.0058 10.9998 15.1056 10.6263 14.1667 10.6252Z" fill="black"/>
<path d="M14.1641 16.8753C13.9983 16.8753 13.8393 16.8095 13.7221 16.6923C13.6049 16.5751 13.5391 16.4161 13.5391 16.2503V14.167C13.5391 14.0012 13.6049 13.8423 13.7221 13.725C13.8393 13.6078 13.9983 13.542 14.1641 13.542C14.3298 13.542 14.4888 13.6078 14.606 13.725C14.7232 13.8423 14.7891 14.0012 14.7891 14.167V16.2503C14.7891 16.4161 14.7232 16.5751 14.606 16.6923C14.4888 16.8095 14.3298 16.8753 14.1641 16.8753Z" fill="black"/>
<path d="M14.1693 12.9169C14.6295 12.9169 15.0026 12.5438 15.0026 12.0836C15.0026 11.6233 14.6295 11.2502 14.1693 11.2502C13.709 11.2502 13.3359 11.6233 13.3359 12.0836C13.3359 12.5438 13.709 12.9169 14.1693 12.9169Z" fill="black"/>
</svg>
