<svg width="32" height="32" viewBox="0 0 32 32" fill="none" xmlns="http://www.w3.org/2000/svg">
<g clip-path="url(#clip0_673_17738)">
<path d="M23.5915 21.6708C24.3577 21.0769 29.8073 16.5953 30.0391 16.4053C30.2897 16.1999 30.2411 15.8023 29.9482 15.6639L28.5459 15.0041C28.2998 14.8837 29.6867 10.236 29.6135 10.5001C29.7035 10.1756 29.4143 9.88281 29.0982 9.94921C28.9342 9.98294 25.1369 10.8353 25.0901 10.6745L24.585 8.90681C24.4911 8.57507 24.0661 8.47174 23.8318 8.73054L20.6543 12.2459C20.2947 12.4337 21.8995 4.48814 21.8235 4.88667C21.8931 4.52227 21.5075 4.24521 21.185 4.41214L19.2449 5.42441C19.0423 5.45934 18.8881 5.50547 18.7867 5.32254C18.4715 4.75507 16.3819 0.839075 16.3819 0.839075C16.2121 0.526142 15.7677 0.528542 15.6015 0.838675L13.1581 5.39761C13.1581 5.39761 13.1141 5.60054 12.5862 5.33454C11.6826 4.87921 10.8243 4.41188 10.8218 4.41081C10.4914 4.23148 10.1073 4.51761 10.1754 4.87921C10.2569 5.32014 11.7019 12.6297 11.3875 12.3125C11.2746 12.1956 9.39046 10.1108 8.15206 8.73801C7.92072 8.48227 7.49699 8.57641 7.39926 8.91001L6.88712 10.6459C6.84712 10.7445 6.76032 10.7536 6.65552 10.7299C6.07339 10.6004 2.89526 9.91827 2.89526 9.91827C2.56312 9.85107 2.29086 10.1509 2.37579 10.4675L3.54326 14.7577C3.55726 14.8097 3.56219 14.8841 3.55859 14.9275C3.27192 15.0813 2.38246 15.5123 2.04592 15.6737C1.75246 15.814 1.70766 16.2111 1.95752 16.4148L8.56126 21.8179C8.57046 21.8256 8.77392 22.0213 8.62352 22.5352C8.37726 23.3788 8.15912 24.1343 8.15912 24.1343C8.07166 24.4353 8.31312 24.7289 8.63312 24.6972L14.6134 23.98C14.5621 24.9161 13.7882 30.8471 13.7882 30.8471C13.7757 31.1083 13.9805 31.3153 14.2299 31.3153H17.7531C18.0038 31.3153 18.2085 31.1056 18.1943 30.8499L17.4018 23.9777C17.4257 23.9789 17.4506 23.9808 17.4769 23.9833C18.0501 24.0391 23.2937 24.7081 23.3509 24.7149C23.6795 24.7536 23.8577 24.5256 23.8577 24.2761C23.8577 24.1967 23.8367 24.1223 23.8002 24.0577L23.3425 22.4675C23.3343 22.4437 23.3202 22.4103 23.3099 22.3869C23.2683 22.3031 23.1677 21.9995 23.5915 21.6708Z" stroke="black" stroke-width="1.33333" stroke-linecap="round" stroke-linejoin="round"/>
</g>
<defs>
<clipPath id="clip0_673_17738">
<rect width="32" height="32" fill="white"/>
</clipPath>
</defs>
</svg>
