<svg width="24" height="24" viewBox="0 0 24 24" fill="none" xmlns="http://www.w3.org/2000/svg">
<path d="M12.0003 19.1711C14.0491 19.1711 15.7076 17.5126 15.7076 15.4638C15.7076 13.415 14.0491 11.7565 12.0003 11.7565C9.95151 11.7565 8.29297 13.415 8.29297 15.4638C8.29297 17.5126 9.95151 19.1711 12.0003 19.1711ZM9.65882 14.8296C10.0003 14.4394 10.6832 14.4882 11.0247 14.8296L11.7076 15.5126L12.9759 14.2443C13.3661 13.854 13.9515 13.9028 14.3417 14.2443C14.732 14.5857 14.6832 15.2687 14.3417 15.6101C13.7076 16.2443 13.0247 16.9272 12.3905 17.5613C12.0003 17.9516 11.3661 17.9516 11.0247 17.5613C10.5857 17.1223 10.0978 16.6345 9.65882 16.1955C9.26858 15.8053 9.26858 15.2199 9.65882 14.8296Z" fill="#915FD8"/>
<path d="M22.0488 5.36585H24V4.09756C24 1.90244 22.2439 0.097561 20.0488 0V1.95122V2.2439C20.0488 2.78049 19.6098 3.21951 19.0732 3.21951C18.5366 3.21951 18.0976 2.73171 18.0976 2.2439C18.0976 1.5122 18.0976 0.731707 18.0976 0H6.04878V1.95122V2.14634C6.04878 2.68293 5.60976 3.12195 5.07317 3.12195C4.53659 3.12195 4.09756 2.63415 4.09756 2.14634C4.09756 2.04878 4.09756 1.95122 4.09756 1.85366C4.09756 1.21951 4.09756 0.634146 4.09756 0C1.85366 0 0 1.85366 0 4.09756V5.36585H1.95122H22.0488Z" fill="#915FD8"/>
<path d="M1.95122 7.31726H0V19.9026C0 22.1465 1.85366 24.0002 4.09756 24.0002H19.9024C22.1463 24.0002 24 22.1465 24 19.9026V7.31726H22.0488H1.95122ZM12 9.85385C15.122 9.85385 17.6585 12.3904 17.6585 15.5124C17.6585 18.6343 15.122 21.1221 12 21.1221C8.87805 21.1221 6.34146 18.5856 6.34146 15.4636C6.34146 12.3417 8.87805 9.85385 12 9.85385Z" fill="#915FD8"/>
</svg>
