<svg width="22" height="23" viewBox="0 0 22 23" fill="none" xmlns="http://www.w3.org/2000/svg">
<path d="M11 11.2969C12.9833 11.2971 14.5889 12.9034 14.5889 14.8867C14.5886 16.8699 12.9831 18.4754 11 18.4756C9.01668 18.4756 7.41038 16.87 7.41016 14.8867C7.41016 12.9033 9.01654 11.2969 11 11.2969ZM12.3691 14.1416C12.2955 14.1398 12.2267 14.1629 12.166 14.2236L10.7559 15.6338L9.83301 14.7109C9.79493 14.673 9.71059 14.6314 9.60547 14.6289C9.50313 14.6265 9.44723 14.6619 9.4248 14.6875L9.41406 14.6992L9.40234 14.7109C9.2724 14.8409 9.2724 15.0126 9.40234 15.1426C9.58519 15.3254 9.7777 15.5189 9.9707 15.7119C10.1637 15.9049 10.3572 16.0974 10.54 16.2803L10.5518 16.293L10.5625 16.3047C10.6355 16.3882 10.8277 16.4243 10.9717 16.2803L12.5977 14.6543C12.6354 14.6162 12.6771 14.5325 12.6797 14.4277C12.6821 14.3253 12.6467 14.2685 12.6211 14.2461C12.5412 14.1764 12.4487 14.1436 12.3691 14.1416Z" stroke="black"/>
<path d="M17.7295 1.50098C19.821 1.59393 21.5 3.31329 21.5 5.41504V6.97168H0.5V5.41504C0.5 3.26898 2.26898 1.5 4.41504 1.5H4.91504V3.78906C4.91536 3.9354 5.07256 4.10149 5.22754 4.10156C5.3984 4.10156 5.54077 3.95988 5.54102 3.78906V1.5H16.5811V3.87012C16.5812 4.01654 16.7394 4.18262 16.8945 4.18262C17.0654 4.18249 17.2069 4.04097 17.207 3.87012V1.47754L17.7295 1.50098Z" stroke="black"/>
<path d="M21.5 7.5979V18.5862C21.4997 20.732 19.7309 22.5002 17.585 22.5002H4.41504C2.26914 22.5002 0.500261 20.732 0.5 18.5862V7.5979H21.5ZM11 10.7122C8.66885 10.7122 6.78418 12.5671 6.78418 14.887C6.78442 17.2122 8.67466 19.1018 11 19.1018C13.3311 19.1018 15.2158 17.2469 15.2158 14.927C15.2157 12.6016 13.3254 10.7122 11 10.7122Z" stroke="black"/>
</svg>
