<svg width="20" height="20" viewBox="0 0 20 20" fill="none" xmlns="http://www.w3.org/2000/svg">
<g clip-path="url(#clip0_671_16958)">
<path d="M13.7483 0C12.6821 0.0737496 11.4359 0.756246 10.7096 1.64499C10.0471 2.45124 9.50212 3.64873 9.71462 4.81247C10.8796 4.84872 12.0834 4.14998 12.7809 3.24623C13.4334 2.40499 13.9271 1.21499 13.7483 0Z" fill="black"/>
<path d="M17.9634 6.71001C16.9397 5.42627 15.5009 4.68127 14.1422 4.68127C12.3485 4.68127 11.5897 5.54002 10.3435 5.54002C9.05847 5.54002 8.08223 4.68377 6.53099 4.68377C5.00724 4.68377 3.38475 5.61502 2.35601 7.20751C0.909769 9.45 1.15727 13.6662 3.501 17.2575C4.33975 18.5424 5.45974 19.9874 6.92473 19.9999C8.22848 20.0124 8.59597 19.1637 10.3622 19.1549C12.1285 19.1449 12.4635 20.0112 13.7647 19.9974C15.2309 19.9862 16.4122 18.3849 17.2509 17.1C17.8522 16.1787 18.0759 15.715 18.5422 14.675C15.1509 13.3837 14.6072 8.56125 17.9634 6.71001Z" fill="black"/>
</g>
<defs>
<clipPath id="clip0_671_16958">
<rect width="20" height="20" fill="white"/>
</clipPath>
</defs>
</svg>
