<svg version="1.1" id="Layer_1" xmlns="http://www.w3.org/2000/svg" xmlns:xlink="http://www.w3.org/1999/xlink" x="0px" y="0px" viewBox="0 0 512 512" style="enable-background:new 0 0 512 512;" xml:space="preserve">
<g>
	<g>
		<g>
			<g>
				<g>
					
						<ellipse transform="matrix(0.9711 -0.2386 0.2386 0.9711 -16.5746 29.4785)" style="fill:none;stroke:#000000;stroke-width:20;stroke-linecap:round;stroke-linejoin:round;stroke-miterlimit:10;" cx="113.493" cy="83.212" rx="74.212" ry="73.151"/>
				</g>
				<g>
					<path style="fill:none;stroke:#000000;stroke-width:20;stroke-linecap:round;stroke-linejoin:round;stroke-miterlimit:10;" d="&#10;&#9;&#9;&#9;&#9;&#9;&#9;M210.326,197.84c0.177-22.837-18.511-41.677-42.004-41.599L58.17,156.605c-24.46,0.081-43.851,20.636-42.185,44.718&#10;&#9;&#9;&#9;&#9;&#9;&#9;l3.591,68.05l162.616-0.616"/>
				</g>
			</g>
			<g>
				<g>
					
						<ellipse transform="matrix(0.9711 -0.2386 0.2386 0.9711 -8.3227 97.6584)" style="fill:none;stroke:#000000;stroke-width:20;stroke-linecap:round;stroke-linejoin:round;stroke-miterlimit:10;" cx="399.281" cy="83.212" rx="74.212" ry="73.151"/>
				</g>
				<g>
					<path style="fill:none;stroke:#000000;stroke-width:20;stroke-linecap:round;stroke-linejoin:round;stroke-miterlimit:10;" d="&#10;&#9;&#9;&#9;&#9;&#9;&#9;M329.681,269.373h162.264l4.05-68.691c1.828-24.094-17.425-44.521-41.885-44.441l-110.152,0.364&#10;&#9;&#9;&#9;&#9;&#9;&#9;c-22.799,0.075-41.193,17.938-42.238,39.866"/>
				</g>
			</g>
		</g>
		<g>
			
				<ellipse transform="matrix(0.9711 -0.2386 0.2386 0.9711 -53.4467 68.5305)" style="fill:none;stroke:#000000;stroke-width:20;stroke-linecap:round;stroke-linejoin:round;stroke-miterlimit:10;" cx="256.387" cy="255.062" rx="74.212" ry="73.151"/>
		</g>
		<g>
			<path style="fill:none;stroke:#000000;stroke-width:20;stroke-linecap:round;stroke-linejoin:round;stroke-miterlimit:10;" d="&#10;&#9;&#9;&#9;&#9;M346.898,347.537c-7.341-11.874-20.383-19.496-35.681-19.446l-110.152,0.364c-24.46,0.081-43.851,20.636-42.185,44.718&#10;&#9;&#9;&#9;&#9;l3.591,68.05l161.859-0.538"/>
			
				<line style="fill:none;stroke:#000000;stroke-width:20;stroke-linecap:round;stroke-linejoin:round;stroke-miterlimit:10;" x1="460.863" y1="467.548" x2="496.115" y2="502"/>
			<g>
				
					<ellipse style="fill:none;stroke:#000000;stroke-width:20;stroke-linecap:round;stroke-linejoin:round;stroke-miterlimit:10;" cx="401.199" cy="408.92" rx="82.483" ry="80.829"/>
			</g>
		</g>
	</g>
	<g>
		
			<polyline style="fill:none;stroke:#000000;stroke-width:20;stroke-linecap:round;stroke-linejoin:round;stroke-miterlimit:10;" points="&#10;&#9;&#9;&#9;380.827,410.842 397.97,428.9 424.982,396.911 &#9;&#9;"/>
	</g>
</g>
<g>
</g>
<g>
</g>
<g>
</g>
<g>
</g>
<g>
</g>
<g>
</g>
<g>
</g>
<g>
</g>
<g>
</g>
<g>
</g>
<g>
</g>
<g>
</g>
<g>
</g>
<g>
</g>
<g>
</g>
</svg>