<svg width="77" height="85" viewBox="0 0 77 85" fill="none" xmlns="http://www.w3.org/2000/svg">
<path d="M76.0214 84.6659C76.3731 75.1697 70.3922 71.5174 70.3922 71.5174L45.1949 57.2732H30.8403L5.64451 71.5174C5.64451 71.5174 -0.33642 75.1697 0.0150919 84.6659H76.0214Z" fill="#F9C5B8"/>
<path d="M29.0482 59.1154H46.9885C43.0136 56.969 44.0848 48.7175 44.0848 48.7175H31.9519C31.9517 48.7175 33.0231 56.969 29.0482 59.1154Z" fill="#F9C5B8"/>
<path d="M31.7033 54.9212C35.9894 54.4318 40.1848 52.9951 43.9555 50.8713C43.9698 49.6045 44.0846 48.7178 44.0846 48.7178H31.9518C31.9518 48.7176 32.3725 51.9693 31.7033 54.9212Z" fill="#F5A997"/>
<path d="M58.9436 30.3347C58.566 33.2532 56.9148 35.4207 55.2551 35.1754C53.5953 34.9299 52.5561 32.365 52.9332 29.4463C53.3108 26.5276 54.9627 24.3603 56.6223 24.6056C58.282 24.8509 59.3214 27.4158 58.9436 30.3347Z" fill="#F5A997"/>
<path d="M55.2313 33.0085C55.0064 33.0085 54.8018 32.8556 54.7452 32.6273C54.3315 30.9522 54.1437 28.9677 55.8862 26.9467C56.0667 26.7374 56.3833 26.7137 56.5927 26.8944C56.802 27.0751 56.8255 27.3916 56.6448 27.6012C55.1322 29.3556 55.3732 30.9916 55.7178 32.3872C55.7842 32.6558 55.6203 32.9275 55.3513 32.9937C55.3114 33.0036 55.2711 33.0085 55.2313 33.0085Z" fill="#E9837B"/>
<path d="M56.9152 30.0996C56.8842 30.0996 56.8527 30.0966 56.8209 30.0906C56.0171 29.9385 55.1884 30.0897 55.1799 30.0906C54.9069 30.1405 54.6467 29.9622 54.5954 29.6909C54.5442 29.4193 54.7223 29.1576 54.9937 29.1061C55.0344 29.0979 56.0117 28.9166 57.0082 29.1061C57.28 29.1576 57.4582 29.4199 57.4069 29.6917C57.3612 29.9321 57.1512 30.0996 56.9152 30.0996Z" fill="#E9837B"/>
<path d="M17.0928 30.3347C17.4705 33.2532 19.1216 35.4207 20.7814 35.1754C22.4411 34.9299 23.4803 32.365 23.1032 29.4463C22.7256 26.5276 21.0737 24.3603 19.4141 24.6056C17.7544 24.8509 16.715 27.4158 17.0928 30.3347Z" fill="#F5A997"/>
<path d="M20.8053 33.0083C20.7653 33.0083 20.725 33.0036 20.6849 32.9934C20.4161 32.9271 20.252 32.6555 20.3184 32.3869C20.663 30.9911 20.904 29.3552 19.3914 27.6008C19.2107 27.3912 19.2342 27.0748 19.4435 26.8941C19.6533 26.7132 19.9699 26.7369 20.1501 26.9464C21.8925 28.9673 21.7047 30.9519 21.291 32.6269C21.2346 32.8554 21.0302 33.0083 20.8053 33.0083Z" fill="#E9837B"/>
<path d="M19.1211 30.0995C18.8852 30.0995 18.6751 29.9321 18.6294 29.6918C18.5781 29.4198 18.7564 29.1577 19.0282 29.1062C20.0246 28.9169 21.0015 29.0982 21.0426 29.1062C21.3144 29.1579 21.4928 29.4202 21.4413 29.6918C21.3898 29.9638 21.1249 30.141 20.8561 30.0907C20.8417 30.0883 20.0168 29.9388 19.2154 30.0907C19.1837 30.0967 19.1521 30.0995 19.1211 30.0995Z" fill="#E9837B"/>
<path d="M54.8279 23.3412C54.5303 15.0145 49.4197 4.72828 38.9413 4.78465H37.8707H36.7996C26.3212 4.72828 21.2111 15.0145 20.913 23.3412C20.6141 31.7103 23.18 41.3625 28.3924 46.4957C30.8362 48.902 34.5428 50.0593 37.8705 50.1172C41.1977 50.0593 44.9045 48.902 47.3483 46.4957C52.5609 41.3625 55.1267 31.7103 54.8279 23.3412Z" fill="#F9C5B8"/>
<path d="M34.4452 31.6616C34.4452 32.6805 32.6264 33.5071 30.3822 33.5071C28.1387 33.5071 26.3192 32.6805 26.3192 31.6616C26.3192 30.6418 28.1387 29.8152 30.3822 29.8152C32.6264 29.8152 34.4452 30.6418 34.4452 31.6616Z" fill="#F6AFA8"/>
<path d="M49.4216 31.6616C49.4216 32.6805 47.6028 33.5071 45.3586 33.5071C43.1149 33.5071 41.2953 32.6805 41.2953 31.6616C41.2953 30.6418 43.1149 29.8152 45.3586 29.8152C47.6028 29.8152 49.4216 30.6418 49.4216 31.6616Z" fill="#F6AFA8"/>
<path d="M50.5935 3.02139C50.5935 3.02139 45.0456 -0.09592 37.9075 0.00227193C30.7686 -0.09592 25.2215 3.02139 25.2215 3.02139C16.4535 9.53473 19.0343 24.6363 19.0343 24.6363C21.4096 24.809 20.0084 29.0352 21.6007 31.7356C22.8063 29.1451 22.3065 23.1752 22.3065 23.1752C22.5406 21.7529 23.4494 20.5473 24.0445 19.2682C24.6557 17.954 24.0706 19.2804 24.6557 17.954C25.3649 16.3453 25.7354 13.2528 26.3931 11.6221C31.1434 10.7608 34.9169 10.4145 37.9075 10.3779C40.8981 10.4145 44.6712 10.7608 49.4219 11.6221C50.0788 13.2528 50.4499 16.3453 51.1591 17.954C51.7443 19.2804 51.1591 17.954 51.7703 19.2682C52.3654 20.5473 53.2734 21.7529 53.5077 23.1752C53.5077 23.1752 53.0085 29.1449 54.2141 31.7356C55.8066 29.0353 54.4052 24.8092 56.7805 24.6363C56.7803 24.6363 59.3613 9.53473 50.5935 3.02139Z" fill="#171617"/>
<path d="M32.5364 28.8943C32.2598 28.8943 32.0352 28.6701 32.0352 28.3933C32.0352 27.4144 31.5868 26.6552 31.2007 26.6552C30.8147 26.6552 30.3657 27.4144 30.3657 28.3933C30.3657 28.67 30.1413 28.8943 29.8647 28.8943C29.588 28.8943 29.3635 28.6701 29.3635 28.3933C29.3635 26.8568 30.1705 25.6531 31.2005 25.6531C32.2304 25.6531 33.0371 26.8568 33.0371 28.3933C33.0374 28.6701 32.8131 28.8943 32.5364 28.8943Z" fill="#2A2D6B"/>
<path d="M45.8759 28.8943C45.5995 28.8943 45.3749 28.6701 45.3749 28.3933C45.3749 27.4144 44.9261 26.6552 44.5399 26.6552C44.154 26.6552 43.7055 27.4144 43.7055 28.3933C43.7055 28.67 43.4811 28.8943 43.2042 28.8943C42.9278 28.8943 42.7032 28.6701 42.7032 28.3933C42.7032 26.8568 43.5098 25.6531 44.5397 25.6531C45.5698 25.6531 46.3768 26.8568 46.3768 28.3933C46.3772 28.6701 46.1528 28.8943 45.8759 28.8943Z" fill="#2A2D6B"/>
<path d="M52.281 61.2788L70.3922 71.5173C70.3922 71.5173 76.3731 75.1696 76.0214 84.6659H0.0149088C-0.336603 75.1696 5.64433 71.5173 5.64433 71.5173L23.7548 61.2788L36.7775 70.9696L52.281 61.2788Z" fill="#155ECB"/>
<path d="M33.4561 23.4247C33.4072 23.9011 33.0309 24.2203 32.6159 24.1806C31.092 24.032 29.5772 24.2831 28.1831 24.9157C27.8028 25.0873 27.3436 24.9068 27.1433 24.4716C26.943 24.0376 27.1296 23.483 27.5771 23.2804C29.176 22.5546 30.9132 22.2664 32.6609 22.4372C33.1494 22.4846 33.5058 22.9495 33.4561 23.4247Z" fill="#2A2E6D"/>
<path d="M42.284 23.4247C42.3336 23.9011 42.71 24.2203 43.125 24.1806C44.6488 24.032 46.1635 24.2831 47.5578 24.9157C47.938 25.0873 48.3967 24.9068 48.5976 24.4716C48.7979 24.0376 48.6106 23.483 48.1637 23.2804C46.5648 22.5546 44.8269 22.2664 43.0792 22.4372C42.5912 22.4846 42.2351 22.9495 42.284 23.4247Z" fill="#2A2E6D"/>
<path d="M37.49 36.4299C37.4267 36.4299 37.3621 36.4177 37.2998 36.392C36.2221 35.9486 35.6352 35.4507 35.4535 34.8246C35.2138 33.9988 35.7395 33.2543 36.2968 32.4663C36.6455 31.9729 37.0059 31.4628 37.1814 30.9291C37.2675 30.6664 37.5514 30.5241 37.8135 30.6095C38.0763 30.6959 38.2197 30.9791 38.1333 31.2419C37.9111 31.9184 37.4883 32.5169 37.1151 33.0447C36.7013 33.6301 36.3108 34.183 36.4159 34.5452C36.4761 34.7522 36.7444 35.08 37.6808 35.4653C37.9367 35.5706 38.0588 35.8633 37.9535 36.1192C37.874 36.3128 37.6871 36.4299 37.49 36.4299Z" fill="#E9837B"/>
<path d="M51.6168 34.9603C51.1256 36.7303 50.0532 39.8727 47.6094 39.232C46.9523 39.0597 46.3939 38.5402 45.8923 38.1101C45.0265 37.3686 44.2537 36.7501 43.1131 36.5151C41.9318 36.2717 40.6812 36.3639 39.486 36.421C39.0239 36.443 38.5255 36.496 38.0174 36.5494V36.544H37.5667C37.0584 36.4904 36.56 36.4374 36.0981 36.4156C34.9032 36.3585 33.6523 36.2662 32.471 36.5097C31.3308 36.7449 30.5576 37.3632 29.6918 38.1046C29.19 38.5349 28.6316 39.0543 27.9749 39.2266C25.5309 39.8672 24.4585 36.7249 23.9673 34.9548C23.5158 33.3294 23.1355 30.9837 21.1504 30.408C22.0631 36.6719 24.4501 46.2856 28.2305 50.0086C30.6397 52.3809 34.2754 53.537 37.5667 53.6248V53.6302H38.0174C41.3087 53.5424 44.9442 52.3863 47.3536 50.014C51.134 46.291 53.521 36.6773 54.4337 30.4134C52.4486 30.9891 52.0683 33.3349 51.6168 34.9603Z" fill="#171617"/>
<path d="M32.4274 40.0593C33.1899 42.3362 35.3369 43.979 37.8707 43.979C40.4044 43.979 42.5508 42.3364 43.3134 40.0593H32.4274Z" fill="white"/>
</svg>
