<svg width="20" height="20" viewBox="0 0 20 20" fill="none" xmlns="http://www.w3.org/2000/svg">
<g clip-path="url(#clip0_302_161973)">
<path d="M16.1328 16.4062C16.1328 17.4623 16.1328 18.4737 16.1328 19.4141L14.5703 18.8282L13.0078 19.4141L11.4453 18.8282L9.88279 19.4141L8.32029 18.8282L6.7578 19.4141L5.19531 18.8282L3.63281 19.4141V2.07031" stroke="black" stroke-width="1.17187" stroke-miterlimit="22.9256" stroke-linecap="round" stroke-linejoin="round"/>
<path d="M2.14844 0.585938H14.6092C15.4483 0.585938 16.1328 1.27035 16.1328 2.10949C16.1328 3.77194 16.1328 5.65627 16.1328 7.6172" stroke="black" stroke-width="1.17187" stroke-miterlimit="22.9256" stroke-linecap="round" stroke-linejoin="round"/>
<path fill-rule="evenodd" clip-rule="evenodd" d="M2.10938 0.585938C2.94727 0.585938 3.63281 1.27148 3.63281 2.10938V6.67969H0.585938V2.10938C0.585937 1.27148 1.27148 0.585938 2.10938 0.585938Z" stroke="black" stroke-width="1.17187" stroke-miterlimit="22.9256" stroke-linecap="round" stroke-linejoin="round"/>
<path d="M5.97656 5.2735H10.7031" stroke="black" stroke-width="1.17187" stroke-miterlimit="22.9256" stroke-linecap="round" stroke-linejoin="round"/>
<path d="M13.0469 5.2735H13.7891" stroke="black" stroke-width="1.17187" stroke-miterlimit="22.9256" stroke-linecap="round" stroke-linejoin="round"/>
<path d="M5.97656 7.61731H10.7031" stroke="black" stroke-width="1.17187" stroke-miterlimit="22.9256" stroke-linecap="round" stroke-linejoin="round"/>
<path d="M5.97656 9.961H10.7031" stroke="black" stroke-width="1.17187" stroke-miterlimit="22.9256" stroke-linecap="round" stroke-linejoin="round"/>
<path d="M5.97656 12.3047H10.3125" stroke="black" stroke-width="1.17187" stroke-miterlimit="22.9256" stroke-linecap="round" stroke-linejoin="round"/>
<path d="M5.97656 2.92969H10.7031" stroke="black" stroke-width="1.17187" stroke-miterlimit="22.9256" stroke-linecap="round" stroke-linejoin="round"/>
<path d="M13.0469 2.92969H13.7891" stroke="black" stroke-width="1.17187" stroke-miterlimit="22.9256" stroke-linecap="round" stroke-linejoin="round"/>
<path d="M5.97656 14.6484H10.7031" stroke="black" stroke-width="1.17187" stroke-miterlimit="22.9256" stroke-linecap="round" stroke-linejoin="round"/>
<path d="M18.105 15.1743C19.8517 13.4277 19.8517 10.5958 18.105 8.8491C16.3584 7.10244 13.5265 7.10244 11.7798 8.8491C10.0331 10.5958 10.0331 13.4277 11.7798 15.1743C13.5265 16.921 16.3584 16.921 18.105 15.1743Z" stroke="black" stroke-width="1.17187" stroke-miterlimit="22.9256" stroke-linecap="round" stroke-linejoin="round"/>
<path d="M15.605 10.1899H14.8948C14.4275 10.1899 14.0469 10.5698 14.0469 11.0408C14.0469 11.3699 14.2212 11.652 14.5156 11.7992L15.4217 12.2522" stroke="black" stroke-width="1.17187" stroke-miterlimit="22.9256" stroke-linecap="round" stroke-linejoin="round"/>
<path d="M14.2734 13.8333H14.9837C15.451 13.8333 15.8316 13.4535 15.8316 12.9824C15.8316 12.6533 15.6573 12.3713 15.3629 12.2241L14.4568 11.771" stroke="black" stroke-width="1.17187" stroke-miterlimit="22.9256" stroke-linecap="round" stroke-linejoin="round"/>
<path d="M14.9375 10.1901V9.68604" stroke="black" stroke-width="1.17187" stroke-miterlimit="22.9256" stroke-linecap="round" stroke-linejoin="round"/>
<path d="M14.9375 14.3374V13.8333" stroke="black" stroke-width="1.17187" stroke-miterlimit="22.9256" stroke-linecap="round" stroke-linejoin="round"/>
</g>
<defs>
<clipPath id="clip0_302_161973">
<rect width="20" height="20" fill="white"/>
</clipPath>
</defs>
</svg>
