<svg width="24" height="24" viewBox="0 0 24 24" fill="none" xmlns="http://www.w3.org/2000/svg">
<path d="M1.5 3.75V8.67188C1.5 9.9126 2.50928 10.9219 3.75 10.9219H8.67187C9.9126 10.9219 10.9219 9.9126 10.9219 8.67188V3.75C10.9219 2.50928 9.9126 1.5 8.67187 1.5H3.75C2.50928 1.5 1.5 2.50928 1.5 3.75ZM3 3.75C3 3.33618 3.33655 3 3.75 3H8.67187C9.08533 3 9.42187 3.33618 9.42187 3.75V8.67188C9.42187 9.08569 9.08533 9.42188 8.67187 9.42188H3.75C3.33655 9.42188 3 9.08569 3 8.67188V3.75Z" fill="#915FD8"/>
<path d="M1.5 20.25C1.5 21.4907 2.50928 22.5 3.75 22.5H8.67187C9.9126 22.5 10.9219 21.4907 10.9219 20.25V15.3281C10.9219 14.0874 9.9126 13.0781 8.67187 13.0781H3.75C2.50928 13.0781 1.5 14.0874 1.5 15.3281V20.25ZM3 15.3281C3 14.9143 3.33655 14.5781 3.75 14.5781H8.67187C9.08533 14.5781 9.42187 14.9143 9.42187 15.3281V20.25C9.42187 20.6638 9.08533 21 8.67187 21H3.75C3.33655 21 3 20.6638 3 20.25V15.3281Z" fill="#915FD8"/>
<path d="M20.25 13.0781H15.3281C14.0874 13.0781 13.0781 14.0874 13.0781 15.3281V20.25C13.0781 21.4907 14.0874 22.5 15.3281 22.5H20.25C21.4907 22.5 22.5 21.4907 22.5 20.25V15.3281C22.5 14.0874 21.4907 13.0781 20.25 13.0781ZM21 20.25C21 20.6638 20.6635 21 20.25 21H15.3281C14.9147 21 14.5781 20.6638 14.5781 20.25V15.3281C14.5781 14.9143 14.9147 14.5781 15.3281 14.5781H20.25C20.6635 14.5781 21 14.9143 21 15.3281V20.25Z" fill="#915FD8"/>
<path d="M21.75 5.46094H18.5391V2.25C18.5391 1.83545 18.2032 1.5 17.7891 1.5C17.3749 1.5 17.0391 1.83545 17.0391 2.25V5.46094H13.8281C13.4139 5.46094 13.0781 5.79639 13.0781 6.21094C13.0781 6.62549 13.4139 6.96094 13.8281 6.96094H17.0391V10.1719C17.0391 10.5864 17.3749 10.9219 17.7891 10.9219C18.2032 10.9219 18.5391 10.5864 18.5391 10.1719V6.96094H21.75C22.1642 6.96094 22.5 6.62549 22.5 6.21094C22.5 5.79639 22.1642 5.46094 21.75 5.46094Z" fill="#915FD8"/>
</svg>
