<svg width="20" height="20" viewBox="0 0 20 20" fill="none" xmlns="http://www.w3.org/2000/svg">
<path d="M16.875 2.5H15V1.875C15 1.53125 14.7188 1.25 14.375 1.25C14.0312 1.25 13.75 1.53125 13.75 1.875V2.5H6.25V1.875C6.25 1.53125 5.96875 1.25 5.625 1.25C5.28125 1.25 5 1.53125 5 1.875V2.5H3.125C2.09375 2.5 1.25 3.34375 1.25 4.375V16.875C1.25 17.9062 2.09375 18.75 3.125 18.75H8.125C8.46875 18.75 8.75 18.4688 8.75 18.125C8.75 17.7812 8.46875 17.5 8.125 17.5H3.125C2.78125 17.5 2.5 17.2188 2.5 16.875V8.75H10C10.3438 8.75 10.625 8.46875 10.625 8.125C10.625 7.78125 10.3438 7.5 10 7.5H2.5V4.375C2.5 4.03125 2.78125 3.75 3.125 3.75H5V4.375C5 4.71875 5.28125 5 5.625 5C5.96875 5 6.25 4.71875 6.25 4.375V3.75H13.75V4.375C13.75 4.71875 14.0312 5 14.375 5C14.7188 5 15 4.71875 15 4.375V3.75H16.875C17.2188 3.75 17.5 4.03125 17.5 4.375V8.125C17.5 8.46875 17.7812 8.75 18.125 8.75C18.4688 8.75 18.75 8.46875 18.75 8.125V4.375C18.75 3.34375 17.9062 2.5 16.875 2.5Z" fill="#777777"/>
<path d="M13.75 8.75C10.9938 8.75 8.75 10.9938 8.75 13.75C8.75 16.5062 10.9938 18.75 13.75 18.75C16.5062 18.75 18.75 16.5062 18.75 13.75C18.75 10.9938 16.5062 8.75 13.75 8.75ZM13.75 17.5C11.6813 17.5 10 15.8187 10 13.75C10 11.6813 11.6813 10 13.75 10C15.8187 10 17.5 11.6813 17.5 13.75C17.5 15.8187 15.8187 17.5 13.75 17.5Z" fill="#777777"/>
<path d="M14.375 13.4938V11.875C14.375 11.5312 14.0938 11.25 13.75 11.25C13.4062 11.25 13.125 11.5312 13.125 11.875V13.75C13.125 13.9188 13.1938 14.075 13.3063 14.1937L14.5563 15.4437C14.6813 15.5687 14.8375 15.625 15 15.625C15.1625 15.625 15.3187 15.5625 15.4437 15.4437C15.6875 15.2 15.6875 14.8062 15.4437 14.5625L14.375 13.4938Z" fill="#777777"/>
<path d="M6.875 10.625H5C4.65625 10.625 4.375 10.9062 4.375 11.25C4.375 11.5938 4.65625 11.875 5 11.875H6.875C7.21875 11.875 7.5 11.5938 7.5 11.25C7.5 10.9062 7.21875 10.625 6.875 10.625Z" fill="#777777"/>
<path d="M6.875 14.375H5C4.65625 14.375 4.375 14.6562 4.375 15C4.375 15.3438 4.65625 15.625 5 15.625H6.875C7.21875 15.625 7.5 15.3438 7.5 15C7.5 14.6562 7.21875 14.375 6.875 14.375Z" fill="#777777"/>
</svg>
