<svg width="20" height="20" viewBox="0 0 20 20" fill="none" xmlns="http://www.w3.org/2000/svg">
<path d="M4.32578 11.0499C4.18828 11.0499 4.03828 10.9999 3.92578 10.8999L0.363281 7.92489C0.163281 7.76239 0.0507812 7.51239 0.0507812 7.24989C0.0507812 6.98739 0.163281 6.73739 0.375781 6.57489L3.92578 3.59989C4.20078 3.37489 4.58828 3.41239 4.81328 3.67489C5.03828 3.93739 5.00078 4.33739 4.73828 4.56239L1.52578 7.24989L4.73828 9.92489C5.00078 10.1499 5.03828 10.5499 4.81328 10.8124C4.68828 10.9624 4.51328 11.0374 4.32578 11.0374V11.0499Z" fill="#777777"/>
<path d="M15.7134 18.6374C15.5384 18.6374 15.3509 18.5624 15.2259 18.4124C15.0009 18.1499 15.0384 17.7499 15.3009 17.5249L18.5134 14.8499L15.3009 12.1749C15.0384 11.9499 15.0009 11.5499 15.2259 11.2874C15.4509 11.0124 15.8509 10.9874 16.1134 11.2124L19.6759 14.1874C19.8759 14.3624 19.9884 14.5999 19.9884 14.8624C19.9884 15.1249 19.8759 15.3749 19.6759 15.5374L16.1134 18.4999C16.0009 18.5999 15.8509 18.6499 15.7134 18.6499V18.6374Z" fill="#777777"/>
<path d="M15.7129 7.8873H1.16289C0.812891 7.8873 0.525391 7.5998 0.525391 7.2498C0.525391 6.8998 0.812891 6.6123 1.16289 6.6123H15.7129C16.0629 6.6123 16.3504 6.8998 16.3504 7.2498C16.3504 7.5998 16.0629 7.8873 15.7129 7.8873Z" fill="#777777"/>
<path d="M18.875 15.4747H4.325C3.975 15.4747 3.6875 15.1872 3.6875 14.8372C3.6875 14.4872 3.975 14.1997 4.325 14.1997H18.875C19.225 14.1997 19.5125 14.4872 19.5125 14.8372C19.5125 15.1872 19.225 15.4747 18.875 15.4747Z" fill="#777777"/>
</svg>
