<svg width="18" height="22" viewBox="0 0 18 22" fill="none" xmlns="http://www.w3.org/2000/svg">
<path d="M14.125 2H13.375C13.3738 1.60254 13.2154 1.2217 12.9343 0.940651C12.6533 0.659604 12.2725 0.501187 11.875 0.5H5.875C5.47754 0.501187 5.0967 0.659604 4.81565 0.940651C4.5346 1.2217 4.37619 1.60254 4.375 2H3.625C2.82935 2 2.06629 2.31607 1.50368 2.87868C0.94107 3.44129 0.625 4.20435 0.625 5V18.5C0.625 19.2956 0.94107 20.0587 1.50368 20.6213C2.06629 21.1839 2.82935 21.5 3.625 21.5H14.125C14.9206 21.5 15.6837 21.1839 16.2463 20.6213C16.8089 20.0587 17.125 19.2956 17.125 18.5V5C17.125 4.20435 16.8089 3.44129 16.2463 2.87868C15.6837 2.31607 14.9206 2 14.125 2ZM13.375 11H4.375C4.17609 11 3.98532 10.921 3.84467 10.7803C3.70402 10.6397 3.625 10.4489 3.625 10.25C3.625 10.0511 3.70402 9.86032 3.84467 9.71967C3.98532 9.57902 4.17609 9.5 4.375 9.5H13.375C13.5739 9.5 13.7647 9.57902 13.9053 9.71967C14.046 9.86032 14.125 10.0511 14.125 10.25C14.125 10.4489 14.046 10.6397 13.9053 10.7803C13.7647 10.921 13.5739 11 13.375 11ZM14.125 13.25C14.125 13.4489 14.046 13.6397 13.9053 13.7803C13.7647 13.921 13.5739 14 13.375 14H4.375C4.17609 14 3.98532 13.921 3.84467 13.7803C3.70402 13.6397 3.625 13.4489 3.625 13.25C3.625 13.0511 3.70402 12.8603 3.84467 12.7197C3.98532 12.579 4.17609 12.5 4.375 12.5H13.375C13.5739 12.5 13.7647 12.579 13.9053 12.7197C14.046 12.8603 14.125 13.0511 14.125 13.25ZM8.875 8H4.375C4.17609 8 3.98532 7.92098 3.84467 7.78033C3.70402 7.63968 3.625 7.44891 3.625 7.25C3.625 7.05109 3.70402 6.86032 3.84467 6.71967C3.98532 6.57902 4.17609 6.5 4.375 6.5H8.875C9.07391 6.5 9.26468 6.57902 9.40533 6.71967C9.54598 6.86032 9.625 7.05109 9.625 7.25C9.625 7.44891 9.54598 7.63968 9.40533 7.78033C9.26468 7.92098 9.07391 8 8.875 8ZM4.375 15.5H13.375C13.5739 15.5 13.7647 15.579 13.9053 15.7197C14.046 15.8603 14.125 16.0511 14.125 16.25C14.125 16.4489 14.046 16.6397 13.9053 16.7803C13.7647 16.921 13.5739 17 13.375 17H4.375C4.17609 17 3.98532 16.921 3.84467 16.7803C3.70402 16.6397 3.625 16.4489 3.625 16.25C3.625 16.0511 3.70402 15.8603 3.84467 15.7197C3.98532 15.579 4.17609 15.5 4.375 15.5ZM5.875 2H11.875V3.5H5.875V2Z" fill="#915FD8"/>
</svg>
