<svg width="20" height="20" viewBox="0 0 20 20" fill="none" xmlns="http://www.w3.org/2000/svg">
<g clip-path="url(#clip0_2468_13936)">
<path d="M5.66992 14.9287L4.08301 15.9082C3.43746 16.3061 2.58858 16.105 2.19043 15.46L1.12793 13.7383C0.727844 13.0888 0.929581 12.2439 1.5752 11.8457L3.16211 10.8662C3.73565 11.7955 5.09606 13.9989 5.66992 14.9287ZM3.9834 13.0518C3.71504 12.7263 3.2373 12.6494 2.87793 12.8887V12.8896L2.37793 13.2227C1.68741 13.6837 2.0243 14.7489 2.84082 14.749C2.99895 14.749 3.15996 14.7044 3.30176 14.6104L3.30273 14.6094L3.80273 14.2764C4.18472 14.0214 4.28907 13.5043 4.03418 13.1211V13.1201L3.9834 13.0518Z" stroke="#777777"/>
<path d="M9.85742 0.676758C10.4151 0.332894 11.1431 0.506524 11.4854 1.06152L18.165 11.8867C18.5071 12.4412 18.3347 13.1722 17.7803 13.5146C17.2245 13.8576 16.4961 13.6849 16.1533 13.1289L9.47266 2.30371C9.13064 1.74921 9.30337 1.01882 9.85742 0.676758Z" stroke="#777777"/>
<path d="M13.8848 12.6299C11.5492 12.5801 9.25127 13.0814 7.12109 14.1094C6.44606 13.0154 5.21184 11.0139 4.5459 9.93457C6.41995 8.49152 7.89804 6.66266 8.90039 4.55273C10.0327 6.3878 12.7543 10.7979 13.8848 12.6299Z" stroke="#777777"/>
<path d="M15.668 4.66748C16.4166 4.97045 16.883 5.72999 16.8193 6.53174C16.2874 5.66987 15.9201 5.07612 15.668 4.66748Z" stroke="#777777"/>
<path d="M9.66113 17.8428C10.1377 18.5499 9.62375 19.5 8.7793 19.5C8.50748 19.5 8.23776 19.3955 8.03125 19.1904L5.69629 16.8701L7.21973 15.9297C7.50467 15.774 7.79116 15.6316 8.08008 15.499L9.66113 17.8428Z" stroke="#777777"/>
<mask id="path-6-inside-1_2468_13936" fill="white">
<path d="M18.3398 4.54171C18.0147 4.54171 17.881 4.12136 18.1489 3.93467L18.7493 3.5172C18.9001 3.41221 19.108 3.44929 19.213 3.60053C19.3184 3.75177 19.2809 3.95925 19.1301 4.06424L18.5297 4.48213C18.4718 4.52254 18.4052 4.54171 18.3398 4.54171Z"/>
</mask>
<path d="M18.1489 3.93467L17.578 3.11365L17.5772 3.11424L18.1489 3.93467ZM18.7493 3.5172L19.3202 4.33822L19.3206 4.33792L18.7493 3.5172ZM19.213 3.60053L18.3916 4.1708L18.3926 4.17232L19.213 3.60053ZM19.1301 4.06424L19.7014 4.885L19.7014 4.88496L19.1301 4.06424ZM18.5297 4.48213L17.9585 3.66137L17.9575 3.66207L18.5297 4.48213ZM18.3398 4.54171V3.54171C18.9863 3.54171 19.2618 4.37802 18.7207 4.7551L18.1489 3.93467L17.5772 3.11424C16.5003 3.8647 17.0432 5.54171 18.3398 5.54171V4.54171ZM18.1489 3.93467L18.7198 4.75569L19.3202 4.33822L18.7493 3.5172L18.1784 2.69618L17.578 3.11365L18.1489 3.93467ZM18.7493 3.5172L19.3206 4.33792C19.0186 4.54819 18.6024 4.47446 18.3916 4.1708L19.213 3.60053L20.0345 3.03026C19.6137 2.42412 18.7817 2.27623 18.178 2.69648L18.7493 3.5172ZM19.213 3.60053L18.3926 4.17232C18.1816 3.86949 18.257 3.45364 18.5588 3.24352L19.1301 4.06424L19.7014 4.88496C20.3049 4.46486 20.4553 3.63405 20.0334 3.02874L19.213 3.60053ZM19.1301 4.06424L18.5588 3.24349L17.9585 3.66137L18.5297 4.48213L19.101 5.30288L19.7014 4.885L19.1301 4.06424ZM18.5297 4.48213L17.9575 3.66207C18.0753 3.57986 18.2103 3.54171 18.3398 3.54171V4.54171V5.54171C18.6 5.54171 18.8684 5.46522 19.102 5.30219L18.5297 4.48213Z" fill="#777777" mask="url(#path-6-inside-1_2468_13936)"/>
<mask id="path-8-inside-2_2468_13936" fill="white">
<path d="M19.5135 8.25553C19.4045 8.40631 19.1958 8.43818 19.0481 8.33136L18.4394 7.89348C18.2899 7.78598 18.2561 7.57767 18.3636 7.42809C18.4711 7.27894 18.6794 7.24477 18.8286 7.35227L19.4377 7.79057C19.5869 7.89806 19.621 8.10638 19.5135 8.25553Z"/>
</mask>
<path d="M19.5135 8.25553L20.3238 8.84165L20.3248 8.84019L19.5135 8.25553ZM19.0481 8.33136L19.6343 7.52116L19.6321 7.51958L19.0481 8.33136ZM18.4394 7.89348L19.0234 7.0817L19.023 7.08143L18.4394 7.89348ZM18.3636 7.42809L17.5523 6.84343L17.5516 6.8445L18.3636 7.42809ZM18.8286 7.35227L18.2439 8.16354L18.2445 8.16397L18.8286 7.35227ZM19.4377 7.79057L20.0224 6.97929L20.0218 6.97886L19.4377 7.79057ZM19.5135 8.25553L18.7033 7.66941C18.9187 7.37168 19.3355 7.30499 19.6343 7.52116L19.0481 8.33136L18.462 9.14155C19.0561 9.57138 19.8902 9.44094 20.3238 8.84165L19.5135 8.25553ZM19.0481 8.33136L19.6321 7.51958L19.0234 7.0817L18.4394 7.89348L17.8555 8.70525L18.4642 9.14313L19.0481 8.33136ZM18.4394 7.89348L19.023 7.08143C19.3235 7.29736 19.3894 7.71434 19.1757 8.01168L18.3636 7.42809L17.5516 6.8445C17.1229 7.441 17.2562 8.2746 17.8559 8.70552L18.4394 7.89348ZM18.3636 7.42809L19.1749 8.01276C18.9606 8.31012 18.5443 8.38006 18.2439 8.16354L18.8286 7.35227L19.4132 6.54099C18.8145 6.10949 17.9816 6.24776 17.5523 6.84343L18.3636 7.42809ZM18.8286 7.35227L18.2445 8.16397L18.8536 8.60227L19.4377 7.79057L20.0218 6.97886L19.4126 6.54056L18.8286 7.35227ZM19.4377 7.79057L18.853 8.60184C18.5557 8.38754 18.4857 7.9713 18.7022 7.67087L19.5135 8.25553L20.3248 8.84019C20.7563 8.24145 20.618 7.40858 20.0224 6.97929L19.4377 7.79057Z" fill="#777777" mask="url(#path-8-inside-2_2468_13936)"/>
<mask id="path-10-inside-3_2468_13936" fill="white">
<path d="M16.1725 1.4168V2.16675C16.1725 2.3509 16.0233 2.50005 15.8392 2.50005C15.655 2.50005 15.5059 2.3509 15.5059 2.16675V1.4168C15.5059 1.23265 15.655 1.0835 15.8392 1.0835C16.0233 1.0835 16.1725 1.23265 16.1725 1.4168Z"/>
</mask>
<path d="M16.1725 1.4168H15.1725V2.16675H16.1725H17.1725V1.4168H16.1725ZM16.1725 2.16675H15.1725C15.1725 1.79861 15.471 1.50005 15.8392 1.50005V2.50005V3.50005C16.5756 3.50005 17.1725 2.90318 17.1725 2.16675H16.1725ZM15.8392 2.50005V1.50005C16.2073 1.50005 16.5059 1.79861 16.5059 2.16675H15.5059H14.5059C14.5059 2.90318 15.1027 3.50005 15.8392 3.50005V2.50005ZM15.5059 2.16675H16.5059V1.4168H15.5059H14.5059V2.16675H15.5059ZM15.5059 1.4168H16.5059C16.5059 1.78494 16.2073 2.0835 15.8392 2.0835V1.0835V0.0834961C15.1027 0.0834961 14.5059 0.680366 14.5059 1.4168H15.5059ZM15.8392 1.0835V2.0835C15.471 2.0835 15.1725 1.78494 15.1725 1.4168H16.1725H17.1725C17.1725 0.680366 16.5756 0.0834961 15.8392 0.0834961V1.0835Z" fill="#777777" mask="url(#path-10-inside-3_2468_13936)"/>
</g>
<defs>
<clipPath id="clip0_2468_13936">
<rect width="20" height="20" fill="white"/>
</clipPath>
</defs>
</svg>
