<svg width="20" height="20" viewBox="0 0 20 20" fill="none" xmlns="http://www.w3.org/2000/svg">
<g clip-path="url(#clip0_2468_13955)">
<path d="M10.4226 0.231838C8.46569 2.01257 6.50641 3.80464 4.55007 5.59085C4.45146 5.66897 4.33008 5.71243 4.2042 5.71243H2.14204C0.96706 5.71243 -0.000915565 6.68226 0.00195951 7.85724L0.0126003 12.1853C0.0156406 13.3608 1.00249 14.3205 2.17747 14.29L4.21957 14.2888C4.35288 14.2888 4.48662 14.3445 4.54779 14.3973L10.3873 19.7263C11.0415 20.3226 12.1414 19.7893 12.1414 18.9307V1.05702C12.1414 0.428038 11.5434 -0.0161785 10.968 0.0217923C10.757 0.0429754 10.507 0.147437 10.4226 0.231838ZM10.7118 1.89975V18.089C8.95684 16.4902 7.19782 14.8791 5.44485 13.2829C5.08837 12.9977 4.64174 12.8485 4.18536 12.8604C3.50387 12.875 2.82234 12.8472 2.14085 12.8616C1.74951 12.8717 1.44204 12.5742 1.44204 12.1829C1.43841 10.7398 1.43418 9.2967 1.43025 7.85357C1.42902 7.45182 1.74029 7.14062 2.14204 7.14062H4.2042C4.65506 7.14062 5.09273 6.98672 5.44481 6.70506C7.28139 5.03398 9.14173 3.33296 10.7118 1.89975Z" fill="#777777"/>
<path d="M19.4566 2.87708C19.2729 2.83111 19.0784 2.85996 18.916 2.95735L15.3452 5.09978C15.0069 5.30256 14.897 5.74115 15.0997 6.07952C15.3025 6.41786 15.7411 6.52777 16.0794 6.32506L19.6513 4.18263C19.9896 3.97966 20.0992 3.54093 19.8963 3.20269C19.8961 3.20236 19.8959 3.20203 19.8957 3.20173C19.7981 3.03961 19.6402 2.92285 19.4566 2.87708Z" fill="#777777"/>
<path d="M15.5388 13.5905C15.355 13.6365 15.1971 13.7537 15.0997 13.9162C14.897 14.2546 15.0069 14.6932 15.3452 14.896L18.916 17.0384C19.2543 17.2411 19.6929 17.1312 19.8957 16.7929C20.0986 16.4548 19.9893 16.0163 19.6513 15.8131L16.0794 13.6707C15.917 13.5733 15.7226 13.5445 15.5388 13.5905Z" fill="#777777"/>
<path d="M15.7122 9.2832C15.3178 9.28324 14.9981 9.60296 14.998 9.99735C14.9981 10.3917 15.3178 10.7115 15.7122 10.7115H19.2829C19.6774 10.7121 19.9976 10.3928 19.9982 9.99834C19.9982 9.99801 19.9982 9.99768 19.9982 9.99735C19.9982 9.60287 19.6784 9.28314 19.2839 9.2832C19.2836 9.2832 19.2832 9.2832 19.2829 9.2832H15.7122Z" fill="#777777"/>
</g>
<defs>
<clipPath id="clip0_2468_13955">
<rect width="20" height="20" fill="white"/>
</clipPath>
</defs>
</svg>
