<svg width="20" height="20" viewBox="0 0 20 20" fill="none" xmlns="http://www.w3.org/2000/svg">
<g clip-path="url(#clip0_786_12698)">
<path d="M13.3333 1.6665C13.5374 1.66653 13.7344 1.74147 13.887 1.8771C14.0395 2.01273 14.137 2.19963 14.1608 2.40234L14.1667 2.49984V3.33317H15C15.6377 3.33314 16.2513 3.57677 16.7152 4.01424C17.1792 4.45171 17.4584 5.04993 17.4958 5.6865L17.5 5.83317V15.8332C17.5 16.4708 17.2564 17.0844 16.8189 17.5484C16.3815 18.0123 15.7832 18.2916 15.1467 18.329L15 18.3332H5C4.36232 18.3332 3.74874 18.0896 3.28478 17.6521C2.82083 17.2146 2.54158 16.6164 2.50417 15.9798L2.5 15.8332V5.83317C2.49996 5.19549 2.7436 4.58191 3.18107 4.11795C3.61854 3.654 4.21676 3.37475 4.85333 3.33734L5 3.33317H5.83333V2.49984C5.83357 2.28744 5.9149 2.08314 6.06071 1.9287C6.20651 1.77425 6.40579 1.68131 6.61783 1.66886C6.82986 1.65641 7.03865 1.7254 7.20153 1.86172C7.3644 1.99805 7.46908 2.19142 7.49417 2.40234L7.5 2.49984V3.33317H12.5V2.49984C12.5 2.27882 12.5878 2.06686 12.7441 1.91058C12.9004 1.7543 13.1123 1.6665 13.3333 1.6665ZM15.8333 7.49984H4.16667V15.5207C4.16667 16.1082 4.48833 16.5923 4.9025 16.659L5 16.6665H15C15.4275 16.6665 15.78 16.2248 15.8275 15.654L15.8333 15.5207V7.49984Z" fill="#777777"/>
<path d="M6.66602 11.6665H8.33268V13.3332H6.66602V11.6665Z" fill="#777777"/>
</g>
<defs>
<clipPath id="clip0_786_12698">
<rect width="20" height="20" fill="white"/>
</clipPath>
</defs>
</svg>
