<svg width="25" height="24" viewBox="0 0 25 24" fill="none" xmlns="http://www.w3.org/2000/svg">
<path d="M23.3947 11.05L2.27472 0.489994C2.06711 0.382874 1.83225 0.340166 1.60022 0.367341C1.36819 0.394516 1.14956 0.490335 0.972319 0.642528C0.795816 0.795819 0.669127 0.998341 0.608501 1.22412C0.547875 1.4499 0.556076 1.68864 0.632052 1.90973L4.09339 12.0943L0.690719 22.2788C0.632354 22.4509 0.614778 22.6343 0.639379 22.8144C0.663979 22.9945 0.730082 23.1664 0.832476 23.3165C0.934869 23.4667 1.07075 23.5911 1.22941 23.6797C1.38807 23.7684 1.56516 23.819 1.74672 23.8276C1.9304 23.8265 2.11125 23.7823 2.27472 23.6985L23.3947 13.1385C23.5869 13.0401 23.7482 12.8905 23.8608 12.7062C23.9735 12.522 24.0331 12.3102 24.0331 12.0943C24.0331 11.8783 23.9735 11.6666 23.8608 11.4823C23.7482 11.2981 23.5869 11.1485 23.3947 11.05ZM3.75312 20.3076L6.09979 13.2676H17.8331L3.75312 20.3076ZM6.09979 10.9209L3.75312 3.88093L17.8918 10.9209H6.09979Z" fill="#915FD8"/>
</svg>
