<svg width="20" height="20" viewBox="0 0 20 20" fill="none" xmlns="http://www.w3.org/2000/svg">
<g clip-path="url(#clip0_990_3720)">
<path d="M10 5.83301V9.99967L11.6667 11.6663" stroke="#5146AF" stroke-width="1.25" stroke-linecap="round" stroke-linejoin="round"/>
<path d="M14.167 18.333L18.3337 15.833L14.167 13.333V18.333Z" stroke="#5146AF" stroke-width="1.25" stroke-linecap="round" stroke-linejoin="round"/>
<path d="M10.848 17.452C9.27952 17.6303 7.69482 17.3091 6.31954 16.5343C4.94425 15.7595 3.84851 14.5704 3.18835 13.1366C2.52819 11.7027 2.33728 10.0971 2.6428 8.54841C2.94832 6.99972 3.7347 5.58691 4.88994 4.51118C6.04519 3.43545 7.51039 2.75165 9.07691 2.55715C10.6434 2.36266 12.2314 2.6674 13.6146 3.42796C14.9978 4.18852 16.1058 5.36613 16.7808 6.79309C17.4557 8.22005 17.6633 9.82359 17.3738 11.3754" stroke="#5146AF" stroke-width="1.25" stroke-linecap="round" stroke-linejoin="round"/>
</g>
<defs>
<clipPath id="clip0_990_3720">
<rect width="20" height="20" fill="white"/>
</clipPath>
</defs>
</svg>
