<svg width="11" height="10" viewBox="0 0 11 10" fill="none" xmlns="http://www.w3.org/2000/svg">
<path d="M9.37937 5.58125C9.41055 5.65803 9.40997 5.74405 9.37773 5.82039C9.3455 5.89673 9.28427 5.95714 9.2075 5.98834L8.33919 6.34147L9.14281 6.82434C9.17896 6.84499 9.21062 6.87264 9.23593 6.90568C9.26124 6.93873 9.27969 6.9765 9.29021 7.01677C9.30073 7.05704 9.30309 7.09901 9.29716 7.14021C9.29123 7.18141 9.27714 7.22102 9.25569 7.25669C9.23425 7.29237 9.2059 7.3234 9.1723 7.34797C9.1387 7.37254 9.10053 7.39015 9.06003 7.39976C9.01953 7.40938 8.97752 7.41081 8.93646 7.40396C8.8954 7.39712 8.85613 7.38214 8.82094 7.35991L8.01737 6.87709L8.11325 7.80991C8.12031 7.89161 8.09497 7.97282 8.04269 8.03601C7.99041 8.0992 7.91539 8.13931 7.8338 8.14768C7.75222 8.15605 7.67061 8.13201 7.60659 8.08076C7.54257 8.0295 7.50127 7.95513 7.49159 7.87369L7.34784 6.47478L5.81219 5.55228V7.34375L6.93719 8.1875C6.97002 8.21212 6.99767 8.24297 7.01858 8.27828C7.03949 8.3136 7.05324 8.35268 7.05904 8.39331C7.06485 8.43393 7.06259 8.4753 7.05241 8.51506C7.04222 8.55481 7.02431 8.59217 6.99969 8.625C6.97506 8.65783 6.94421 8.68549 6.9089 8.7064C6.87359 8.72731 6.83451 8.74106 6.79388 8.74686C6.75325 8.75266 6.71188 8.75041 6.67213 8.74022C6.63237 8.73004 6.59502 8.71212 6.56219 8.6875L5.81219 8.125V9.0625C5.81219 9.14538 5.77926 9.22487 5.72066 9.28347C5.66205 9.34208 5.58257 9.375 5.49969 9.375C5.41681 9.375 5.33732 9.34208 5.27871 9.28347C5.22011 9.22487 5.18719 9.14538 5.18719 9.0625V8.125L4.43719 8.6875C4.37088 8.73723 4.28754 8.75858 4.20549 8.74686C4.12344 8.73514 4.04941 8.6913 3.99969 8.625C3.94996 8.5587 3.92861 8.47535 3.94033 8.39331C3.95205 8.31126 3.99588 8.23723 4.06219 8.1875L5.18719 7.34375V5.55228L3.65159 6.475L3.50784 7.87391C3.49995 7.9508 3.46384 8.02204 3.40649 8.07386C3.34913 8.12569 3.27461 8.15442 3.19731 8.1545C3.18656 8.15455 3.17581 8.154 3.16512 8.15284C3.1243 8.14868 3.08469 8.13651 3.04857 8.11702C3.01245 8.09754 2.98052 8.07113 2.95462 8.0393C2.92871 8.00747 2.90933 7.97085 2.89759 7.93152C2.88585 7.8922 2.88197 7.85095 2.88619 7.81012L2.98206 6.87731L2.1785 7.36013C2.14331 7.38236 2.10403 7.39734 2.06297 7.40418C2.02192 7.41102 1.9799 7.4096 1.9394 7.39998C1.89891 7.39037 1.86074 7.37276 1.82713 7.34819C1.79353 7.32362 1.76518 7.29259 1.74374 7.25691C1.7223 7.22123 1.7082 7.18163 1.70227 7.14043C1.69634 7.09923 1.69871 7.05726 1.70922 7.01699C1.71974 6.97671 1.73819 6.93895 1.76351 6.9059C1.78882 6.87286 1.82048 6.8452 1.85662 6.82456L2.66025 6.34169L1.79194 5.98856C1.71645 5.95648 1.65661 5.896 1.62532 5.82019C1.59403 5.74437 1.5938 5.6593 1.62468 5.58331C1.65556 5.50733 1.71508 5.44653 1.79038 5.41404C1.86569 5.38154 1.95075 5.37996 2.02722 5.40963L3.3299 5.93937L4.89303 5L3.32978 4.06072L2.02709 4.59062C1.95063 4.62029 1.86556 4.61871 1.79026 4.58621C1.71495 4.55372 1.65544 4.49292 1.62456 4.41694C1.59368 4.34095 1.59391 4.25588 1.6252 4.18006C1.65649 4.10425 1.71633 4.04377 1.79181 4.01169L2.66012 3.65856L1.8565 3.1755C1.82035 3.15486 1.78869 3.1272 1.76338 3.09416C1.73807 3.06112 1.71961 3.02335 1.7091 2.98307C1.69858 2.9428 1.69622 2.90083 1.70215 2.85963C1.70807 2.81843 1.72217 2.77883 1.74361 2.74315C1.76506 2.70747 1.79341 2.67644 1.82701 2.65187C1.86061 2.6273 1.89878 2.60969 1.93928 2.60008C1.97978 2.59046 2.02179 2.58904 2.06285 2.59588C2.10391 2.60273 2.14318 2.6177 2.17837 2.63994L2.98194 3.12275L2.88606 2.18994C2.88187 2.14911 2.88577 2.10786 2.89752 2.06854C2.90927 2.02922 2.92866 1.9926 2.95456 1.96078C3.00688 1.89649 3.0826 1.85563 3.16504 1.84717C3.24749 1.83871 3.32993 1.86336 3.39421 1.91567C3.45849 1.96799 3.49935 2.04371 3.50781 2.12616L3.65156 3.52506L5.18719 4.44772V2.65625L4.06219 1.8125C3.99588 1.76277 3.95205 1.68874 3.94033 1.60669C3.92861 1.52465 3.94996 1.4413 3.99969 1.375C4.04941 1.3087 4.12344 1.26486 4.20549 1.25314C4.28754 1.24142 4.37088 1.26277 4.43719 1.3125L5.18719 1.875V0.9375C5.18719 0.85462 5.22011 0.775134 5.27871 0.716529C5.33732 0.657924 5.41681 0.625 5.49969 0.625C5.58257 0.625 5.66205 0.657924 5.72066 0.716529C5.77926 0.775134 5.81219 0.85462 5.81219 0.9375V1.875L6.56219 1.3125C6.59502 1.28788 6.63237 1.26996 6.67213 1.25978C6.71188 1.24959 6.75325 1.24734 6.79388 1.25314C6.83451 1.25894 6.87359 1.27269 6.9089 1.2936C6.94421 1.31451 6.97506 1.34217 6.99969 1.375C7.02431 1.40783 7.04222 1.44519 7.05241 1.48494C7.06259 1.5247 7.06485 1.56607 7.05904 1.60669C7.05324 1.64732 7.03949 1.6864 7.01858 1.72172C6.99767 1.75703 6.97002 1.78788 6.93719 1.8125L5.81219 2.65625V4.44775L7.34778 3.525L7.49153 2.12609C7.50121 2.04465 7.54251 1.97028 7.60653 1.91903C7.67055 1.86777 7.75216 1.84373 7.83374 1.8521C7.91532 1.86047 7.99035 1.90058 8.04263 1.96377C8.0949 2.02696 8.12025 2.10817 8.11318 2.18987L8.01731 3.12269L8.82087 2.63988C8.85606 2.61764 8.89534 2.60266 8.9364 2.59582C8.97746 2.58898 9.01947 2.5904 9.05997 2.60002C9.10047 2.60963 9.13864 2.62724 9.17224 2.65181C9.20584 2.67638 9.23419 2.70741 9.25563 2.74309C9.27707 2.77877 9.29117 2.81837 9.2971 2.85957C9.30303 2.90077 9.30066 2.94274 9.29015 2.98301C9.27963 3.02329 9.26118 3.06105 9.23586 3.0941C9.21055 3.12714 9.17889 3.1548 9.14275 3.17544L8.33912 3.65831L9.20744 4.01144C9.28292 4.04352 9.34276 4.104 9.37405 4.17981C9.40534 4.25563 9.40557 4.3407 9.37469 4.41669C9.34381 4.49267 9.2843 4.55347 9.20899 4.58596C9.13368 4.61846 9.04862 4.62004 8.97215 4.59038L7.66947 4.06063L6.10634 5L7.66959 5.93928L8.97228 5.40953C9.01028 5.39403 9.05096 5.38618 9.092 5.38642C9.13304 5.38667 9.17363 5.395 9.21144 5.41095C9.24926 5.4269 9.28355 5.45016 9.31237 5.47938C9.34118 5.5086 9.36395 5.54322 9.37937 5.58125Z" fill="#2796FA"/>
</svg>
