<svg width="510" height="510" viewBox="0 0 510 510" fill="none" xmlns="http://www.w3.org/2000/svg">
<g clip-path="url(#clip0_3283_1288)">
<path d="M255 510C395.833 510 510 395.833 510 255C510 114.167 395.833 0 255 0C114.167 0 0 114.167 0 255C0 395.833 114.167 510 255 510Z" fill="#4FBD45"/>
<path fill-rule="evenodd" clip-rule="evenodd" d="M175.362 379.371L82.1001 279.554C69.3321 265.888 70.0649 244.267 83.7305 231.499C97.3961 218.731 119.017 219.466 131.785 233.129L203.723 310.123L317.592 203.732C318.616 202.774 319.686 201.897 320.792 201.09L374.34 151.06C388.006 138.292 409.628 139.026 422.395 152.692C435.163 166.356 434.428 187.978 420.764 200.746L257.215 353.556L257.04 353.369L200.466 406.228L175.362 379.371Z" fill="white"/>
</g>
<defs>
<clipPath id="clip0_3283_1288">
<rect width="510" height="510" fill="white"/>
</clipPath>
</defs>
</svg>
