<svg width="20" height="20" viewBox="0 0 20 20" fill="none" xmlns="http://www.w3.org/2000/svg">
<path d="M16.25 1.25H5C4.50272 1.25 4.02581 1.44754 3.67417 1.79917C3.32254 2.15081 3.125 2.62772 3.125 3.125V3.75H2.5C2.33424 3.75 2.17527 3.81585 2.05806 3.93306C1.94085 4.05027 1.875 4.20924 1.875 4.375C1.875 4.54076 1.94085 4.69973 2.05806 4.81694C2.17527 4.93415 2.33424 5 2.5 5H3.125V7.5H2.5C2.33424 7.5 2.17527 7.56585 2.05806 7.68306C1.94085 7.80027 1.875 7.95924 1.875 8.125C1.875 8.29076 1.94085 8.44973 2.05806 8.56694C2.17527 8.68415 2.33424 8.75 2.5 8.75H3.125V11.25H2.5C2.33424 11.25 2.17527 11.3158 2.05806 11.4331C1.94085 11.5503 1.875 11.7092 1.875 11.875C1.875 12.0408 1.94085 12.1997 2.05806 12.3169C2.17527 12.4342 2.33424 12.5 2.5 12.5H3.125V15H2.5C2.33424 15 2.17527 15.0658 2.05806 15.1831C1.94085 15.3003 1.875 15.4592 1.875 15.625C1.875 15.7908 1.94085 15.9497 2.05806 16.0669C2.17527 16.1842 2.33424 16.25 2.5 16.25H3.125V16.875C3.125 17.3723 3.32254 17.8492 3.67417 18.2008C4.02581 18.5525 4.50272 18.75 5 18.75H16.25C16.7473 18.75 17.2242 18.5525 17.5758 18.2008C17.9275 17.8492 18.125 17.3723 18.125 16.875V3.125C18.125 2.62772 17.9275 2.15081 17.5758 1.79917C17.2242 1.44754 16.7473 1.25 16.25 1.25ZM16.875 16.875C16.875 17.0408 16.8092 17.1997 16.6919 17.3169C16.5747 17.4342 16.4158 17.5 16.25 17.5H5C4.83424 17.5 4.67527 17.4342 4.55806 17.3169C4.44085 17.1997 4.375 17.0408 4.375 16.875V16.25H5C5.16576 16.25 5.32473 16.1842 5.44194 16.0669C5.55915 15.9497 5.625 15.7908 5.625 15.625C5.625 15.4592 5.55915 15.3003 5.44194 15.1831C5.32473 15.0658 5.16576 15 5 15H4.375V12.5H5C5.16576 12.5 5.32473 12.4342 5.44194 12.3169C5.55915 12.1997 5.625 12.0408 5.625 11.875C5.625 11.7092 5.55915 11.5503 5.44194 11.4331C5.32473 11.3158 5.16576 11.25 5 11.25H4.375V8.75H5C5.16576 8.75 5.32473 8.68415 5.44194 8.56694C5.55915 8.44973 5.625 8.29076 5.625 8.125C5.625 7.95924 5.55915 7.80027 5.44194 7.68306C5.32473 7.56585 5.16576 7.5 5 7.5H4.375V5H5C5.16576 5 5.32473 4.93415 5.44194 4.81694C5.55915 4.69973 5.625 4.54076 5.625 4.375C5.625 4.20924 5.55915 4.05027 5.44194 3.93306C5.32473 3.81585 5.16576 3.75 5 3.75H4.375V3.125C4.375 2.95924 4.44085 2.80027 4.55806 2.68306C4.67527 2.56585 4.83424 2.5 5 2.5H16.25C16.4158 2.5 16.5747 2.56585 16.6919 2.68306C16.8092 2.80027 16.875 2.95924 16.875 3.125V16.875ZM12.6125 9.9125C12.968 9.68883 13.2615 9.37919 13.4658 9.01216C13.67 8.64512 13.7785 8.23254 13.7812 7.8125C13.7812 7.14117 13.5146 6.49734 13.0399 6.02264C12.5652 5.54793 11.9213 5.28125 11.25 5.28125C10.5787 5.28125 9.93484 5.54793 9.46014 6.02264C8.98543 6.49734 8.71875 7.14117 8.71875 7.8125C8.72146 8.23254 8.82995 8.64512 9.03423 9.01216C9.2385 9.37919 9.53195 9.68883 9.8875 9.9125C9.13436 10.1416 8.45699 10.5697 7.92679 11.1515C7.3966 11.7334 7.03323 12.4476 6.875 13.2188C6.83824 13.3949 6.84222 13.5771 6.88663 13.7515C6.93104 13.9259 7.01471 14.0879 7.13125 14.225C7.25087 14.3725 7.40254 14.4908 7.57473 14.571C7.74692 14.6511 7.93511 14.691 8.125 14.6875H14.375C14.5628 14.6891 14.7485 14.6483 14.9184 14.5682C15.0883 14.4882 15.2379 14.3709 15.3562 14.225C15.475 14.089 15.5609 13.9275 15.6075 13.7531C15.6541 13.5787 15.6601 13.3959 15.625 13.2188C15.4668 12.4476 15.1034 11.7334 14.5732 11.1515C14.043 10.5697 13.3656 10.1416 12.6125 9.9125ZM11.25 6.5625C11.4958 6.56865 11.7343 6.64715 11.9357 6.78818C12.1372 6.92922 12.2925 7.12652 12.3823 7.3554C12.4722 7.58428 12.4925 7.83457 12.4408 8.07496C12.3891 8.31534 12.2677 8.53513 12.0917 8.70684C11.9157 8.87854 11.6929 8.99453 11.4513 9.04028C11.2098 9.08603 10.96 9.05952 10.7335 8.96406C10.5069 8.8686 10.3135 8.70844 10.1774 8.5036C10.0414 8.29878 9.96883 8.05838 9.96875 7.8125C9.9687 7.64568 10.002 7.48055 10.0668 7.32682C10.1316 7.17309 10.2264 7.03387 10.3458 6.91738C10.4652 6.80089 10.6068 6.70948 10.762 6.64853C10.9173 6.58758 11.0832 6.55833 11.25 6.5625ZM8.125 13.4375C8.27618 12.7207 8.6692 12.0776 9.23816 11.6162C9.80711 11.1547 10.5174 10.9029 11.25 10.9029C11.9826 10.9029 12.6929 11.1547 13.2618 11.6162C13.8308 12.0776 14.2238 12.7207 14.375 13.4375H8.125Z" fill="black"/>
</svg>
