<svg width="18" height="12" viewBox="0 0 18 12" fill="none" xmlns="http://www.w3.org/2000/svg">
<path d="M1.34807 0.103333C0.603527 0.103333 0 0.70686 0 1.4514V10.5484C0 11.2929 0.603527 11.8965 1.34807 11.8965H4.0345V0.103333H1.34807Z" fill="#FF4B55"/>
<path d="M16.6513 0.103333H13.9648V11.8964H16.6513C17.3958 11.8964 17.9993 11.2929 17.9993 10.5484V1.4514C17.9993 0.70686 17.3958 0.103333 16.6513 0.103333Z" fill="#FF4B55"/>
<path d="M10.8827 7.36257L12.7243 6.31027L12.3017 6.09898C12.1832 6.03971 12.1154 5.91174 12.1329 5.78036L12.2704 4.74951L11.4907 4.97634C11.3185 5.02647 11.1398 4.92051 11.101 4.7454L11.0264 4.4079L10.2943 5.26465C10.1928 5.38341 9.99948 5.29271 10.0259 5.13876L10.3386 3.3209L9.85994 3.45179C9.72012 3.49004 9.57247 3.42641 9.5043 3.29851L9.00026 2.35382V2.35242L8.99991 2.35312L8.99953 2.35242V2.35382L8.49549 3.29851C8.42725 3.42637 8.2796 3.49 8.13978 3.45179L7.66113 3.3209L7.97377 5.13876C8.00025 5.29267 7.80689 5.38341 7.70539 5.26469L6.97333 4.40793L6.89866 4.74543C6.85992 4.92058 6.68118 5.02647 6.50895 4.97637L5.72929 4.74955L5.86679 5.7804C5.88433 5.91174 5.81648 6.03975 5.69797 6.09902L5.27539 6.31027L7.11698 7.3626C7.30774 7.47162 7.39134 7.70281 7.31438 7.90858L7.15695 8.32965L8.73494 8.19493C8.82227 8.18748 8.89659 8.25779 8.89402 8.34536L8.84431 10.0344H9.15467L9.10489 8.34529C9.10232 8.25768 9.17664 8.18741 9.26397 8.19486L10.8427 8.32965L10.6853 7.90858C10.6084 7.70278 10.6919 7.47155 10.8827 7.36257Z" fill="#FF4B55"/>
</svg>
