<svg width="21" height="16" viewBox="0 0 21 16" fill="none" xmlns="http://www.w3.org/2000/svg">
<path d="M10.0355 4.46447V11.5355" stroke="#808080" stroke-width="1.5" stroke-linecap="round" stroke-linejoin="round" stroke-dasharray="4 4"/>
<path d="M18.5 1H2.5C1.94772 1 1.5 1.44772 1.5 2V4C1.5 4.55228 1.96 4.98368 2.48189 5.16437C3.65654 5.57105 4.50002 6.68702 4.50004 8C4.50006 9.31298 3.65656 10.429 2.4819 10.8356C1.96 11.0163 1.5 11.4477 1.5 12V14C1.5 14.5523 1.94772 15 2.5 15H18.5C19.0523 15 19.5 14.5523 19.5 14V12C19.5 11.4477 19.04 11.0163 18.5181 10.8356C17.3435 10.4289 16.5001 9.31297 16.5 8C16.5 6.68703 17.3435 5.57105 18.5181 5.16437C19.04 4.98368 19.5 4.55228 19.5 4V2C19.5 1.44772 19.0523 1 18.5 1Z" stroke="#808080" stroke-width="1.5"/>
</svg>
