<?xml version="1.0" encoding="UTF-8"?>
<svg xmlns="http://www.w3.org/2000/svg" xmlns:xlink="http://www.w3.org/1999/xlink" version="1.1" width="512" height="512" x="0" y="0" viewBox="0 0 64 64" style="enable-background:new 0 0 512 512" xml:space="preserve">
  <g>
    <path d="M51 45H41c-1.1 0-2-.9-2-2s.9-2 2-2h10c1.1 0 2 .9 2 2s-.9 2-2 2zM60 26H4c-1.1 0-2-.9-2-2s.9-2 2-2h56c1.1 0 2 .9 2 2s-.9 2-2 2z" fill="#000000" opacity="1" data-original="#000000"/>
    <path d="M52 54H12C6.49 54 2 49.51 2 44V20c0-5.51 4.49-10 10-10h40c5.51 0 10 4.49 10 10v24c0 5.51-4.49 10-10 10zM12 14c-3.31 0-6 2.69-6 6v24c0 3.31 2.69 6 6 6h40c3.31 0 6-2.69 6-6V20c0-3.31-2.69-6-6-6z" fill="#000000" opacity="1" data-original="#000000"/>
  </g>
</svg>
