<svg width="30" height="30" viewBox="0 0 30 30" fill="none" xmlns="http://www.w3.org/2000/svg">
<path fill-rule="evenodd" clip-rule="evenodd" d="M21.9101 5.14791C22.3166 4.93039 22.8098 4.95422 23.1934 5.20994L26.9434 7.70994C27.4018 8.01549 27.606 8.58504 27.4464 9.11224C27.2868 9.63942 26.8009 10 26.25 10H3.75C3.05965 10 2.5 9.44036 2.5 8.75C2.5 8.05965 3.05965 7.5 3.75 7.5H21.25V6.25C21.25 5.78901 21.5037 5.36544 21.9101 5.14791Z" fill="#AB5934"/>
<path fill-rule="evenodd" clip-rule="evenodd" d="M2.5 16.25C2.5 15.5596 3.05965 15 3.75 15H26.25C26.9404 15 27.5 15.5596 27.5 16.25C27.5 16.9404 26.9404 17.5 26.25 17.5H3.75C3.05965 17.5 2.5 16.9404 2.5 16.25Z" fill="black"/>
<path fill-rule="evenodd" clip-rule="evenodd" d="M2.5 23.75C2.5 23.0596 3.05965 22.5 3.75 22.5H26.25C26.9404 22.5 27.5 23.0596 27.5 23.75C27.5 24.4404 26.9404 25 26.25 25H3.75C3.05965 25 2.5 24.4404 2.5 23.75Z" fill="black"/>
</svg>
