<svg width="12" height="16" viewBox="0 0 12 16" fill="none" xmlns="http://www.w3.org/2000/svg">
<path d="M10.2462 4.87891V13.1729C10.2462 14.2894 9.50019 15.1932 8.58215 15.1932H3.417C2.49626 15.1932 1.75293 14.2894 1.75293 13.1729V4.87891H10.2462Z" fill="#915FD8"/>
<path d="M11.0342 2.50639V3.05425C11.0341 3.13811 11.0207 3.22113 10.995 3.29855C10.9692 3.37597 10.9315 3.44629 10.884 3.50548C10.8366 3.56468 10.7802 3.61159 10.7182 3.64355C10.6563 3.67551 10.5899 3.69188 10.5228 3.69173H1.47462C1.40766 3.69188 1.34134 3.67549 1.27945 3.64351C1.21756 3.61153 1.16133 3.56458 1.11397 3.50536C1.06661 3.44614 1.02906 3.37581 1.00347 3.2984C0.977883 3.22099 0.964756 3.13802 0.964845 3.05425V2.50639C0.964726 2.42251 0.97782 2.33941 1.00338 2.26186C1.02894 2.18431 1.06646 2.11381 1.1138 2.0544C1.16114 1.995 1.21737 1.94784 1.27928 1.91563C1.34119 1.88341 1.40757 1.86678 1.47462 1.86667H3.29926C3.29891 1.72759 3.32054 1.58981 3.36292 1.46123C3.40529 1.33266 3.46758 1.21585 3.54618 1.11751C3.62479 1.01917 3.71816 0.941248 3.82093 0.888233C3.9237 0.835218 4.03384 0.808154 4.145 0.808599H7.85223C7.96331 0.808525 8.07331 0.835843 8.17594 0.888989C8.27858 0.942136 8.37184 1.02007 8.45038 1.11833C8.52893 1.2166 8.59122 1.33327 8.6337 1.46167C8.67619 1.59008 8.69802 1.7277 8.69796 1.86667H10.5226C10.6582 1.86681 10.7882 1.93425 10.8841 2.05418C10.98 2.17412 11.034 2.33675 11.0342 2.50639Z" fill="#915FD8"/>
</svg>
