<svg width="16" height="16" viewBox="0 0 16 16" fill="none" xmlns="http://www.w3.org/2000/svg">
<path d="M15.0059 4.5957C15.1203 4.50138 15.2871 4.50464 15.3984 4.60352C15.5216 4.71292 15.5334 4.89972 15.4268 5.02441L8.95898 11.4209C8.90273 11.4765 8.82618 11.5076 8.74707 11.5078H8.74316C8.70336 11.5076 8.6636 11.4989 8.62695 11.4834C8.59047 11.4679 8.55706 11.4453 8.5293 11.417L7.76172 10.6152L7.75586 10.6094H7.75488C7.64134 10.4891 7.64624 10.2994 7.76562 10.1846C7.88591 10.0692 8.077 10.0731 8.19238 10.1934H8.19336L8.4043 10.4131L8.75586 10.7773L9.11621 10.4209L15.0059 4.5957ZM10.2148 4.57617C10.3186 4.47577 10.477 4.46567 10.5928 4.54297L10.6396 4.58203C10.755 4.70047 10.7538 4.88918 10.6367 5.00586L4.14941 11.4209C4.09325 11.4763 4.0174 11.5075 3.93848 11.5078H3.93262C3.89282 11.5076 3.85306 11.4999 3.81641 11.4844C3.79807 11.4766 3.78103 11.4662 3.76465 11.4551L3.71875 11.417L0.586914 8.17188V8.1709L0.583008 8.16699H0.582031C0.468498 8.04671 0.473284 7.85703 0.592773 7.74219C0.713021 7.6268 0.904119 7.63069 1.01953 7.75098L1.02051 7.75195L3.5918 10.4131L3.94238 10.7773L4.30273 10.4209L10.2148 4.57617Z" fill="#B5BDAC" stroke="black"/>
</svg>
