<?xml version="1.0" encoding="UTF-8"?>
<svg xmlns="http://www.w3.org/2000/svg" xmlns:xlink="http://www.w3.org/1999/xlink" xmlns:svgjs="http://svgjs.com/svgjs" version="1.1" width="512" height="512" x="0" y="0" viewBox="0 0 24 24" style="enable-background:new 0 0 512 512" xml:space="preserve" class="">
  <g>
    <g fill="#000">
      <path d="M12 11.796c2.719 0 4.923-2.193 4.923-4.898S14.72 2 12 2 7.077 4.193 7.077 6.898 9.28 11.796 12 11.796zM14.564 13.837H9.436C6.462 13.837 4 16.286 4 19.245c0 .714.308 1.327.923 1.633C5.846 21.388 7.897 22 12 22s6.154-.612 7.077-1.122A1.93 1.93 0 0 0 20 19.245c0-3.061-2.461-5.408-5.436-5.408z" fill="#dc9101" data-original="#000000" class=""/>
    </g>
  </g>
</svg>
