<svg width="20" height="20" viewBox="0 0 20 20" fill="none" xmlns="http://www.w3.org/2000/svg">
<g clip-path="url(#clip0_212_11631)">
<path d="M5.83301 5.83325H4.99967C4.55765 5.83325 4.13372 6.00885 3.82116 6.32141C3.5086 6.63397 3.33301 7.05789 3.33301 7.49992V14.9999C3.33301 15.4419 3.5086 15.8659 3.82116 16.1784C4.13372 16.491 4.55765 16.6666 4.99967 16.6666H12.4997C12.9417 16.6666 13.3656 16.491 13.6782 16.1784C13.9907 15.8659 14.1663 15.4419 14.1663 14.9999V14.1666" stroke="#523F88" stroke-width="1.5" stroke-linecap="round" stroke-linejoin="round"/>
<path d="M16.9875 5.48747C17.3157 5.15926 17.5001 4.71412 17.5001 4.24997C17.5001 3.78581 17.3157 3.34067 16.9875 3.01247C16.6593 2.68426 16.2142 2.49988 15.75 2.49988C15.2858 2.49988 14.8407 2.68426 14.5125 3.01247L7.5 9.99997V12.5H10L16.9875 5.48747Z" stroke="#523F88" stroke-width="1.5" stroke-linecap="round" stroke-linejoin="round"/>
<path d="M13.333 4.16675L15.833 6.66675" stroke="#523F88" stroke-width="1.5" stroke-linecap="round" stroke-linejoin="round"/>
</g>
<defs>
<clipPath id="clip0_212_11631">
<rect width="20" height="20" fill="white"/>
</clipPath>
</defs>
</svg>
