<svg width="20" height="20" viewBox="0 0 20 20" fill="none" xmlns="http://www.w3.org/2000/svg">
<g clip-path="url(#clip0_212_11541)">
<path d="M18.3337 6.27917V14.1667C18.3337 14.8044 18.0901 15.4179 17.6526 15.8819C17.2151 16.3458 16.6169 16.6251 15.9803 16.6625L15.8337 16.6667H4.16699C3.52932 16.6667 2.91573 16.4231 2.45177 15.9856C1.98782 15.5481 1.70857 14.9499 1.67116 14.3133L1.66699 14.1667V6.27917L9.53783 11.5267L9.63449 11.5817C9.74841 11.6373 9.87353 11.6663 10.0003 11.6663C10.1271 11.6663 10.2522 11.6373 10.3662 11.5817L10.4628 11.5267L18.3337 6.27917Z" fill="#777777"/>
<path d="M15.8329 3.33325C16.7329 3.33325 17.5221 3.80825 17.9621 4.52242L9.99961 9.83075L2.03711 4.52242C2.24605 4.18306 2.53312 3.89859 2.87437 3.69274C3.21561 3.48689 3.60114 3.36563 3.99878 3.33909L4.16628 3.33325H15.8329Z" fill="#777777"/>
</g>
<defs>
<clipPath id="clip0_212_11541">
<rect width="20" height="20" fill="white"/>
</clipPath>
</defs>
</svg>
