<svg width="512" height="512" viewBox="0 0 512 512" fill="none" xmlns="http://www.w3.org/2000/svg">
<path d="M422.667 427H89.3333C70.95 427 56 407.827 56 384.25V127.75C56 104.173 70.95 85 89.3333 85H422.667C441.05 85 456 104.173 456 127.75V384.25C456 407.827 441.05 427 422.667 427ZM89.3333 106.375C80.15 106.375 72.6667 115.972 72.6667 127.75V384.25C72.6667 396.028 80.15 405.625 89.3333 405.625H422.667C431.85 405.625 439.333 396.028 439.333 384.25V127.75C439.333 115.972 431.85 106.375 422.667 106.375H89.3333Z" fill="black"/>
<path d="M255.983 263C249.367 263 242.751 260.993 236.701 256.958L60.4752 139.153C56.392 136.42 54.8254 129.973 56.942 124.742C59.0752 119.512 64.075 117.483 68.1915 120.216L244.434 238C251.684 242.846 260.316 242.846 267.566 238L443.808 120.216C447.908 117.483 452.925 119.512 455.058 124.742C457.175 129.973 455.608 136.42 451.525 139.153L275.266 256.937C269.216 260.972 262.6 263 255.983 263Z" fill="black"/>
</svg>
