<svg width="20" height="20" viewBox="0 0 20 20" fill="none" xmlns="http://www.w3.org/2000/svg">
<path d="M11.7595 7.82084C12.5287 8.38258 12.9836 9.27361 12.9836 10.2284C12.9836 10.4987 12.7644 10.7176 12.4944 10.7176H7.50728C7.23728 10.7176 7.01806 10.4987 7.01806 10.2284C7.01806 9.27361 7.47303 8.38258 8.24217 7.82084C8.03476 7.49674 7.91453 7.11146 7.91453 6.69831C7.91453 5.54625 8.84879 4.61223 10.0008 4.61223C11.1529 4.61223 12.0872 5.54625 12.0872 6.69831C12.0872 7.11146 11.9669 7.49674 11.7595 7.82084ZM5.82349 13.1252C5.18002 13.1252 5.18002 12.1465 5.82349 12.1465H14.1782C14.8217 12.1465 14.8217 13.1252 14.1782 13.1252H5.82349ZM5.82349 15.5342C5.18002 15.5342 5.18002 14.5555 5.82349 14.5555H14.1782C14.8217 14.5555 14.8217 15.5342 14.1782 15.5342H5.82349ZM4.71915 1.99843V0.69354C4.71915 0.0500701 5.69782 0.0500701 5.69782 0.69354V1.99843H9.51163V0.69354C9.51163 0.0500701 10.4901 0.0500701 10.4901 0.69354V1.99843H14.3039V0.69354C14.3039 0.0500701 15.2825 0.0500701 15.2825 0.69354V1.99843H17.3816C17.6518 1.99843 17.8708 2.21741 17.8708 2.48765V17.2492C17.8708 18.6469 16.7292 19.7886 15.3314 19.7886H4.67025C3.27252 19.7886 2.13086 18.6469 2.13086 17.2492V2.48765C2.13086 2.21741 2.34984 1.99843 2.62008 1.99843H4.71915ZM16.8924 2.97686C12.2981 2.97686 7.70382 2.97686 3.10929 2.97686V17.2492C3.10929 18.1067 3.81276 18.8099 4.67025 18.8099H15.3314C16.1889 18.8099 16.8924 18.1067 16.8924 17.2492V2.97686ZM8.96619 8.51014C8.51406 8.78345 8.18476 9.22683 8.0565 9.7392H11.9452C11.8169 9.22683 11.4876 8.78345 11.0355 8.51014C10.7305 8.6847 10.3774 8.78463 10.0008 8.78463C9.6243 8.78463 9.27091 8.6847 8.96619 8.51014ZM10.0008 5.59066C9.38903 5.59066 8.8932 6.0865 8.8932 6.69831C8.8932 7.31013 9.38903 7.80596 10.0008 7.80596C10.6127 7.80596 11.1085 7.31013 11.1085 6.69831C11.1085 6.0865 10.6127 5.59066 10.0008 5.59066Z" fill="black"/>
</svg>
