<svg width="19" height="20" viewBox="0 0 19 20" fill="none" xmlns="http://www.w3.org/2000/svg">
<path d="M14.843 1.15332H4.15547C2.224 1.15332 0.652344 2.72498 0.652344 4.65645V15.3439C0.652344 17.2754 2.224 18.8471 4.15547 18.8471H14.843C16.7744 18.8471 18.3461 17.2754 18.3461 15.3439V4.65645C18.3461 2.72498 16.7744 1.15332 14.843 1.15332ZM4.15547 2.22207H14.843C16.1854 2.22207 17.2773 3.31398 17.2773 4.65645V6.2002H1.72109V4.65645C1.72109 3.31398 2.813 2.22207 4.15547 2.22207ZM9.51644 14.5649H9.482C8.37881 14.5554 7.48344 13.6565 7.48344 12.5504C7.48344 11.4389 8.38712 10.5346 9.49922 10.5346C10.6113 10.5346 11.515 11.4383 11.515 12.5504C11.515 13.6559 10.6196 14.5554 9.51644 14.5649ZM9.482 15.6337C9.48794 15.6337 9.49328 15.6355 9.49922 15.6355C9.50516 15.6355 9.5105 15.6337 9.51644 15.6337H10.2153C11.4319 15.6337 12.4217 16.5819 12.5149 17.7777H6.48356C6.57678 16.5813 7.56656 15.6337 8.78316 15.6337H9.482ZM14.843 17.7783H13.5931C13.5237 16.459 12.7025 15.3362 11.5483 14.8393C12.1788 14.274 12.5843 13.4618 12.5843 12.5504C12.5843 10.8499 11.2003 9.46582 9.49981 9.46582C7.79931 9.46582 6.41528 10.8499 6.41528 12.5504C6.41528 13.4624 6.82022 14.274 7.45137 14.8393C6.29712 15.3362 5.47597 16.4584 5.4065 17.7783H4.15547C2.813 17.7783 1.72109 16.6864 1.72109 15.3439V7.26894H17.2773V15.3439C17.2773 16.6864 16.1854 17.7783 14.843 17.7783Z" fill="black"/>
<path d="M4.13398 4.74551H5.14692C5.44202 4.74551 5.6813 4.50623 5.6813 4.21113C5.6813 3.91604 5.44202 3.67676 5.14692 3.67676H4.13398C3.83889 3.67676 3.59961 3.91604 3.59961 4.21113C3.59961 4.50623 3.83889 4.74551 4.13398 4.74551Z" fill="black"/>
<path d="M7.4875 4.74551H14.8684C15.1635 4.74551 15.4028 4.50623 15.4028 4.21113C15.4028 3.91604 15.1635 3.67676 14.8684 3.67676H7.4875C7.19241 3.67676 6.95312 3.91604 6.95312 4.21113C6.95312 4.50623 7.19241 4.74551 7.4875 4.74551Z" fill="black"/>
</svg>
