<svg width="27" height="26" viewBox="0 0 27 26" fill="none" xmlns="http://www.w3.org/2000/svg">
<path d="M15.5582 8.31217L14.19 10.0245C14.1128 10.1212 13.9958 10.1773 13.8727 10.1773C13.7492 10.1773 13.6322 10.1208 13.555 10.0241L12.1876 8.30811C10.7133 8.89879 9.66152 10.1996 9.39258 11.7503H18.3577C18.1968 10.8305 17.7581 9.97942 17.0943 9.31886C16.6527 8.87726 16.1241 8.53764 15.5582 8.31217Z" fill="#915FD8"/>
<path d="M13.1348 22.1033H14.6143V20.3333C14.6143 20.3292 14.6119 20.3256 14.6119 20.3215C14.6119 20.3174 14.6143 20.3138 14.6143 20.3097V19.0118C14.6143 18.6039 14.2824 18.272 13.8745 18.272C13.4667 18.272 13.1348 18.6039 13.1348 19.0118V20.3097C13.1348 20.3138 13.1372 20.3174 13.1372 20.3215C13.1372 20.3256 13.1348 20.3292 13.1348 20.3333V22.1033Z" fill="#915FD8"/>
<path d="M8.24625 22.9158C7.59991 22.9158 7.07422 23.4415 7.07422 24.0878V24.3754H20.6763V24.0878C20.6763 23.4415 20.1506 22.9158 19.5042 22.9158H8.24625Z" fill="#915FD8"/>
<path d="M8.1582 19.9149H12.3231V19.0114C12.3231 18.1554 13.0194 17.4591 13.8754 17.4591C14.7313 17.4591 15.4276 18.1554 15.4276 19.0114V19.9149H19.5925V12.563H8.1582V19.9149Z" fill="#915FD8"/>
<path d="M11.5996 3.89919C11.5996 5.15287 12.6197 6.17338 13.8734 6.17338C15.1271 6.17338 16.1476 5.15328 16.1476 3.89919C16.1476 2.64509 15.1275 1.625 13.8734 1.625C12.6193 1.625 11.5996 2.64509 11.5996 3.89919Z" fill="#915FD8"/>
</svg>
