<svg width="24" height="24" viewBox="0 0 24 24" fill="none" xmlns="http://www.w3.org/2000/svg">
<path d="M13.5547 7.6727L12.2917 9.25332C12.2204 9.34257 12.1124 9.39432 11.9988 9.39432C11.8848 9.39432 11.7768 9.34219 11.7055 9.25294L10.4433 7.66895C9.08241 8.2142 8.11153 9.41495 7.86328 10.8463H16.1388C15.9903 9.99732 15.5853 9.21169 14.9725 8.60194C14.5649 8.19432 14.077 7.88082 13.5547 7.6727Z" fill="black"/>
<path d="M11.3164 20.4028H12.6822V18.769C12.6822 18.7652 12.6799 18.7618 12.6799 18.7581C12.6799 18.7543 12.6822 18.751 12.6822 18.7472V17.5491C12.6822 17.1726 12.3758 16.8662 11.9993 16.8662C11.6228 16.8662 11.3164 17.1726 11.3164 17.5491V18.7472C11.3164 18.751 11.3187 18.7543 11.3187 18.7581C11.3187 18.7618 11.3164 18.7652 11.3164 18.769V20.4028Z" fill="black"/>
<path d="M6.80469 21.5537H17.1963C17.5259 21.5537 17.8015 21.7891 17.8643 22.1006H6.13672C6.19952 21.7891 6.47508 21.5537 6.80469 21.5537Z" stroke="black" stroke-width="0.8"/>
<path d="M17.6777 11.1963V18.7832H13.0332V17.5488C13.0331 16.9797 12.5691 16.5166 12 16.5166C11.4309 16.5166 10.9669 16.9797 10.9668 17.5488V18.7832H6.32227V11.1963H17.6777Z" stroke="black" stroke-width="0.8"/>
<path d="M11.999 1.09961C13.3776 1.09961 14.498 2.22107 14.498 3.59961C14.4979 4.97803 13.377 6.09863 11.999 6.09863C10.621 6.0985 9.50019 4.97743 9.5 3.59961C9.5 2.22124 10.6205 1.09974 11.999 1.09961Z" stroke="black" stroke-width="0.8"/>
</svg>
