<svg width="24" height="24" viewBox="0 0 24 24" fill="none" xmlns="http://www.w3.org/2000/svg">
<path d="M8.81408 6.50616C8.93914 6.63758 9.09371 6.7373 9.26499 6.79707H9.31953C9.78135 8.13889 10.8323 9.02253 11.9995 9.02253C13.1668 9.02253 14.2141 8.14253 14.6795 6.80435L14.785 6.77889C14.952 6.717 15.1026 6.61745 15.225 6.48798C15.4241 6.30965 15.5669 6.07713 15.6359 5.81889C15.6746 5.66056 15.6682 5.49455 15.6175 5.33967C15.5667 5.18478 15.4736 5.0472 15.3486 4.94253C15.2911 4.90026 15.2303 4.86257 15.1668 4.8298C15.2723 4.44097 15.3261 4.03995 15.3268 3.63707C15.3268 1.40798 14.2068 0.273438 11.9995 0.273438C9.79226 0.273438 8.67226 1.40798 8.67226 3.63707C8.67424 4.04394 8.7305 4.44872 8.83953 4.84071C8.6704 4.93404 8.53651 5.08023 8.45835 5.25689C8.3802 5.43355 8.3621 5.63096 8.40681 5.81889C8.47293 6.08268 8.61445 6.32149 8.81408 6.50616ZM14.7123 5.9898C14.6667 6.03926 14.6125 6.07993 14.5523 6.1098C14.5051 6.09 14.4544 6.0798 14.4032 6.0798C14.352 6.0798 14.3013 6.09 14.2541 6.1098C14.2071 6.13251 14.1657 6.16504 14.1324 6.2052C14.0991 6.24535 14.0749 6.29219 14.0614 6.34253C13.7414 7.51344 12.9123 8.30253 11.9995 8.30253C11.0868 8.30253 10.265 7.52071 9.94135 6.35344C9.91656 6.26514 9.85931 6.18947 9.78109 6.1416C9.70287 6.09372 9.60944 6.07717 9.51953 6.09526C9.50993 6.09712 9.50005 6.09712 9.49044 6.09526C9.42742 6.06832 9.37144 6.02726 9.32681 5.97526C9.228 5.89187 9.15487 5.78217 9.1159 5.65889C9.10699 5.63085 9.10637 5.60084 9.11411 5.57245C9.12185 5.54407 9.13762 5.51853 9.15953 5.49889C9.18976 5.47556 9.22681 5.46279 9.26499 5.46253C9.30879 5.48598 9.35516 5.50429 9.40317 5.51707C9.46468 5.53445 9.52834 5.54302 9.59226 5.54253C9.776 5.54189 9.95268 5.47174 10.0868 5.34616C10.5626 4.92154 10.9356 4.39432 11.1777 3.80435C12.214 3.94837 13.1719 4.43628 13.8977 5.1898C14.0136 5.31403 14.1692 5.39379 14.3377 5.41526C14.3884 5.45524 14.4487 5.48103 14.5126 5.48998C14.5765 5.49892 14.6417 5.49071 14.7014 5.46617C14.7303 5.45462 14.7619 5.45123 14.7927 5.45636C14.8235 5.46149 14.8522 5.47494 14.8759 5.49526C14.8984 5.51447 14.9149 5.53982 14.9233 5.56823C14.9317 5.59664 14.9317 5.62687 14.9232 5.65526C14.887 5.78494 14.8137 5.90122 14.7123 5.9898ZM11.9995 1.00071C13.7959 1.00071 14.5995 1.81526 14.5995 3.64798C14.5984 4.01354 14.5457 4.37711 14.4432 4.72798C13.5281 3.77089 12.2994 3.17464 10.9814 3.04798C10.8933 3.03625 10.804 3.05714 10.7304 3.10672C10.6567 3.15629 10.6037 3.23111 10.5814 3.31707C10.4035 3.89698 10.0657 4.41498 9.60681 4.81162H9.58135C9.46257 4.44009 9.40126 4.05258 9.39953 3.66253C9.39953 1.81889 10.2032 1.00071 11.9995 1.00071Z" fill="black"/>
<path d="M6.54438 12.6665C6.59094 12.6773 6.63917 12.6788 6.68631 12.6709C6.73344 12.663 6.77857 12.646 6.81909 12.6206C6.85962 12.5953 6.89476 12.5622 6.92249 12.5233C6.95023 12.4844 6.97002 12.4404 6.98074 12.3938L7.02074 12.2084C7.1291 11.8475 7.32907 11.5208 7.60118 11.2602C7.87329 10.9995 8.20826 10.8138 8.57347 10.7211L10.6826 10.0738L11.6571 11.4338C11.6898 11.4798 11.7328 11.5176 11.7827 11.5441C11.8326 11.5706 11.8879 11.5851 11.9444 11.5865C12.0016 11.5904 12.0588 11.5794 12.1104 11.5545C12.162 11.5297 12.2063 11.4918 12.2389 11.4447L13.2935 10.0702L13.5517 10.1502L15.4026 10.7174C15.7661 10.8091 16.0993 10.9942 16.3691 11.2545C16.639 11.5148 16.836 11.8411 16.9407 12.2011L16.9844 12.3865C17.0029 12.4686 17.0492 12.5417 17.1155 12.5934C17.1818 12.6451 17.264 12.6722 17.348 12.6702H17.4317C17.4782 12.6595 17.5222 12.6397 17.5611 12.6119C17.6001 12.5842 17.6331 12.549 17.6585 12.5085C17.6838 12.468 17.7009 12.4229 17.7088 12.3757C17.7166 12.3286 17.7152 12.2804 17.7044 12.2338L17.6607 12.0484C17.528 11.5644 17.2713 11.1234 16.9161 10.7688C16.561 10.4143 16.1195 10.1584 15.6353 10.0265V10.0556C15.3698 9.93926 14.8389 9.77926 13.7735 9.45199L13.2826 9.3029C13.2113 9.27977 13.1346 9.27924 13.063 9.30137C12.9914 9.3235 12.9284 9.36722 12.8826 9.42653L11.9735 10.612L11.1262 9.45562C11.0823 9.39373 11.0201 9.34713 10.9484 9.32235C10.8766 9.29757 10.799 9.29586 10.7262 9.31744L8.3662 10.0447C7.88004 10.1755 7.43615 10.4303 7.07794 10.784C6.71973 11.1378 6.45945 11.5784 6.32256 12.0629L6.27892 12.252C6.26315 12.3418 6.28168 12.4342 6.33084 12.511C6.38001 12.5878 6.45622 12.6433 6.54438 12.6665Z" fill="black"/>
<path d="M20.7261 13.8182C20.668 13.699 20.5775 13.5986 20.465 13.5285C20.3524 13.4584 20.2224 13.4215 20.0898 13.4219H3.89341C3.76674 13.4304 3.64451 13.4719 3.53886 13.5423C3.43321 13.6127 3.34783 13.7095 3.2912 13.8231C3.23458 13.9367 3.20868 14.0632 3.21608 14.1899C3.22349 14.3167 3.26394 14.4393 3.33341 14.5455L4.72614 16.3637C4.78712 16.4333 4.87236 16.4771 4.96448 16.4861C5.05661 16.495 5.14869 16.4685 5.22195 16.412C5.29521 16.3554 5.34415 16.273 5.35878 16.1816C5.3734 16.0902 5.35263 15.9967 5.30068 15.9201L3.88614 14.1019L20.0825 14.0764L18.6825 15.8946C18.6238 15.9709 18.5978 16.0673 18.6101 16.1627C18.6223 16.2581 18.6719 16.3448 18.748 16.4037C18.8114 16.453 18.8894 16.4798 18.9698 16.4801C19.0256 16.4853 19.082 16.4775 19.1343 16.4573C19.1867 16.4371 19.2337 16.4051 19.2716 16.3637L20.6716 14.5455C20.7439 14.4398 20.787 14.3169 20.7966 14.1892C20.8062 14.0615 20.7819 13.9335 20.7261 13.8182Z" fill="black"/>
<path d="M16.8715 15.6367H7.12607C6.83674 15.6367 6.55926 15.7517 6.35468 15.9562C6.15009 16.1608 6.03516 16.4383 6.03516 16.7276V23.364C6.03516 23.4604 6.07347 23.5529 6.14166 23.6211C6.20986 23.6893 6.30235 23.7276 6.39879 23.7276H17.5988C17.6952 23.7276 17.7877 23.6893 17.8559 23.6211C17.9241 23.5529 17.9624 23.4604 17.9624 23.364V16.7276C17.9624 16.4383 17.8475 16.1608 17.6429 15.9562C17.4383 15.7517 17.1608 15.6367 16.8715 15.6367ZM17.2352 23.004H6.76243V16.7276C6.76243 16.6312 6.80074 16.5387 6.86894 16.4705C6.93713 16.4023 7.02962 16.364 7.12607 16.364H16.8715C16.968 16.364 17.0605 16.4023 17.1286 16.4705C17.1968 16.5387 17.2352 16.6312 17.2352 16.7276V23.004Z" fill="black"/>
</svg>
