<svg width="16" height="16" viewBox="0 0 16 16" fill="none" xmlns="http://www.w3.org/2000/svg">
<g clip-path="url(#clip0_671_16935)">
<path d="M6.66602 7.99999C6.66602 8.35361 6.80649 8.69275 7.05654 8.9428C7.30659 9.19285 7.64573 9.33332 7.99935 9.33332C8.35297 9.33332 8.69211 9.19285 8.94216 8.9428C9.19221 8.69275 9.33268 8.35361 9.33268 7.99999C9.33268 7.64637 9.19221 7.30723 8.94216 7.05718C8.69211 6.80713 8.35297 6.66666 7.99935 6.66666C7.64573 6.66666 7.30659 6.80713 7.05654 7.05718C6.80649 7.30723 6.66602 7.64637 6.66602 7.99999Z" stroke="#777777" stroke-linecap="round" stroke-linejoin="round"/>
<path d="M14 8C12.4 10.6667 10.4 12 8 12C5.6 12 3.6 10.6667 2 8C3.6 5.33333 5.6 4 8 4C10.4 4 12.4 5.33333 14 8Z" stroke="#777777" stroke-linecap="round" stroke-linejoin="round"/>
</g>
<defs>
<clipPath id="clip0_671_16935">
<rect width="16" height="16" fill="white"/>
</clipPath>
</defs>
</svg>
