<svg id="Layer_1" viewBox="0 0 64 64" xmlns="http://www.w3.org/2000/svg" data-name="Layer 1"><path d="m32 31.61c5.857 0 10.622-4.765 10.622-10.622v-7.801l4.611-2.083c.358-.162.588-.519.588-.912s-.23-.75-.588-.911l-14.821-6.694c-.262-.118-.562-.118-.823 0l-14.821 6.694c-.358.162-.588.518-.588.911s.23.75.588.912l4.611 2.083v7.801c0 5.857 4.765 10.622 10.622 10.622zm0-2c-4.416 0-8.067-3.337-8.564-7.622h17.128c-.497 4.285-4.148 7.622-8.564 7.622zm0-25.013 12.391 5.597-3.175 1.434s-.004.001-.006.002l-9.21 4.161-9.21-4.161s-.004-.001-.006-.002l-3.175-1.434zm-.412 13.202c.131.059.271.089.412.089s.281-.03.412-.089l8.21-3.708v5.897h-17.244v-5.897z"/><path d="m53.02 22.525-10.515 10.515h-21.016l-10.508-10.517c-2.052-2.041-5.39-2.04-7.445.003-2.042 2.052-2.042 5.39.002 7.443l13.996 13.996v.043 16.491c0 .552.448 1 1 1h27.748c.552 0 1-.448 1-1v-16.491c0-.264-.013-.538-.038-.827l13.212-13.212c.996-.996 1.544-2.318 1.544-3.722s-.548-2.727-1.544-3.723c-2.049-2.051-5.386-2.051-7.436 0zm-21.02 31.051-3.767-3.613 3.767-12.467 3.766 12.467zm27.042-25.02-13.552 13.552c-.22.219-.325.528-.285.836.051.393.076.741.076 1.065v15.491h-25.747v-15.491c0-.069.006-.138.012-.207l.012-.167c.016-.285-.09-.563-.292-.765l-14.312-14.312c-1.268-1.273-1.268-3.346-.003-4.616 1.273-1.268 3.347-1.268 4.618-.002l10.799 10.808c.188.188.442.293.708.293h9.579l-4.511 14.932c-.109.36-.007.75.265 1.011l4.901 4.701c.062.059.136.093.207.133.038.021.07.054.109.07.121.049.248.075.376.075s.255-.026.376-.075c.04-.016.072-.049.109-.07.071-.04.145-.074.207-.133l4.9-4.701c.271-.26.374-.651.265-1.011l-4.511-14.932h9.572c.265 0 .52-.105.707-.293l10.808-10.808c1.229-1.228 3.379-1.228 4.608 0 1.273 1.273 1.273 3.344 0 4.617z"/></svg>