<svg width="19" height="17" viewBox="0 0 19 17" fill="none" xmlns="http://www.w3.org/2000/svg">
<path d="M16.9993 9.57218L9.49932 17.0002L1.99932 9.57218C1.50463 9.09079 1.11497 8.51219 0.854872 7.87281C0.594778 7.23343 0.469886 6.54713 0.488062 5.85711C0.506238 5.16709 0.667087 4.48831 0.960482 3.86351C1.25388 3.23871 1.67346 2.68143 2.19281 2.22676C2.71216 1.77208 3.32003 1.42987 3.97814 1.22166C4.63624 1.01345 5.33033 0.943761 6.01669 1.01698C6.70306 1.0902 7.36682 1.30473 7.9662 1.64708C8.56557 1.98943 9.08757 2.45218 9.49932 3.00618C9.91286 2.4562 10.4355 1.9975 11.0344 1.65878C11.6334 1.32007 12.2958 1.10863 12.9803 1.0377C13.6647 0.966767 14.3564 1.03787 15.0121 1.24657C15.6678 1.45526 16.2734 1.79705 16.7909 2.25054C17.3084 2.70403 17.7268 3.25946 18.0197 3.88207C18.3127 4.50468 18.4741 5.18106 18.4936 5.86889C18.5132 6.55671 18.3906 7.24117 18.1335 7.87943C17.8763 8.51768 17.4902 9.096 16.9993 9.57818" fill="#915FD8"/>
</svg>
