<?xml version="1.0" encoding="UTF-8"?>
<svg xmlns="http://www.w3.org/2000/svg" xmlns:xlink="http://www.w3.org/1999/xlink" version="1.1" width="512" height="512" x="0" y="0" viewBox="0 0 681.333 681" style="enable-background:new 0 0 512 512" xml:space="preserve" class="">
  <g>
    <path d="M634.07 67.637 570.191 3.762c-6.226-6.23-16.332-6.239-22.566-.008 0 .004-.004.008-.012.008L355.993 195.39a15.944 15.944 0 0 0-4.677 11.285v63.879c0 8.816 7.149 15.965 15.965 15.965h63.88c4.234 0 8.292-1.68 11.284-4.676L634.07 90.219c6.235-6.23 6.239-16.336.012-22.57-.004 0-.004-.008-.012-.012zM424.547 254.586H383.25v-41.293L558.906 37.637 600.2 78.93zm0 0" fill="#000000" opacity="1" data-original="#000000" class=""/>
    <path d="M590.84 190.71c-8.817 0-15.965 7.15-15.965 15.966v223.562c-.027 26.446-21.46 47.88-47.906 47.91H367.28a15.876 15.876 0 0 0-9.582 3.192L255.5 557.992v-63.875c0-8.82-7.148-15.969-15.969-15.969H79.844c-26.446-.03-47.88-21.464-47.903-47.906V142.801c.028-26.442 21.457-47.875 47.903-47.903H367.28c8.82 0 15.969-7.148 15.969-15.968 0-8.817-7.148-15.965-15.969-15.965H79.844C35.766 63.008.043 98.73 0 142.8v287.441c.043 44.074 35.766 79.797 79.844 79.844h143.719v79.844c0 8.816 7.148 15.965 15.968 15.965 3.457 0 6.817-1.122 9.582-3.192l123.508-92.621H526.97c44.078-.043 79.797-35.766 79.843-79.844V206.68c0-8.82-7.152-15.97-15.972-15.97zm0 0" fill="#000000" opacity="1" data-original="#000000" class=""/>
    <path d="M271.465 158.773h-159.68c-8.824 0-15.972 7.149-15.972 15.97 0 8.816 7.148 15.964 15.972 15.964h159.68c8.82 0 15.973-7.148 15.973-15.965 0-8.82-7.153-15.969-15.973-15.969zM111.785 286.523h159.68c8.82 0 15.972-7.152 15.972-15.968 0-8.82-7.152-15.97-15.972-15.97h-159.68c-8.824 0-15.973 7.15-15.973 15.97 0 8.816 7.149 15.968 15.973 15.968zM111.785 382.332h383.246c8.82 0 15.965-7.148 15.965-15.969 0-8.816-7.148-15.965-15.965-15.965H111.785c-8.824 0-15.973 7.149-15.973 15.965 0 8.82 7.149 15.969 15.973 15.969zm0 0" fill="#000000" opacity="1" data-original="#000000" class=""/>
  </g>
</svg>
