<svg width="10" height="10" viewBox="0 0 10 10" fill="none" xmlns="http://www.w3.org/2000/svg">
<g clip-path="url(#clip0_990_3590)">
<path d="M7.29445 3.1993C7.08605 2.97178 6.76206 2.66469 6.62423 3.35808C6.57736 3.59385 6.46785 3.77558 6.374 3.92191C6.27285 3.40996 5.96851 2.88006 5.68175 2.52277C5.57445 2.3891 5.19371 1.85771 5.12056 0.968729C5.10964 0.836053 4.95204 0.773748 4.85347 0.86324C3.91144 1.7184 3.39437 2.89453 3.37517 4.21861C3.37517 4.21861 2.9829 3.88797 2.7698 3.27285C2.71242 3.10721 2.49035 3.0756 2.394 3.22207C2.3755 3.25019 2.35835 3.27836 2.34288 3.3057C1.61607 4.59086 1.26644 6.1515 1.58966 7.60346C2.13009 10.035 5.70497 10.7148 7.59753 9.18654C9.44919 7.69131 8.8606 4.90832 7.29445 3.1993Z" fill="#ED694A"/>
<path d="M2.09269 7.75661C1.77322 6.28913 2.11138 4.71329 2.82113 3.40801C2.80318 3.36471 2.78591 3.31993 2.76978 3.27336C2.7124 3.10772 2.49033 3.07612 2.39398 3.22258C2.37548 3.25071 2.35835 3.27887 2.34288 3.30622C1.61607 4.59137 1.26644 6.15202 1.58966 7.60397C1.83617 8.71307 2.71406 9.45749 3.7756 9.79438C2.94747 9.39323 2.29896 8.70555 2.09269 7.75661Z" fill="#D8553A"/>
<path d="M3.88053 4.19412C3.91977 2.99242 4.35441 1.91488 5.13234 1.08711C5.12699 1.04152 5.12303 1.00076 5.12047 0.969826C5.10932 0.836017 4.95748 0.768908 4.85934 0.857619C3.94947 1.68024 3.3949 2.84447 3.375 4.21846L3.54529 4.3507C3.62916 4.41584 3.74279 4.41301 3.82289 4.35334C3.87068 4.31283 3.87754 4.2517 3.88053 4.19412Z" fill="#D8553A"/>
<path d="M6.72286 4.97716C6.56895 4.80911 6.32964 4.58228 6.22784 5.09444C6.19323 5.26856 6.11231 5.40282 6.04303 5.51091C5.96833 5.13276 5.74352 4.74136 5.53173 4.47747C5.45247 4.37874 5.17126 3.98626 5.11721 3.3296C5.10915 3.23159 4.99276 3.1856 4.91995 3.25169C4.22415 3.88331 3.84221 4.75206 3.82805 5.73003C3.82805 5.73003 3.53831 5.48581 3.38092 5.03147C3.33854 4.90913 3.1745 4.88579 3.10335 4.99397C3.08969 5.01474 3.07702 5.03556 3.06559 5.05575C2.52874 6.00499 2.27049 7.15771 2.50922 8.23017C2.9084 10.0262 5.54887 10.5283 6.94676 9.39946C8.31442 8.29507 7.87967 6.2395 6.72286 4.97716Z" fill="#F4A32C"/>
<path d="M3.0071 8.37106C2.79573 7.3227 3.01465 6.1978 3.47881 5.26108C3.44344 5.19182 3.40993 5.11526 3.3809 5.03151C3.33852 4.90917 3.17448 4.88581 3.10333 4.99399C3.08967 5.01475 3.077 5.03557 3.06557 5.05579C2.52874 6.00503 2.27051 7.15774 2.50921 8.23018C2.69487 9.0655 3.3654 9.62073 4.17016 9.86235C3.59839 9.57561 3.14819 9.07182 3.0071 8.37106Z" fill="#E89528"/>
<path d="M6.20191 6.60015C6.09773 6.4864 5.9357 6.33282 5.8668 6.67954C5.84338 6.79743 5.78859 6.88829 5.74168 6.96146C5.69109 6.70546 5.53894 6.44052 5.39555 6.26189C5.34191 6.19505 5.15154 5.92937 5.11494 5.48486C5.10947 5.41851 5.0307 5.38736 4.98141 5.43212C4.51039 5.8597 4.25186 6.44779 4.24227 7.1098C4.24227 7.1098 4.04611 6.94447 3.93959 6.63693C3.9109 6.55411 3.79986 6.53831 3.7517 6.61154C3.74244 6.62558 3.73389 6.63968 3.72613 6.65335C3.36273 7.29593 3.18791 8.07624 3.34951 8.80224C3.61973 10.018 5.40717 10.3579 6.35344 9.59378C6.67748 9.3321 6.8784 8.96337 6.91914 8.5555C6.98064 7.93773 6.74289 7.19048 6.20191 6.60015Z" fill="#F4D44E"/>
<path d="M5.71851 8.1058C5.66046 8.04242 5.5702 7.95687 5.53181 8.15001C5.51876 8.2157 5.48825 8.26632 5.4621 8.30709C5.43392 8.16447 5.34915 8.01685 5.26927 7.91734C5.23938 7.88009 5.13331 7.73207 5.11292 7.48443C5.10987 7.44746 5.06597 7.43013 5.03852 7.45503C4.77612 7.69326 4.63206 8.02089 4.62673 8.38972C4.62673 8.38972 4.51745 8.29761 4.4581 8.12626C4.4421 8.08011 4.38024 8.0713 4.35343 8.11212C4.34827 8.11996 4.34351 8.12781 4.33921 8.13542C4.13675 8.49343 4.03935 8.92816 4.12938 9.33263C4.33442 10.2551 6.01505 10.2271 6.11813 9.19515C6.15235 8.85099 6.01989 8.43466 5.71851 8.1058Z" fill="#EAE9E8"/>
<path d="M4.5196 9.51568C4.42956 9.15386 4.52696 8.76498 4.72942 8.44474C4.73372 8.43792 4.73851 8.43091 4.74364 8.4239C4.77048 8.3874 4.83233 8.39527 4.84831 8.43654C4.90767 8.58982 5.01694 8.67222 5.01694 8.67222C5.02134 8.40113 5.11954 8.15503 5.29991 7.95765C5.25958 7.90179 5.13618 7.7671 5.11292 7.48443C5.10987 7.44746 5.06597 7.43013 5.03853 7.45503C4.77612 7.69326 4.63206 8.02089 4.62673 8.38972C4.62673 8.38972 4.51745 8.29761 4.4581 8.12628C4.44212 8.08013 4.38024 8.07132 4.35343 8.11214C4.34827 8.11998 4.34351 8.12783 4.33921 8.13544C4.13675 8.49343 4.03934 8.92818 4.12938 9.33265C4.2127 9.70755 4.55501 9.93287 4.93345 9.98724C4.72931 9.88699 4.57241 9.72824 4.5196 9.51568Z" fill="#F7E7A1"/>
<path d="M3.60549 1.329C4.02785 0.985469 4.02692 0.342754 3.60549 0C3.18313 0.343516 3.18405 0.98625 3.60549 1.329Z" fill="#D8553A"/>
<path d="M8.66759 4.08584C9.08996 3.7423 9.08902 3.09959 8.66759 2.75684C8.47455 2.91383 8.24617 3.74309 8.66759 4.08584Z" fill="#D8553A"/>
<path d="M1.18709 4.34748C1.49148 4.09988 1.49082 3.6367 1.18709 3.38965C1.04796 3.50279 0.883355 4.10045 1.18709 4.34748Z" fill="#D8553A"/>
<path d="M6.45851 2.28693C6.7629 2.03934 6.76224 1.57615 6.45851 1.3291C6.15411 1.57668 6.1548 2.0399 6.45851 2.28693Z" fill="#D8553A"/>
<path d="M4.2165 5.57296C4.28641 4.74773 4.60154 4.01396 5.13068 3.45456C5.12533 3.41401 5.12082 3.37239 5.1173 3.3296C5.10924 3.23159 4.99285 3.1856 4.92004 3.25169C4.36867 3.7522 4.0148 4.40173 3.88445 5.1364L3.88426 5.13634C3.87459 5.19083 3.8626 5.27021 3.85502 5.33257C3.85504 5.33263 3.85506 5.33267 3.8551 5.33272C3.83926 5.46288 3.83008 5.59538 3.82812 5.73005C3.84285 5.73292 4.17621 5.90427 4.2165 5.57296Z" fill="#E89528"/>
<path d="M3.8366 8.97349C3.69295 8.29527 3.81529 7.57203 4.09951 6.94537C4.04445 6.86816 3.9842 6.76445 3.93961 6.6357C3.9109 6.55289 3.79988 6.53708 3.7517 6.61031C3.74246 6.62435 3.73387 6.63845 3.72613 6.65212C3.36273 7.2947 3.18791 8.07501 3.34951 8.80101C3.47607 9.37039 3.93539 9.74765 4.48521 9.90939C4.16518 9.69693 3.92309 9.38246 3.8366 8.97349Z" fill="#E8C842"/>
<path d="M4.76068 6.81245C4.8083 6.47212 4.9475 6.09714 5.16662 5.78364C5.14275 5.69513 5.12398 5.59511 5.11482 5.48388C5.10936 5.41753 5.03057 5.38638 4.98129 5.43115C4.68781 5.69757 4.47717 6.02644 4.3575 6.39654L4.35719 6.39646C4.33836 6.4546 4.31174 6.55093 4.29561 6.62697C4.29574 6.62693 4.29588 6.62693 4.29602 6.62687C4.26297 6.78202 4.24459 6.94304 4.24219 7.1088C4.5057 7.14169 4.72369 7.07644 4.76068 6.81245Z" fill="#E8C842"/>
</g>
<defs>
<clipPath id="clip0_990_3590">
<rect width="10" height="10" fill="white"/>
</clipPath>
</defs>
</svg>
