<svg width="26" height="26" viewBox="0 0 26 26" fill="none" xmlns="http://www.w3.org/2000/svg">
<path d="M15.0991 2.32581C15.4007 2.6274 15.4007 3.11638 15.0991 3.41796L14.5743 3.94277C16.4198 4.21855 18.1624 5.00545 19.5978 6.2282C21.4131 7.77453 22.6183 9.91682 22.9973 12.2711C23.3765 14.6253 22.9047 17.0377 21.6666 19.0757C20.4285 21.1137 18.5051 22.6441 16.241 23.3927C13.977 24.1413 11.5204 24.059 9.31143 23.1607C7.10251 22.2624 5.28573 20.6067 4.18676 18.4905C3.08775 16.3742 2.7784 13.9357 3.31411 11.6121C3.84984 9.28845 5.19561 7.23156 7.11024 5.81011C7.45269 5.55588 7.93642 5.62737 8.19065 5.96982C8.44491 6.3123 8.3734 6.796 8.03094 7.05026C6.41104 8.2529 5.27245 9.99315 4.8192 11.9591C4.36592 13.925 4.62767 15.9882 5.5575 17.7786C6.48729 19.5691 8.02441 20.9699 9.89329 21.73C11.7622 22.49 13.8407 22.5596 15.7562 21.9262C17.6717 21.2929 19.2991 19.9981 20.3466 18.2738C21.394 16.5495 21.7932 14.5085 21.4725 12.5166C21.1517 10.5248 20.132 8.71228 18.5962 7.40396C17.4177 6.40005 15.9944 5.74339 14.4843 5.49219L15.0991 6.107C15.4007 6.40858 15.4007 6.89755 15.0991 7.19915C14.7975 7.50075 14.3085 7.50075 14.0069 7.19915L12.1252 5.31742C12.1222 5.31452 12.1192 5.31158 12.1162 5.30862C11.9654 5.15782 11.89 4.96014 11.89 4.76247C11.89 4.56481 11.9654 4.36714 12.1162 4.21634C12.1192 4.21338 12.1222 4.21044 12.1252 4.20753L14.0069 2.32581C14.3085 2.02421 14.7975 2.02421 15.0991 2.32581Z" fill="white"/>
<path d="M8.97377 8.91376C9.63126 8.29665 10.7082 8.76283 10.7082 9.66456V17.9739C10.7082 18.4004 10.3624 18.7461 9.9359 18.7461C9.50937 18.7461 9.16362 18.4004 9.16362 17.9739V10.8539L8.72365 11.2669C8.41266 11.5588 7.92393 11.5433 7.63204 11.2323C7.34014 10.9213 7.35562 10.4326 7.66661 10.1407L8.97377 8.91376Z" fill="white"/>
<path fill-rule="evenodd" clip-rule="evenodd" d="M15.356 8.98535C13.9027 8.98535 12.7246 10.1635 12.7246 11.6168V16.1153C12.7246 17.5685 13.9027 18.7467 15.356 18.7467C16.8093 18.7467 17.9874 17.5685 17.9874 16.1153V11.6168C17.9874 10.1635 16.8093 8.98535 15.356 8.98535ZM16.4429 16.1153V11.6168C16.4429 11.0165 15.9563 10.5299 15.356 10.5299C14.7558 10.5299 14.2692 11.0165 14.2692 11.6168V16.1153C14.2692 16.7155 14.7558 17.2021 15.356 17.2021C15.9563 17.2021 16.4429 16.7155 16.4429 16.1153Z" fill="white"/>
</svg>
