<svg width="20" height="20" viewBox="0 0 20 20" fill="none" xmlns="http://www.w3.org/2000/svg">
<path d="M17.7937 3.84023H17.5152V3.56172C17.5152 2.34531 16.5254 1.35547 15.309 1.35547H2.20625C0.989844 1.35547 0 2.34492 0 3.56172V13.9539C0 15.1703 0.989844 16.1602 2.20625 16.1602H2.48477V16.4387C2.48477 17.6551 3.47461 18.6449 4.69102 18.6449H17.7937C19.0102 18.6449 20 17.6551 20 16.4387V6.04648C20 4.82969 19.0102 3.84023 17.7937 3.84023ZM18.75 6.04648V13.084L13.0566 8.2457C12.8687 8.08672 12.6305 8.01094 12.3863 8.03203C12.1422 8.05351 11.9215 8.16953 11.7648 8.35781L8.45039 12.3352L7.11289 11.1984C6.92539 11.0379 6.68672 10.9609 6.44141 10.9816C6.19648 11.0027 5.97461 11.1184 5.81758 11.3074L3.73477 13.8074V6.0457C3.73477 5.51836 4.16367 5.08945 4.69102 5.08945H17.7937C18.3211 5.09023 18.75 5.51914 18.75 6.04648ZM2.20625 14.9098C1.67891 14.9098 1.25 14.4809 1.25 13.9535V3.56172C1.25 3.03437 1.67891 2.60547 2.20625 2.60547H15.309C15.8363 2.60547 16.2652 3.03437 16.2652 3.56172V3.84023H4.69102C3.47461 3.84023 2.48477 4.83008 2.48477 6.04648V14.9098H2.20625ZM3.73477 16.4383V15.7609L6.56016 12.3695L12.4734 17.3945H4.69102C4.16367 17.3945 3.73477 16.9656 3.73477 16.4383ZM17.7937 17.3945H14.4035L9.40312 13.1449L12.5078 9.41953L18.75 14.7242V16.4383C18.75 16.9656 18.3211 17.3945 17.7937 17.3945ZM8.01523 9.87695C9.1543 9.87695 10.0809 8.95039 10.0809 7.81133C10.0809 6.67227 9.1543 5.7457 8.01523 5.7457C6.87617 5.7457 5.94961 6.67227 5.94961 7.81133C5.94961 8.95039 6.87617 9.87695 8.01523 9.87695ZM8.01523 6.9957C8.46484 6.9957 8.83086 7.36172 8.83086 7.81133C8.83086 8.26094 8.46484 8.62695 8.01523 8.62695C7.56563 8.62695 7.19961 8.26094 7.19961 7.81133C7.19961 7.36172 7.56563 6.9957 8.01523 6.9957Z" fill="black"/>
</svg>
