<svg width="20" height="16" viewBox="0 0 20 16" fill="none" xmlns="http://www.w3.org/2000/svg">
<path d="M13.1982 1.27832C14.4967 0.92944 15.8086 1.46919 16.8721 2.47852C17.9395 3.49174 18.8182 5.02569 19.3057 6.8457C19.7935 8.66592 19.7998 10.4337 19.3818 11.8447C18.9914 13.1626 18.2057 14.2319 17.0391 14.6475L16.8008 14.7217C15.1292 15.1729 13.4023 14.1669 12.1562 12.377V12.376C11.9958 12.1447 11.7815 11.956 11.5322 11.8252C11.2829 11.6944 11.0052 11.6255 10.7236 11.625H9.27539L9.06445 11.6377C8.85614 11.6634 8.65371 11.7272 8.4668 11.8252C8.21752 11.9559 8.00341 12.1448 7.84277 12.376L7.8418 12.377C6.79142 13.8865 5.41647 14.8251 4.00098 14.8252C3.79786 14.8255 3.5954 14.807 3.39648 14.7676L3.19824 14.7217C1.89991 14.3733 1.03372 13.2505 0.617188 11.8447C0.199125 10.4337 0.204713 8.66595 0.692383 6.8457C1.1801 5.02542 2.06003 3.49223 3.12793 2.47949C4.12526 1.53381 5.34045 1.0005 6.55664 1.22363L6.7998 1.27832L6.80176 1.2793C7.32488 1.42186 7.80279 1.69608 8.18945 2.07617L8.19531 2.08105L8.2002 2.08691C8.55712 2.45886 9.0421 2.68057 9.55664 2.70801H10.4424C10.9571 2.68057 11.4421 2.45835 11.7988 2.08594L11.8096 2.0752C12.1962 1.69606 12.674 1.42208 13.1963 1.2793L13.1982 1.27832ZM15.1016 8.09375C14.9966 8.1147 14.8999 8.16653 14.8242 8.24219C14.7486 8.31789 14.6976 8.4146 14.6768 8.51953C14.6559 8.62447 14.6662 8.73317 14.707 8.83203C14.748 8.93085 14.8174 9.01569 14.9062 9.0752C14.9953 9.13471 15.1009 9.16699 15.208 9.16699C15.279 9.16695 15.3494 9.15218 15.415 9.125C15.4807 9.09778 15.5406 9.05805 15.5908 9.00781C15.641 8.95755 15.6808 8.89767 15.708 8.83203C15.7352 8.76638 15.749 8.69605 15.749 8.625C15.749 8.51794 15.7176 8.41325 15.6582 8.32422C15.5987 8.23521 15.5139 8.16601 15.415 8.125C15.3161 8.084 15.2066 8.07285 15.1016 8.09375ZM5.83301 6.20801C5.79986 6.20801 5.76758 6.22168 5.74414 6.24512C5.72087 6.26846 5.7081 6.30005 5.70801 6.33301V7.45801H4.58301C4.54986 7.45801 4.51758 7.47168 4.49414 7.49512C4.47087 7.51846 4.4581 7.55005 4.45801 7.58301C4.45801 7.61616 4.4707 7.64843 4.49414 7.67188C4.51758 7.69531 4.54986 7.70801 4.58301 7.70801H5.70801V8.83301C5.70801 8.86616 5.7207 8.89843 5.74414 8.92188C5.76758 8.94531 5.79986 8.95801 5.83301 8.95801C5.86596 8.95792 5.89755 8.94515 5.9209 8.92188C5.94434 8.89843 5.95801 8.86616 5.95801 8.83301V7.70801H7.08301C7.11596 7.70792 7.14755 7.69515 7.1709 7.67188C7.19434 7.64843 7.20801 7.61616 7.20801 7.58301C7.20792 7.54998 7.19426 7.51848 7.1709 7.49512C7.14754 7.47176 7.11603 7.4581 7.08301 7.45801H5.95801V6.33301C5.95792 6.29998 5.94426 6.26848 5.9209 6.24512C5.89754 6.22176 5.86603 6.2081 5.83301 6.20801ZM13.0186 6.01074C12.9136 6.03165 12.8169 6.08259 12.7412 6.1582C12.6656 6.23386 12.6137 6.33062 12.5928 6.43555C12.5719 6.54062 12.583 6.65005 12.624 6.74902C12.665 6.84794 12.7342 6.93269 12.8232 6.99219C12.9122 7.05165 13.017 7.08295 13.124 7.08301C13.1952 7.08301 13.2663 7.06921 13.332 7.04199C13.3976 7.01478 13.4576 6.975 13.5078 6.9248C13.558 6.87455 13.5978 6.81466 13.625 6.74902C13.6522 6.68341 13.666 6.61301 13.666 6.54199C13.666 6.4349 13.6337 6.33027 13.5742 6.24121C13.5148 6.15222 13.4309 6.08203 13.332 6.04102C13.2331 6.00002 13.1236 5.98984 13.0186 6.01074Z" stroke="black"/>
</svg>
