<svg width="20" height="20" viewBox="0 0 20 20" fill="none" xmlns="http://www.w3.org/2000/svg">
<path d="M18.8226 8.97544C17.8859 5.47771 15.4713 3.18524 13.3278 3.76141C12.8877 3.88171 12.4857 4.11255 12.16 4.43198C11.7125 4.89921 11.1029 5.17707 10.4567 5.20835H9.54196C8.89608 5.17697 8.28673 4.89945 7.83908 4.4328C7.51344 4.11266 7.11105 3.88148 6.67046 3.76141C4.53099 3.18849 2.11276 5.47771 1.17567 8.97544C0.238581 12.4732 1.18381 15.6633 3.32777 16.2386C3.54727 16.2974 3.77356 16.3269 4.00079 16.3265C5.18853 16.3265 6.43079 15.5298 7.43178 14.091C7.63837 13.7936 7.91372 13.5505 8.23442 13.3823C8.55513 13.2141 8.91169 13.1258 9.27381 13.125H10.7248C11.087 13.1257 11.4436 13.2138 11.7644 13.382C12.0851 13.5502 12.3604 13.7935 12.5669 14.091C13.7599 15.8049 15.2972 16.6097 16.6709 16.2386C18.8152 15.6633 19.7601 12.4732 18.8226 8.97544ZM7.08266 10.2083H6.45766V10.8333C6.45766 10.9991 6.39181 11.1581 6.2746 11.2753C6.15739 11.3925 5.99842 11.4583 5.83266 11.4583C5.6669 11.4583 5.50792 11.3925 5.39071 11.2753C5.2735 11.1581 5.20766 10.9991 5.20766 10.8333V10.2083H4.58266C4.4169 10.2083 4.25792 10.1425 4.14071 10.0253C4.0235 9.90808 3.95766 9.74911 3.95766 9.58335C3.95766 9.41759 4.0235 9.25862 4.14071 9.14141C4.25792 9.0242 4.4169 8.95835 4.58266 8.95835H5.20766V8.33335C5.20766 8.16759 5.2735 8.00862 5.39071 7.89141C5.50792 7.7742 5.6669 7.70835 5.83266 7.70835C5.99842 7.70835 6.15739 7.7742 6.2746 7.89141C6.39181 8.00862 6.45766 8.16759 6.45766 8.33335V8.95835H7.08266C7.24842 8.95835 7.40739 9.0242 7.5246 9.14141C7.64181 9.25862 7.70766 9.41759 7.70766 9.58335C7.70766 9.74911 7.64181 9.90808 7.5246 10.0253C7.40739 10.1425 7.24842 10.2083 7.08266 10.2083ZM13.1243 9.58335C12.9183 9.58335 12.7169 9.52226 12.5456 9.4078C12.3743 9.29334 12.2408 9.13065 12.1619 8.94031C12.0831 8.74997 12.0625 8.54053 12.1027 8.33846C12.1429 8.1364 12.2421 7.95079 12.3878 7.80511C12.5334 7.65943 12.719 7.56022 12.9211 7.52003C13.1232 7.47984 13.3326 7.50047 13.523 7.57931C13.7133 7.65815 13.876 7.79166 13.9904 7.96296C14.1049 8.13426 14.166 8.33566 14.166 8.54168C14.166 8.67848 14.1391 8.81393 14.0867 8.94032C14.0344 9.0667 13.9576 9.18154 13.8609 9.27827C13.7642 9.37499 13.6493 9.45172 13.523 9.50407C13.3966 9.55642 13.2611 9.58335 13.1243 9.58335ZM15.2077 11.6667C15.0016 11.6667 14.8002 11.6056 14.6289 11.4911C14.4576 11.3767 14.3241 11.214 14.2453 11.0236C14.1664 10.8333 14.1458 10.6239 14.186 10.4218C14.2262 10.2197 14.3254 10.0341 14.4711 9.88845C14.6168 9.74277 14.8024 9.64356 15.0044 9.60336C15.2065 9.56317 15.4159 9.5838 15.6063 9.66264C15.7966 9.74148 15.9593 9.87499 16.0738 10.0463C16.1882 10.2176 16.2493 10.419 16.2493 10.625C16.2493 10.7618 16.2224 10.8973 16.17 11.0237C16.1177 11.15 16.041 11.2649 15.9442 11.3616C15.8475 11.4583 15.7327 11.5351 15.6063 11.5874C15.4799 11.6397 15.3445 11.6667 15.2077 11.6667Z" fill="#915FD8"/>
</svg>
