<svg width="74" height="78" viewBox="0 0 74 78" fill="none" xmlns="http://www.w3.org/2000/svg">
<path d="M45.4966 71.2261L40.25 72.9093C40.8969 63.446 41.3349 57.0383 42.341 42.3201C42.3523 42.1542 42.2793 41.7371 42.3932 41.6048C42.5016 41.4789 43.029 41.4722 43.1959 41.4424C44.5037 41.2089 45.8406 40.9956 47.2013 40.8062C47.4764 40.7678 48.0652 40.5695 48.324 40.6559C48.6141 40.7527 48.6766 38.9358 45.4966 71.2261Z" fill="#915FD8"/>
<path d="M18.3091 72.8973L13.7705 70.4132C12.8399 61.6085 10.5466 40.0445 10.5626 39.9048C11.1788 39.9507 11.8274 40.1727 12.4331 40.3062C15.7816 41.0446 15.2884 40.6769 15.5317 43.2712C15.675 44.8 15.8183 46.3288 15.9616 47.8576C16.5589 54.2285 17.9394 68.9543 18.3091 72.8973Z" fill="#915FD8"/>
<path d="M12.1738 40.2568C12.1858 40.2568 12.1858 40.2568 12.1858 40.2688L16.1099 41.1809L12.1738 40.2568Z" fill="#915FD8"/>
<path d="M26.5822 43.1367C26.5582 43.1487 26.5462 43.1487 26.5342 43.1367C26.4113 43.1779 22.9594 42.3159 11.6543 39.6687C11.8223 39.8728 11.9903 40.0648 12.1702 40.2567C31.2388 44.7406 25.0303 43.2807 26.3062 43.5807C26.5735 43.6401 26.7705 43.5589 27.6264 43.4487C27.7492 43.3259 27.8994 43.2228 28.1783 42.9207C28.1903 42.9207 28.1903 42.9207 28.1903 42.9086L26.5822 43.1367Z" fill="#915FD8"/>
<path d="M27.892 22.329C23.4149 17.8998 16.2325 17.5682 11.356 21.9329C9.68794 23.4089 8.71602 25.761 8.2959 27.945C7.60543 31.5525 8.55099 35.9434 11.656 39.669C23.8478 42.5238 26.4145 43.1776 26.5358 43.137C26.5479 43.149 26.5599 43.149 26.5839 43.137L28.192 42.9089C33.4074 37.6952 33.222 27.6591 27.892 22.329ZM25.4079 36.645C24.0224 37.9636 23.6966 37.481 22.18 36.7651C20.6854 36.0178 18.901 35.2167 18.0879 33.537C17.1763 31.7141 17.8494 29.7032 19.5639 29.169C20.8997 28.7461 22.2878 29.6413 23.0319 30.837C23.1736 31.049 23.3598 30.9658 23.392 30.837C23.9358 29.6372 24.3441 28.4426 25.84 28.293C27.5319 28.1251 28.492 29.5771 28.7199 30.729C29.2476 33.1016 27.0515 35.0672 25.4079 36.645Z" fill="#915FD8"/>
<path d="M38.4197 17.793C36.8116 17.565 35.1556 17.649 33.5837 18.0689C32.0596 18.465 30.6556 19.3891 29.4676 20.529C23.6121 25.741 24.449 35.4994 29.3717 41.517C29.6869 41.9236 30.4756 42.8198 30.7636 42.993C48.9781 40.3979 42.9659 41.2545 44.2395 41.073C46.6597 38.5677 48.2206 35.1577 48.6317 31.8449C47.5875 30.4081 52.4143 37.0498 38.4197 17.793ZM39.8236 36.717C38.192 37.8524 37.8531 37.1243 36.6317 36.273C35.6129 35.5498 34.4337 34.7163 33.6796 33.537C31.5002 30.1607 34.7697 26.8407 37.2916 28.893C37.8437 29.349 38.2395 29.937 38.4796 30.537C38.5424 30.7249 38.7189 30.7581 38.8395 30.597C39.3916 29.7689 39.9916 28.5689 41.3356 28.485H41.6717C43.3756 28.617 44.0717 30.2251 44.1077 31.4011C44.1961 33.874 41.6941 35.4593 39.8236 36.717Z" fill="#915FD8"/>
<path d="M53.7819 17.6191C53.5255 17.6476 53.0273 17.5648 53.0273 17.3057L53.7819 17.6191Z" fill="#915FD8"/>
<path d="M54.0955 14.937C53.7474 15.321 53.3755 15.7891 52.9794 16.161C54.1866 13.8551 55.465 10.0648 54.8875 7.61705C54.5275 6.05699 53.4356 5.15699 52.4995 5.44498C51.5755 5.73297 50.8434 7.02906 50.5554 8.5651C50.092 10.9191 50.5711 13.6508 51.2395 15.957C49.4843 12.4538 47.9704 8.4203 49.3434 4.67711C50.0875 2.64904 51.7914 0.897083 53.9155 0.4651C56.0275 0.0329715 58.4635 1.16105 59.1955 3.20114C60.4726 6.69726 56.6614 12.188 54.0955 14.937Z" fill="#915FD8"/>
<path d="M72.3874 23.6138C69.0116 27.0901 60.8712 24.6608 56.7275 22.0777C56.6314 22.0177 56.5473 21.9576 56.4514 21.9096C57.8674 22.2336 59.3915 22.4376 60.9395 22.4977C66.5318 22.7045 67.3324 20.2938 65.9794 19.0537C65.1155 18.2617 63.4473 17.8537 61.7794 17.8417C59.4333 17.8248 57.137 18.5339 55.0234 19.5096C55.5326 18.7461 58.3991 16.5833 60.0395 15.6336C65.7933 12.3218 70.8143 13.7906 72.8554 17.0258C74.1275 19.0297 74.0554 21.9096 72.3874 23.6138Z" fill="#915FD8"/>
<path d="M18.7398 19.461C18.9679 19.3891 19.208 19.317 19.3638 19.269H19.4839C20.0479 19.137 20.5758 19.0531 21.0559 19.005C23.7679 18.7651 26.5999 19.557 28.832 21.1771C29.0986 20.8767 29.3346 20.6477 29.4679 20.529C29.3414 20.4654 25.9125 17.6947 20.9839 18.117C20.4428 18.154 19.7097 18.245 18.4758 18.5971C18.2359 18.669 18.1039 18.9209 18.1758 19.161C18.2479 19.4011 18.4999 19.5329 18.7398 19.461Z" fill="#915FD8"/>
<path d="M70.6355 35.016C67.8812 32.8473 64.2239 33.1156 59.4689 30.9353L53.8468 22.4901C59.2397 25.8886 63.394 25.9881 63.7719 26.0817C66.2066 26.3419 68.9285 26.0561 70.6355 24.3039C72.3804 22.5098 72.6043 19.4371 71.1558 17.1555C69.8808 15.1504 67.4304 13.8227 64.7609 13.6902C60.7646 13.5147 57.2349 15.6314 54.2101 18.1072C54.0422 17.8595 53.8497 17.6318 53.6198 17.4449C55.7343 15.0414 57.5391 12.9402 58.748 9.60158C59.416 7.75704 59.5179 6.24181 59.0586 4.96798C58.2828 2.80822 55.6824 1.4465 53.2578 1.94572C51.0886 2.38751 49.2113 4.11134 48.3582 6.44454C47.2488 9.47492 47.9443 12.75 49.1986 15.7425L38.375 2.2715C37.9159 1.70108 37.0668 1.6736 36.5586 2.06525C36.4378 2.15966 30.7452 6.6098 31.066 6.359C31.0657 6.35914 31.0663 6.35885 31.066 6.359L31.0648 6.36017C30.5495 6.75578 30.3756 7.55382 30.8164 8.15665L38.0491 18.0435C35.3216 18.1754 32.9662 18.904 30.3418 21.8629C25.2858 27.5783 26.2134 35.9198 30.8656 42.325C30.8703 42.3309 30.9488 42.4363 30.9535 42.4422C30.9586 42.4485 30.964 42.4545 30.9692 42.4609C30.951 42.4803 30.9334 42.4996 30.915 42.519C30.793 42.5364 26.3325 43.1731 26.5875 43.1367C26.5635 43.1487 26.5515 43.1487 26.5395 43.1367C26.4192 43.1769 23.9032 42.5389 16.3144 40.7592C9.32889 34.5262 9.96903 24.8317 15.3195 21.1598C15.808 20.8229 15.3024 20.0824 14.8086 20.4192C12.8936 21.7325 11.2419 23.7904 10.5019 27.5418C9.71213 31.6406 10.9768 36.5046 14.6209 40.3627C14.5003 40.3344 11.4665 39.6234 11.6596 39.6687C10.7549 38.5831 9.98674 37.3058 9.84759 36.9927L5.52762 37.5927C5.11507 37.6553 4.78878 38.0022 4.86449 38.5079C5.11018 40.8595 3.73181 30.3586 8.82616 67.0328C8.94335 67.8402 9.4203 68.5293 10.1351 68.923C26.0426 77.5199 25.4577 77.6242 26.6515 77.6242C27.3264 77.6242 25.8379 77.9709 50.4113 70.1219C51.3312 69.8301 52.0179 69.018 52.1609 68.0559L55.9459 42.7457L57.6277 45.0684C58.0615 45.667 58.9013 45.7894 59.4957 45.3238C59.6211 45.2242 65.1475 40.8338 64.8031 41.1074C65.371 40.6591 65.4176 39.8721 65.0797 39.3637L60.3774 32.2999C64.6003 33.936 67.7993 33.9265 70.0777 35.7227C71.934 37.1875 72.7988 39.8043 72.1789 42.0836C72.0245 42.6592 72.8908 42.8938 73.0484 42.3203C73.7586 39.7012 72.7672 36.6988 70.6355 35.016ZM52.2085 37.5838L49.8785 37.1434C50.141 36.5267 50.3611 35.9069 50.5437 35.2844L52.2085 37.5838ZM58.9332 44.6172C58.7416 44.7746 58.4806 44.708 58.3566 44.5375C53.5081 37.8313 54.8659 39.7229 54.6236 39.3738C54.7171 39.5016 52.5888 36.5362 31.5453 7.6258C31.4173 7.4524 31.4955 7.16572 31.6191 7.06916L37.114 2.77541C37.2891 2.63924 37.5405 2.66935 37.6765 2.83986C38.8608 4.31468 50.1258 18.3472 49.4082 17.4543L52.5317 22.1453C51.2836 26.3368 54.8543 29.7447 58.8536 31.6399L64.3273 39.8606C64.4445 40.034 64.4058 40.2637 64.2394 40.3961C64.1141 40.4958 58.5889 44.891 58.9332 44.6172ZM61.7797 18.291C63.4625 18.3027 64.9566 18.7223 65.6797 19.3844C66.3209 19.973 66.2477 20.7807 65.3187 21.3438C63.3229 22.5344 58.8358 21.9928 56.559 21.4703C55.3808 21.1925 54.6603 20.9283 54.5379 20.8902C54.6274 20.6588 54.6859 20.4149 54.7158 20.1625C56.9945 19.051 59.2748 18.291 61.7797 18.291ZM53.2272 23.1898L57.8165 30.0821C55.1919 28.5385 52.8884 26.1879 53.2272 23.1898ZM52.1524 16.8092C52.0871 16.7995 52.0228 16.7888 51.9564 16.7836C51.1755 14.2406 50.4911 11.2704 51.0054 8.64767C51.2639 7.27461 52.1624 5.28885 53.3621 5.98869C53.8648 6.27697 54.2738 6.92384 54.4578 7.71954C54.764 9.01865 54.456 10.2734 54.3933 10.811C53.9427 13.2236 53.1965 14.7861 52.1524 16.8092ZM64.7164 14.5902C67.0988 14.7074 69.275 15.8758 70.3965 17.6383C71.607 19.5449 71.4289 22.1969 69.991 23.6758C68.416 25.2942 65.7922 25.3891 63.8668 25.1863C60.3578 24.8124 57.43 23.6655 54.4598 21.81C56.5888 22.5152 58.759 22.8623 60.9277 22.9469C64.6701 23.0747 65.6153 22.1446 65.7851 22.1137C67.2479 21.2259 67.3596 19.7025 66.2879 18.7211C65.3937 17.902 63.7109 17.4051 61.7867 17.391C58.9672 17.4561 56.7914 18.1846 54.6646 19.1855C54.6478 19.1046 54.6387 19.0205 54.6156 18.9423C57.5003 16.5544 60.9278 14.4016 64.7164 14.5902ZM49.2043 6.75392C50.0127 4.54141 52.0361 2.74259 54.2879 2.74259C56.0129 2.74259 57.6699 3.76447 58.2125 5.27267C59.385 8.52917 55.7499 13.7671 53.398 16.3431C54.6357 13.9743 55.9409 10.0907 55.3344 7.51447C54.9798 5.98334 53.7681 4.58923 52.3742 5.01486C51.3242 5.34298 50.4617 6.67072 50.1219 8.47775C49.5819 11.2258 50.2441 14.2045 51.046 16.8732C50.9397 16.898 50.8304 16.9154 50.729 16.9513C49.2107 13.7624 47.9594 10.1493 49.2043 6.75392ZM31.0156 22.4594C33.3488 19.8315 35.7119 18.8866 38.6848 18.9126L39.153 19.5526L49.8747 34.3604C49.6622 35.2319 49.3587 36.1067 48.9781 36.9732L47.2395 36.6446C47.1153 36.9433 46.9813 37.2075 46.8197 37.4847L48.5728 37.8162C48.1497 38.6521 47.6675 39.4574 47.0981 40.1998C38.9752 41.3638 40.5703 41.1352 32.0469 42.3567C31.9097 42.1949 31.768 42.0168 31.5945 41.7977C27.2298 35.7796 26.2151 27.9392 31.0156 22.4594ZM51.2703 67.9234C51.1777 68.5492 50.7336 69.0754 50.1371 69.2641C48.0984 69.918 57.9577 66.7551 27.1503 76.6378L27.3664 47.7602C27.3687 47.5117 27.1683 47.309 26.9199 47.3066C26.9187 47.3066 26.9176 47.3066 26.9164 47.3066C26.6691 47.3066 26.4687 47.5059 26.4664 47.7531L26.25 76.668C25.8004 76.5558 26.7407 76.9764 10.5699 68.1356C10.1035 67.8789 9.79296 67.4301 9.71678 66.9063L5.86849 39.2494C7.94946 39.7366 21.1557 42.8222 26.2515 44.0128C26.4459 44.068 44.0424 41.5547 54.0446 40.1195L55.1912 41.7033L51.2703 67.9234Z" fill="black"/>
<path d="M4.31215 10.0119L3.81996 13.6248C3.72416 14.318 4.47421 14.8208 5.07855 14.4603L7.75863 12.8677L11.3 13.265C12.0365 13.3345 12.4814 12.5399 12.0887 11.9595L10.2289 9.25601L10.8782 6.26304C11.035 5.53808 10.2394 4.97957 9.61137 5.37593L7.26293 6.87007L3.29145 6.42007C2.55245 6.33912 2.0811 7.18452 2.53676 7.7689L4.31215 10.0119ZM7.16449 7.76538C7.6532 7.82098 7.73638 7.56075 9.96762 6.21499C9.48374 8.78656 9.12437 9.19056 9.47426 9.71538L11.4008 12.3697L7.84535 11.9712C7.65902 11.9478 7.47504 11.9876 7.31801 12.0826L4.71059 13.7478L5.20394 10.1326C5.23324 9.90757 5.17348 9.68491 5.03402 9.50444L3.33715 7.33179L7.16449 7.76538Z" fill="#915FD8"/>
<path d="M67.3989 56.2218L67.9497 53.6847C68.0961 53.012 67.3595 52.4918 66.7732 52.8586L64.8255 54.116L61.4575 53.7339C60.7503 53.6701 60.3417 54.4547 60.7556 54.989L62.2474 56.8394L61.8302 59.9039C61.7389 60.5504 62.4419 61.0132 62.9997 60.6785L65.2544 59.3402L68.2333 59.6754C68.8954 59.7503 69.3399 59.0125 68.9657 58.4613L67.3989 56.2218ZM65.3154 58.4414C65.1384 58.4214 64.9743 58.4578 64.8267 58.5468L62.7548 59.7773C63.0376 57.1974 63.3313 56.8161 62.981 56.3765L61.6415 54.6609L64.7259 55.0113C64.9005 55.0265 65.0798 54.9902 65.2275 54.8964L67.0099 53.7738L66.5189 56.0332C66.3994 56.6014 66.8544 56.8347 68.0739 58.7507L65.3154 58.4414Z" fill="#915FD8"/>
<path d="M12.5094 73.7534C8.15826 71.2584 4.70357 67.1159 3.02896 62.3909C2.83169 61.8324 1.98082 62.1283 2.18053 62.6909C3.92545 67.6163 7.52662 71.9334 12.0618 74.5338C12.5747 74.8331 13.0257 74.048 12.5094 73.7534Z" fill="#915FD8"/>
<path d="M4.50603 73.8597C3.1279 73.5949 1.85759 72.7277 1.10876 71.5394C0.791052 71.035 0.0304785 71.5156 0.347042 72.0199C1.22595 73.4144 2.71774 74.4328 4.33728 74.7433C4.56603 74.791 4.81506 74.6403 4.86345 74.3859C4.91032 74.1422 4.75095 73.9066 4.50603 73.8597Z" fill="#915FD8"/>
</svg>
