<svg width="24" height="24" viewBox="0 0 24 24" fill="none" xmlns="http://www.w3.org/2000/svg">
<path d="M20.9999 12.1994C20.9999 11.4615 20.9386 10.9231 20.806 10.3647H12.1836V13.6951H17.2448C17.1428 14.5228 16.5918 15.7692 15.3672 16.6067L15.3501 16.7182L18.0763 18.7821L18.2652 18.8005C19.9999 17.235 20.9999 14.9316 20.9999 12.1994Z" fill="#4285F4"/>
<path d="M12.1836 20.9742C14.6632 20.9742 16.7448 20.1765 18.2652 18.8004L15.3672 16.6067C14.5918 17.1352 13.5509 17.5041 12.1836 17.5041C9.75504 17.5041 7.69383 15.9386 6.95907 13.7748L6.85137 13.7838L4.01656 15.9276L3.97949 16.0283C5.48968 18.9599 8.59173 20.9742 12.1836 20.9742Z" fill="#34A853"/>
<path d="M6.95914 13.7747C6.76527 13.2163 6.65307 12.618 6.65307 11.9998C6.65307 11.3816 6.76527 10.7833 6.94894 10.2249L6.94381 10.106L4.07348 7.92767L3.97957 7.97132C3.35715 9.18785 3 10.554 3 11.9998C3 13.4457 3.35715 14.8117 3.97957 16.0282L6.95914 13.7747Z" fill="#FBBC05"/>
<path d="M12.1836 6.49585C13.9081 6.49585 15.0713 7.22376 15.7346 7.83206L18.3264 5.35913C16.7346 3.91328 14.6632 3.02582 12.1836 3.02582C8.59173 3.02582 5.48968 5.04003 3.97949 7.97161L6.94887 10.2252C7.69383 8.06139 9.75504 6.49585 12.1836 6.49585Z" fill="#EB4335"/>
</svg>
