<svg clip-rule="evenodd" fill-rule="evenodd" height="8.467mm" image-rendering="optimizeQuality" shape-rendering="geometricPrecision" text-rendering="geometricPrecision" viewBox="0 0 846.66 846.66" width="8.467mm" xmlns="http://www.w3.org/2000/svg"><g id="Layer_x0020_1"><path d="m169.21 121.79h95.98v-92.1c0-27.24 41.42-27.24 41.42 0v92.1h233.44v-92.1c0-27.24 41.42-27.24 41.42 0v92.1h95.98c69.91 0 127.02 57.11 127.02 127.02v461.57c0 69.9-57.11 127.02-127.02 127.02h-508.24c-69.91 0-127.02-57.12-127.02-127.02v-461.57c0-69.91 57.11-127.02 127.02-127.02zm43.44 252.78c22.91 0 41.48 18.57 41.48 41.48 0 22.92-18.57 41.49-41.48 41.49-22.92 0-41.49-18.57-41.49-41.49 0-22.91 18.57-41.48 41.49-41.48zm0 254.6c22.91 0 41.48 18.57 41.48 41.48 0 22.92-18.57 41.49-41.48 41.49-22.92 0-41.49-18.57-41.49-41.49 0-22.91 18.57-41.48 41.49-41.48zm421.37 0c22.91 0 41.48 18.57 41.48 41.48 0 22.92-18.57 41.49-41.48 41.49-22.92 0-41.49-18.57-41.49-41.49 0-22.91 18.57-41.48 41.49-41.48zm-140.46 0c22.91 0 41.49 18.57 41.49 41.48 0 22.92-18.58 41.49-41.49 41.49-22.92 0-41.49-18.57-41.49-41.49 0-22.91 18.57-41.48 41.49-41.48zm-140.46 0c22.92 0 41.49 18.57 41.49 41.48 0 22.92-18.57 41.49-41.49 41.49-22.91 0-41.49-18.57-41.49-41.49 0-22.91 18.58-41.48 41.49-41.48zm-140.45-127.3c22.91 0 41.48 18.57 41.48 41.49 0 22.91-18.57 41.48-41.48 41.48-22.92 0-41.49-18.57-41.49-41.48 0-22.92 18.57-41.49 41.49-41.49zm421.37 0c22.91 0 41.48 18.57 41.48 41.49 0 22.91-18.57 41.48-41.48 41.48-22.92 0-41.49-18.57-41.49-41.48 0-22.92 18.57-41.49 41.49-41.49zm-140.46 0c22.91 0 41.49 18.57 41.49 41.49 0 22.91-18.58 41.48-41.49 41.48-22.92 0-41.49-18.57-41.49-41.48 0-22.92 18.57-41.49 41.49-41.49zm-140.46 0c22.92 0 41.49 18.57 41.49 41.49 0 22.91-18.57 41.48-41.49 41.48-22.91 0-41.49-18.57-41.49-41.48 0-22.92 18.58-41.49 41.49-41.49zm280.92-127.3c22.91 0 41.48 18.57 41.48 41.48 0 22.92-18.57 41.49-41.48 41.49-22.92 0-41.49-18.57-41.49-41.49 0-22.91 18.57-41.48 41.49-41.48zm-140.46 0c22.91 0 41.49 18.57 41.49 41.48 0 22.92-18.58 41.49-41.49 41.49-22.92 0-41.49-18.57-41.49-41.49 0-22.91 18.57-41.48 41.49-41.48zm-140.46 0c22.92 0 41.49 18.57 41.49 41.48 0 22.92-18.57 41.49-41.49 41.49-22.91 0-41.49-18.57-41.49-41.49 0-22.91 18.58-41.48 41.49-41.48zm-269.49-98.5h679.45v-27.26c0-47.04-38.57-85.61-85.61-85.61-169.41 0-338.83 0-508.24 0-47.04 0-85.6 38.57-85.6 85.61zm679.45 41.41h-679.45v392.9c0 47.03 38.56 85.6 85.6 85.6h508.24c47.04 0 85.61-38.57 85.61-85.6z" fill-rule="nonzero"/></g></svg>