<svg width="130" height="87" viewBox="0 0 130 87" fill="none" xmlns="http://www.w3.org/2000/svg">
<path d="M18.2665 85.8316C12.291 80.7589 6.52074 75.4446 0.974288 69.9059C0.782184 69.7139 0.732353 69.4241 0.850882 69.1797C3.02931 64.6809 5.01226 59.8763 7.17855 55.3582C7.37366 54.9513 7.91542 54.8726 8.22062 55.205C15.0618 62.6564 22.4484 70.2113 29.2832 77.6614C29.5535 77.9558 29.4968 78.4154 29.158 78.627C26.0141 80.5909 21.721 83.2485 19.1163 85.8017C18.8798 86.0335 18.519 86.046 18.2665 85.8316Z" fill="#D0DBFF"/>
<path d="M111.173 85.9365C117.315 81.2092 123.267 76.2333 129.008 71.0254C129.206 70.8449 129.269 70.5609 129.164 70.3139C127.225 65.7671 125.494 60.9274 123.569 56.3621C123.395 55.9509 122.864 55.8475 122.547 56.1614C115.436 63.1974 107.782 70.3096 100.678 77.3445C100.397 77.6225 100.432 78.0791 100.756 78.3043C103.769 80.393 107.883 83.2214 110.335 85.8667C110.558 86.1069 110.913 86.1363 111.173 85.9365Z" fill="#D0DBFF"/>
<path d="M99.5309 23.1709C98.9489 27.0838 97.7249 30.8762 96.0593 34.4682C95.0961 34.4883 94.0727 35.3312 93.2902 36.3946C92.026 38.1406 91.3838 40.3479 91.4039 42.515C84.5611 52.709 76.7552 62.2407 68.9894 71.7523C60.0908 62.9486 47.5973 58.806 37.2439 51.8862C41.9063 42.4491 34.8876 33.4467 32.5082 38.923C31.4447 41.3512 30.963 43.7594 30.1002 46.1673C28.5649 44.6086 27.141 43.1262 25.5852 40.5083C25.3043 40.0468 25.0434 39.5853 24.7826 39.1038C22.9164 35.5921 21.7525 31.6792 21.5318 27.706C21.1505 21.3847 21.893 15.0438 25.9264 9.88658C28.7959 6.21447 32.9296 3.56577 37.4446 2.44192C40.7665 1.64686 45.6719 1.38166 49.5047 2.30132C58.0104 4.41607 62.4422 11.2324 61.8858 16.7896C61.7329 17.9752 61.0518 19.334 57.6518 28.3079C59.558 29.4516 61.4644 30.5955 63.3707 31.7593C61.6852 33.6457 59.9995 35.5318 58.334 37.418C60.461 38.2209 62.568 39.0435 64.6952 39.8261C63.9526 41.8328 63.2303 43.8395 62.4878 45.8461C63.3506 45.9463 64.1935 46.0467 65.0363 46.1271C65.7988 49.1371 66.5614 52.1069 67.3239 55.0968C66.8223 51.7057 67.8456 48.1137 70.0731 45.4848C69.0496 44.8428 68.0664 44.1606 67.0631 43.4982C67.9259 42.0535 68.8088 40.6288 69.6516 39.2042C68.0863 38.1808 66.5011 37.1774 64.936 36.1339C66.3606 34.2676 67.8055 32.4013 69.2502 30.5353C67.4042 29.0303 65.578 27.5253 63.752 26.0203C65.3372 20.241 67.0028 14.783 71.0563 10.1675C77.5191 2.87173 87.8548 0.521874 95.4975 6.63603C100.478 10.7244 100.456 16.8002 99.5309 23.1709Z" fill="#915FD8"/>
<path d="M25.5857 40.5081C25.3049 40.0466 25.044 39.5851 24.7831 39.1035C18.5722 47.2647 14.2279 58.5798 2.12779 71.5512C1.42159 72.3048 2.54002 73.2667 3.21147 72.5947C15.3998 59.5439 19.6295 48.5762 25.5857 40.5081Z" fill="black"/>
<path d="M126.452 69.8803C113.963 55.2088 111.202 44.0562 104.411 35.0458C103.637 33.9928 103.168 33.1482 102.158 31.991C103.399 27.6391 103.869 23.3791 103.47 19.5608C103.427 19.1473 103.05 18.8572 102.643 18.8906C102.23 18.9337 101.93 19.304 101.973 19.7175C102.506 24.817 101.409 30.7716 98.9027 36.664C98.8204 36.4234 98.7613 36.1868 98.6692 35.9453C96.2707 29.6477 87.5761 37.662 91.814 48.7128C85.4093 57.8559 78.2697 66.6055 71.8956 74.3757C61.9376 64.9454 48.3788 61.0852 37.6043 52.7981C43.4621 41.4803 34.6057 32.2003 31.8201 38.6221C31.0368 40.4098 30.7342 41.6712 29.7676 44.7247C27.1281 40.6851 25.5296 36.0163 25.2534 31.4146C24.3794 16.1576 31.1411 14.4273 29.3813 13.0469C29.0521 12.7883 28.5779 12.8451 28.3251 13.1743C24.7497 17.7285 23.2957 23.5525 23.7503 31.5028C24.0647 36.733 25.9879 42.0407 29.1583 46.5065C28.8673 47.2646 28.5337 48.0249 28.0674 48.8985C26.242 52.2984 24.9232 54.7558 22.0464 57.2132C21.2875 57.8637 22.2735 59.0032 23.0243 58.3576C26.1156 55.716 27.5618 53.0215 29.4803 49.4491C31.9551 44.797 32.5958 38.1558 34.351 38.0009C35.6778 37.864 38.6094 41.3874 38.041 46.2079C37.5384 50.9248 35.4462 54.5154 31.8946 57.2053C31.095 57.8092 32.0247 59.0016 32.8019 58.4046C34.4866 57.1299 35.8201 55.7092 36.8567 54.115C39.9955 56.5097 43.3844 58.5727 47.09 60.6083C42.2724 65.3687 36.8756 70.0542 30.1221 72.7786C23.6473 75.3703 19.6968 80.9037 14.1579 84.7794C13.3393 85.3534 14.2155 86.5784 15.0202 86.0139C20.6022 82.103 24.5437 76.6307 30.6825 74.1758C37.8328 71.2912 43.4602 66.3417 48.4704 61.3612C56.4011 65.6354 64.9775 69.6577 71.4312 76.0198C71.7498 76.334 72.2628 76.3005 72.5413 75.963C76.3484 71.3218 80.4426 66.2956 84.5117 61.0609C89.1731 65.4194 93.902 68.4091 99.9331 71.7302C104.762 74.3652 108.443 80.0365 113.018 83.5644C113.802 84.1698 114.73 82.9869 113.937 82.3729C109.339 78.8252 105.869 73.2532 100.656 70.4113C94.6845 67.1206 90.0175 64.1714 85.4339 59.8626C87.8427 56.738 90.2246 53.5536 92.5267 50.2949C93.5232 52.2132 94.9161 53.922 96.7595 55.473C97.525 56.1101 98.4889 54.9626 97.7276 54.3208C93.9923 51.1777 92.1563 47.0722 92.1563 42.51C92.1173 38.1475 94.7963 35.249 96.0599 35.2202C97.941 35.2202 98.223 42.1404 100.458 46.7742C102.19 50.3823 103.468 53.1005 106.421 55.8669C107.132 56.5391 108.183 55.455 107.45 54.7695C104.666 52.1613 103.485 49.6024 101.814 46.1216C100.717 43.8457 100.356 41.8281 99.5759 38.8646C100.379 37.1524 101.064 35.4279 101.633 33.7096C105.511 38.8999 107.136 41.882 110.107 47.562C114.369 55.7026 119.005 63.4525 125.306 70.8562C125.952 71.6131 127.097 70.6399 126.452 69.8803Z" fill="black"/>
<path d="M40.6082 6.93065C55.1733 3.47569 64.9105 12.3553 64.1297 20.4384C64.0059 21.4335 63.4289 22.6032 59.9254 31.7808C59.795 32.1198 59.9273 32.5039 60.2389 32.694L65.1831 35.6805L60.7592 40.6658C60.4115 41.0571 60.5624 41.6791 61.0531 41.867C63.4132 42.7718 65.1822 43.4506 66.7125 44.0285L64.7657 49.343C64.5987 49.7964 64.899 50.294 65.3859 50.3483C65.9187 50.4099 66.6352 50.4951 67.4151 50.5756L69.5883 59.0413C69.8315 59.9709 71.2037 59.6697 71.061 58.7395C70.5779 55.5649 71.5391 52.1963 73.631 49.7291C73.925 49.3838 73.8459 48.8575 73.4655 48.6121C72.6765 48.1004 71.8963 47.5768 71.058 47.015C71.8066 45.7883 72.5532 44.5615 73.2861 43.3368C73.4948 42.9899 73.389 42.5392 73.049 42.3177C71.1239 41.0784 70.041 40.3822 69.0053 39.7075C70.2732 38.0555 71.5548 36.4055 72.8374 34.7555C73.0872 34.4322 73.0353 33.9697 72.7188 33.711C71.0002 32.306 69.2983 30.9009 67.5983 29.4959C69.2375 23.5738 70.8503 18.6787 74.6128 14.4204C80.5248 7.75409 90.0421 5.11057 97.2603 10.6461C98.051 11.2503 98.967 10.0567 98.1755 9.45074C90.3275 3.43914 79.9886 6.08637 73.485 13.4229C69.4168 18.0281 67.6963 23.4582 66.0169 29.5664C65.9385 29.8525 66.0355 30.1582 66.2638 30.3463C67.904 31.7004 69.5442 33.0565 71.1982 34.4106C69.8979 36.0841 68.5997 37.7596 67.3171 39.4332C67.0538 39.7802 67.1343 40.2775 67.5013 40.5208C68.7157 41.3198 69.9782 42.131 71.6205 43.1878C70.8876 44.4067 70.1429 45.6276 69.3972 46.8465C69.1866 47.1894 69.2856 47.6401 69.6206 47.8635C70.9303 48.7409 71.2563 48.9607 71.9556 49.4234C70.961 50.7736 70.2419 52.3178 69.8323 53.9384L68.7427 49.6919C68.6634 49.3862 68.4008 49.1608 68.0863 49.1314C67.566 49.0804 67.0378 49.0236 66.5078 48.9629L68.3822 43.8443C68.5242 43.4563 68.3273 43.0252 67.9393 42.8802C66.0358 42.1677 64.2874 41.4945 62.6071 40.85L66.9095 36.0038C67.2224 35.6474 67.1348 35.1013 66.7351 34.8594L61.5567 31.7318C64.394 24.2881 65.4607 21.9342 65.6279 20.5776C66.545 11.4901 55.8466 1.7682 40.2614 5.46485C39.2964 5.69383 39.6346 7.15389 40.6082 6.93065Z" fill="black"/>
<path d="M101.81 6.19401L103.354 1.31648C103.656 0.361757 102.215 -0.0759937 101.919 0.861847L100.375 5.73938C100.074 6.69066 101.511 7.14568 101.81 6.19401Z" fill="black"/>
<path d="M103.775 11.5988C104.151 11.5988 103.975 11.559 108.311 8.96701C109.163 8.44921 108.378 7.1627 107.529 7.68149L103.383 10.2035C102.733 10.5985 103.018 11.5988 103.775 11.5988Z" fill="black"/>
<path d="M106.977 17.4402C107.076 17.4575 111.643 18.2652 111.743 18.2652C112.655 18.2652 112.774 16.9274 111.872 16.772L107.238 15.9588C106.249 15.7928 106.003 17.2725 106.977 17.4402Z" fill="black"/>
</svg>
