<?xml version="1.0" encoding="UTF-8"?>
<svg xmlns="http://www.w3.org/2000/svg" xmlns:xlink="http://www.w3.org/1999/xlink" version="1.1" width="512" height="512" x="0" y="0" viewBox="0 0 510 510" style="enable-background:new 0 0 512 512" xml:space="preserve" class="">
  <g>
    <path d="M389 43.83h-73.5V15c0-8.284-6.716-15-15-15h-91c-8.284 0-15 6.716-15 15v28.83H121c-24.813 0-45 20.187-45 45V465c0 24.813 20.187 45 45 45h268c24.813 0 45-20.187 45-45V88.83c0-24.813-20.187-45-45-45zM224.5 30h61v55.5c0 16.817-13.683 30.5-30.5 30.5s-30.5-13.683-30.5-30.5zM404 465c0 8.271-6.729 15-15 15H121c-8.271 0-15-6.729-15-15V88.83c0-8.271 6.729-15 15-15h73.5V85.5c0 33.359 27.141 60.5 60.5 60.5s60.5-27.141 60.5-60.5V73.83H389c8.271 0 15 6.729 15 15z" fill="#000000" opacity="1" data-original="#000000" class=""/>
    <path d="M193.288 377.167h123.424c8.284 0 15-6.716 15-15v-39.291c0-23.681-13.258-44.322-32.741-54.895 6.499-8.952 10.345-19.948 10.345-31.832 0-29.95-24.366-54.316-54.316-54.316s-54.316 24.366-54.316 54.316c0 11.884 3.846 22.88 10.345 31.832-19.483 10.572-32.741 31.214-32.741 54.895v39.291c0 8.284 6.716 15 15 15zM255 211.833c13.408 0 24.316 10.908 24.316 24.316S268.408 260.466 255 260.466s-24.316-10.908-24.316-24.316 10.908-24.317 24.316-24.317zm-46.712 111.043c0-17.871 14.539-32.41 32.41-32.41h28.604c17.871 0 32.41 14.539 32.41 32.41v24.291h-93.424zM327.75 413h-145.5c-8.284 0-15 6.716-15 15s6.716 15 15 15h145.5c8.284 0 15-6.716 15-15s-6.716-15-15-15z" fill="#000000" opacity="1" data-original="#000000" class=""/>
  </g>
</svg>
