<svg width="20" height="20" viewBox="0 0 20 20" fill="none" xmlns="http://www.w3.org/2000/svg">
<g clip-path="url(#clip0_926_3518)">
<path fill-rule="evenodd" clip-rule="evenodd" d="M10 0C15.523 0 20 4.47695 20 10C20 15.523 15.523 20 10 20C4.47695 20 0 15.523 0 10C0 4.47695 4.47695 0 10 0Z" fill="url(#paint0_linear_926_3518)"/>
<path fill-rule="evenodd" clip-rule="evenodd" d="M10.0004 11.9306C8.93398 11.9306 8.06953 11.0665 8.06953 10.0001C8.06953 8.93369 8.93398 8.06963 10 8.06963C11.0664 8.06963 11.9309 8.93369 11.9309 10.0001C11.9309 11.0661 11.0664 11.9306 10 11.9306H10.0004ZM7.61211 4.24307C5.46484 4.34111 4.33672 5.54893 4.24336 7.61221C4.17148 9.17393 4.17148 10.8263 4.24336 12.3884C4.33672 14.4513 5.46484 15.6595 7.61211 15.7571C9.17422 15.8286 10.8262 15.8286 12.3883 15.7571C14.4516 15.663 15.659 14.5364 15.7574 12.3884C15.8285 10.8259 15.8281 9.17471 15.7574 7.61221C15.6613 5.50908 14.4914 4.33877 12.3883 4.24307C10.8262 4.17158 9.17422 4.17158 7.61211 4.24307ZM12.3406 5.28564C13.9008 5.35674 14.6441 6.09932 14.7148 7.65947C14.7852 9.18916 14.7848 10.811 14.7148 12.3407C14.6422 13.9458 13.8605 14.6454 12.3406 14.7149C10.8105 14.7845 9.18984 14.7845 7.65977 14.7149C6.13984 14.6454 5.35859 13.9458 5.28555 12.3407C5.21562 10.811 5.21562 9.18916 5.28555 7.65947C5.35469 6.13955 6.05469 5.35908 7.65977 5.28564C9.18984 5.21572 10.8105 5.21533 12.3406 5.28564ZM13.7871 6.9083C13.7871 7.29189 13.4758 7.60322 13.0922 7.60322C12.7078 7.60322 12.3969 7.29229 12.3969 6.9083C12.3969 6.52432 12.7078 6.21338 13.0922 6.21338C13.4758 6.21299 13.7871 6.52432 13.7871 6.9083ZM10.0004 7.02588C8.35781 7.02588 7.02578 8.35752 7.02578 10.0001C7.02578 11.6427 8.35781 12.9743 10 12.9743C11.643 12.9743 12.9746 11.6427 12.9746 10.0001C12.9746 8.35752 11.643 7.02588 10.0004 7.02588Z" fill="white"/>
</g>
<defs>
<linearGradient id="paint0_linear_926_3518" x1="2.64961" y1="3.21953" x2="18.523" y2="15.2336" gradientUnits="userSpaceOnUse">
<stop stop-color="#904A97"/>
<stop offset="1" stop-color="#F7B648"/>
</linearGradient>
<clipPath id="clip0_926_3518">
<rect width="20" height="20" fill="white"/>
</clipPath>
</defs>
</svg>
