<svg width="68" height="70" viewBox="0 0 68 70" fill="none" xmlns="http://www.w3.org/2000/svg">
<path d="M20.3512 56.7223C15.5801 42.5648 12.6528 30.9012 12.4492 16.0921C12.4294 14.3743 12.3825 10.3535 15.2585 9.50351C16.9646 8.98188 18.97 9.64555 21.871 10.2139C32.5309 12.3116 42.7622 16.021 51.8554 20.5598C52.3225 20.7945 51.9806 21.5081 51.4971 21.2764C42.7252 16.8957 32.4458 13.097 21.7169 10.9993C16.4554 9.96729 13.1587 8.39666 13.2492 16.0827C13.4531 30.7835 16.3469 42.3351 21.1096 56.467C22.2238 59.7858 25.6329 69.8509 28.9752 68.6306C29.8637 68.3025 30.3502 67.2045 30.7356 66.2014C32.9773 60.3389 35.0304 54.5233 36.8398 48.917C39.725 39.9453 41.7365 39.4112 51.1929 37.5379C54.711 36.8404 67.0934 34.5263 66.5408 30.9556C66.4148 30.1264 65.6117 29.5202 64.8679 29.0171C62.4252 27.3931 59.921 25.8535 57.4283 24.441C56.9661 24.1811 57.3636 23.4835 57.8221 23.7452C60.3315 25.166 62.8523 26.7171 65.3137 28.3525C66.2002 28.9525 67.1575 29.6868 67.3325 30.8337C68.002 35.1672 56.22 37.3574 51.3492 38.3223C42.1155 40.1514 40.3802 40.5199 37.6012 49.1629C35.7877 54.7827 33.7294 60.6118 31.4825 66.4879C31.0335 67.6556 30.4544 68.9368 29.2523 69.3806C25.1455 70.9046 21.7536 60.8983 20.3512 56.7223Z" fill="black"/>
<path d="M28.5209 45.231C35.9937 45.231 42.0516 38.9072 42.0516 31.1062C42.0516 23.3053 35.9937 16.9814 28.5209 16.9814C21.0481 16.9814 14.9902 23.3053 14.9902 31.1062C14.9902 38.9072 21.0481 45.231 28.5209 45.231Z" fill="#915FD8"/>
<path d="M0.644615 16.2439C0.52899 14.2834 2.11441 12.3959 4.17899 12.0366C5.89045 11.7355 7.7842 12.3918 9.39045 13.823C9.78518 14.1778 9.25345 14.7699 8.85712 14.4209C7.4342 13.1512 5.78316 12.5699 4.31649 12.8241C2.84774 13.0803 1.34253 14.497 1.44253 16.1959C1.475 16.7255 0.675959 16.7767 0.644615 16.2439Z" fill="black"/>
<path d="M9.15201 7.14936L4.09368 2.85874C3.68949 2.51692 4.20815 1.90607 4.61035 2.24832L9.66868 6.53894C10.0729 6.88078 9.55585 7.4915 9.15201 7.14936Z" fill="black"/>
<path d="M15.4206 5.90708C14.3541 4.15691 15.144 1.48812 17.0352 0.695621C18.9405 -0.10699 21.2939 1.26514 21.6893 3.2977C21.7884 3.81283 21.0073 3.97699 20.9039 3.44979C20.4448 1.08645 16.8569 0.175498 15.8987 3.12687C15.631 3.955 15.707 4.83937 16.1039 5.49041C16.3794 5.94616 15.6947 6.35631 15.4206 5.90708Z" fill="black"/>
<path d="M26.3561 43.6449C25.8561 43.4649 26.1326 42.7084 26.627 42.8928C34.9743 45.9046 43.9488 39.3649 43.9488 29.8908C43.9488 22.3272 38.0592 16.173 30.8207 16.173C23.5822 16.173 17.6926 22.3272 17.6926 29.8908C17.6926 33.8199 19.3103 37.5689 22.1322 40.1762C22.5198 40.5363 21.978 41.1232 21.5884 40.7637C18.604 38.0053 16.8926 34.0428 16.8926 29.8908C16.8926 21.8855 23.1405 15.373 30.8207 15.373C38.5009 15.373 44.7488 21.8855 44.7488 29.8908C44.7488 39.9361 35.2022 46.8435 26.3561 43.6449Z" fill="black"/>
<path d="M36.0789 22.6229L37.0668 23.5347C37.429 23.869 37.4627 24.4161 37.1425 24.7631L33.2458 28.9851C32.9353 29.3215 32.958 29.8586 33.31 30.1932L37.3333 34.0817C37.6852 34.4163 37.708 34.9533 37.3974 35.2898L36.8394 35.8944C36.5191 36.2414 35.971 36.2516 35.6088 35.9173L31.3389 31.9763C30.9766 31.6419 30.4333 31.6469 30.113 31.9939L25.9536 36.4017C25.6279 36.7436 25.0846 36.7485 24.7279 36.4193L23.8717 35.6291C23.5094 35.2947 23.4799 34.7319 23.8058 34.3901L27.9856 30.0595C28.3113 29.7176 28.2873 29.1599 27.9195 28.8205L23.1118 24.3832C22.7495 24.0488 22.7159 23.5018 23.0362 23.1548L23.5263 22.6238C23.8417 22.2821 24.3897 22.2718 24.752 22.6062L29.5763 27.0587C29.933 27.3879 30.4914 27.3775 30.8068 27.0358L34.8539 22.6509C35.1741 22.3039 35.7221 22.2936 36.0789 22.6229Z" fill="black"/>
<path d="M24.4565 36.7131L23.6002 35.9225C23.0864 35.4483 23.024 34.6308 23.5159 34.1142L27.6981 29.7819C27.8581 29.6133 27.8602 29.31 27.6471 29.1142L22.8409 24.6767C22.3179 24.1954 22.2742 23.3912 22.7419 22.884L23.2325 22.3517C23.7116 21.8354 24.5123 21.8395 25.0231 22.3121L29.8471 26.7652C30.0247 26.9256 30.3345 26.9567 30.5127 26.7642L34.5596 22.3798C35.0273 21.8715 35.8325 21.8506 36.3492 22.3287L37.3377 23.2412C37.8607 23.7235 37.9034 24.5287 37.4357 25.035L33.5398 29.2558C33.3752 29.434 33.3961 29.7235 33.5846 29.9037L37.6107 33.7944C38.1127 34.2704 38.1492 35.0642 37.6909 35.561L37.1325 36.1662C36.6497 36.6885 35.8453 36.6807 35.3377 36.211L31.0679 32.2704C30.8852 32.1031 30.5969 32.0626 30.4065 32.2652L26.244 36.6767C25.7665 37.1784 24.9795 37.1954 24.4565 36.7131ZM23.82 22.8954L23.3294 23.4267C23.1586 23.6121 23.1815 23.9027 23.3825 24.0892L28.1898 28.5267C28.7299 29.0237 28.7479 29.8375 28.2763 30.335L24.0929 34.6683C23.9197 34.851 23.9503 35.1584 24.1429 35.335L24.9992 36.1256C25.1961 36.3079 25.4877 36.31 25.6638 36.1256L29.8221 31.7194C30.2973 31.2049 31.0946 31.2085 31.6096 31.6829L35.8794 35.6235C36.0585 35.7876 36.3609 35.8221 36.545 35.6235L37.1034 35.0183C37.2669 34.8412 37.2461 34.5517 37.0575 34.3715L33.0315 30.4808C32.5294 30.0037 32.4929 29.21 32.9523 28.7131L36.8482 24.4923C37.0169 24.309 36.9929 24.0121 36.795 23.8287L35.8075 22.9162C35.6117 22.736 35.3148 22.7402 35.1471 22.9225L31.1002 27.3069C30.6398 27.8075 29.829 27.8368 29.3044 27.3527L24.4804 22.8996C24.2723 22.7092 23.9807 22.7219 23.82 22.8954Z" fill="black"/>
<path d="M43.6484 69.0602C43.3259 55.3924 53.1634 45.0505 57.964 44.0206C58.4826 43.9037 58.6491 44.6921 58.1327 44.8018C56.6182 45.1279 55.289 46.1393 54.2994 46.9841C47.9338 52.4237 44.2504 60.6695 44.4484 69.0414C44.4609 69.5731 43.6611 69.5935 43.6484 69.0602Z" fill="black"/>
<path d="M54.4328 61.581C53.2134 58.7436 54.228 55.104 57.3818 52.9185C57.8206 52.6183 58.2708 53.2758 57.838 53.5768C55.0281 55.5217 54.0825 58.7425 55.1682 61.2643C55.3776 61.7504 54.6438 62.0666 54.4328 61.581Z" fill="black"/>
</svg>
