<?xml version="1.0" encoding="UTF-8"?>
<svg xmlns="http://www.w3.org/2000/svg" xmlns:xlink="http://www.w3.org/1999/xlink" version="1.1" width="512" height="512" x="0" y="0" viewBox="0 0 24 24" style="enable-background:new 0 0 512 512" xml:space="preserve" class="">
  <g>
    <g fill="#000">
      <path d="M17 7.75a.75.75 0 0 0 0-1.5zM7 6.25a.75.75 0 0 0 0 1.5zm10 0H7v1.5h10zM17 11.75a.75.75 0 0 0 0-1.5zm-10-1.5a.75.75 0 0 0 0 1.5zm10 0H7v1.5h10zM12 15.75a.75.75 0 0 0 0-1.5zm-5-1.5a.75.75 0 0 0 0 1.5zm5 0H7v1.5h5zM18.323 21.036l-.254.706zm-1.562-.562.254-.706zm-1.498.058-.308-.684zM12.82 21.63l-.308-.684zm-1.642 0 .308-.684zm-2.442-1.1.308-.683zm-1.498-.057-.254-.706zm-1.562.562.254.706zM5 2.75h14v-1.5H5zM20.25 4v15.154h1.5V4zm-1.673 16.33-1.562-.562-.508 1.412 1.561.562zm-3.622-.482-2.442 1.099.615 1.368 2.442-1.1zm-3.468 1.099-2.442-1.1-.615 1.369 2.441 1.099zm-4.502-1.179-1.562.562.508 1.412 1.562-.562zm-3.235-.614V4h-1.5v15.154zm1.673 1.176a1.25 1.25 0 0 1-1.673-1.176h-1.5a2.75 2.75 0 0 0 3.681 2.588zm3.622-.482a2.75 2.75 0 0 0-2.06-.08l.508 1.412c.305-.11.641-.097.937.036zm3.468 1.099a1.25 1.25 0 0 1-1.026 0l-.616 1.368a2.75 2.75 0 0 0 2.257 0zm4.502-1.179a2.75 2.75 0 0 0-2.06.08l.615 1.368a1.25 1.25 0 0 1 .937-.036zm3.235-.614a1.25 1.25 0 0 1-1.673 1.176l-.509 1.412a2.75 2.75 0 0 0 3.682-2.588zM19 2.75c.69 0 1.25.56 1.25 1.25h1.5A2.75 2.75 0 0 0 19 1.25zM5 1.25A2.75 2.75 0 0 0 2.25 4h1.5c0-.69.56-1.25 1.25-1.25z" fill="#060606" opacity="1" data-original="#000000" class=""/>
    </g>
  </g>
</svg>
