<svg width="18" height="22" viewBox="0 0 18 22" fill="none" xmlns="http://www.w3.org/2000/svg">
<path d="M15.0494 11.3194C15.0399 9.56434 15.8337 8.23968 17.4405 7.26413C16.5414 5.97773 15.1833 5.26997 13.39 5.13129C11.6923 4.99739 9.83688 6.12119 9.15781 6.12119C8.44049 6.12119 6.79543 5.17911 5.50425 5.17911C2.83581 5.22215 0 7.30717 0 11.5489C0 12.8019 0.229543 14.0962 0.688629 15.432C1.30074 17.1871 3.5101 21.491 5.81509 21.4193C7.02019 21.3906 7.87141 20.5633 9.43996 20.5633C10.9607 20.5633 11.7497 21.4193 13.0935 21.4193C15.4176 21.3858 17.4166 17.474 18 15.7142C14.882 14.2461 15.0494 11.4102 15.0494 11.3194ZM12.3427 3.4671C13.6482 1.91769 13.5287 0.506953 13.4904 4.57764e-05C12.3379 0.0669958 11.0037 0.784318 10.2434 1.66902C9.40648 2.61588 8.91392 3.78751 9.01913 5.10738C10.2673 5.20302 11.4054 4.56221 12.3427 3.4671Z" fill="white"/>
</svg>
