<svg width="22" height="17" viewBox="0 0 22 17" fill="none" xmlns="http://www.w3.org/2000/svg">
<path d="M0 4.60786V3.94973C0 3.40452 0.441972 2.96255 0.987188 2.96255H15.795V0.988172C15.795 0.109287 16.8603 -0.329806 17.4803 0.290107L20.7709 3.58073C21.1564 3.96627 21.1564 4.59132 20.7709 4.97682L17.4803 8.26745C16.8626 8.88493 15.795 8.45197 15.795 7.56942V5.59505H0.987188C0.441972 5.59505 0 5.15308 0 4.60786ZM20.0728 10.86H5.265V8.88567C5.265 8.00897 4.20122 7.56613 3.57975 8.18761L0.289123 11.4782C-0.0963742 11.8638 -0.0963742 12.4888 0.289123 12.8743L3.57975 16.1649C4.19789 16.783 5.265 16.3487 5.265 15.4669V13.4925H20.0728C20.618 13.4925 21.06 13.0506 21.06 12.5054V11.8472C21.06 11.302 20.618 10.86 20.0728 10.86Z" fill="#800020"/>
</svg>
