<svg width="20" height="20" viewBox="0 0 20 20" fill="none" xmlns="http://www.w3.org/2000/svg">
<g clip-path="url(#clip0_212_11640)">
<path d="M9.99967 1.66675C11.1047 1.66675 12.1646 2.10573 12.946 2.88714C13.7274 3.66854 14.1663 4.72835 14.1663 5.83341V8.33341C14.8294 8.33341 15.4653 8.59681 15.9341 9.06565C16.4029 9.53449 16.6663 10.1704 16.6663 10.8334V15.8334C16.6663 16.4965 16.4029 17.1323 15.9341 17.6012C15.4653 18.07 14.8294 18.3334 14.1663 18.3334H5.83301C5.16997 18.3334 4.53408 18.07 4.06524 17.6012C3.5964 17.1323 3.33301 16.4965 3.33301 15.8334V10.8334C3.33301 10.1704 3.5964 9.53449 4.06524 9.06565C4.53408 8.59681 5.16997 8.33341 5.83301 8.33341V5.83341C5.83301 4.72835 6.27199 3.66854 7.0534 2.88714C7.8348 2.10573 8.89461 1.66675 9.99967 1.66675ZM9.99967 11.6667C9.57919 11.6666 9.1742 11.8254 8.86588 12.1113C8.55757 12.3972 8.36871 12.7891 8.33717 13.2084L8.33301 13.3334C8.33301 13.663 8.43076 13.9853 8.61389 14.2594C8.79703 14.5334 9.05733 14.7471 9.36187 14.8732C9.66641 14.9994 10.0015 15.0324 10.3248 14.9681C10.6481 14.9037 10.9451 14.745 11.1782 14.5119C11.4113 14.2788 11.57 13.9819 11.6343 13.6586C11.6986 13.3353 11.6656 13.0002 11.5395 12.6956C11.4133 12.3911 11.1997 12.1308 10.9256 11.9476C10.6515 11.7645 10.3293 11.6667 9.99967 11.6667ZM9.99967 3.33341C9.33663 3.33341 8.70075 3.59681 8.23191 4.06565C7.76307 4.53449 7.49967 5.17037 7.49967 5.83341V8.33341H12.4997V5.83341C12.4997 5.17037 12.2363 4.53449 11.7674 4.06565C11.2986 3.59681 10.6627 3.33341 9.99967 3.33341Z" fill="#523F88"/>
</g>
<defs>
<clipPath id="clip0_212_11640">
<rect width="20" height="20" fill="white"/>
</clipPath>
</defs>
</svg>
