<svg width="60" height="60" viewBox="0 0 60 60" fill="none" xmlns="http://www.w3.org/2000/svg">
<path d="M50.0028 31.3326V23.8293L48.8572 24.2177V31.3326H50.0028Z" fill="#C743C7"/>
<path d="M43.1132 28.293L30.2777 32.6453C30.1599 32.6859 30.0356 32.706 29.912 32.706C29.7881 32.706 29.6628 32.6859 29.545 32.6453L16.7101 28.293V39.0571H16.7237L16.6946 39.205C16.6946 40.4856 22.613 43.3447 29.9043 43.3447C37.1952 43.3447 43.0981 40.4856 43.0981 39.205L43.0679 39.0571H43.1132V28.293Z" fill="#581958"/>
<path d="M16.7101 26.166L29.912 30.6425L43.1132 26.166L48.8572 24.2176L50.0028 23.8293L50.6061 23.6247L29.912 16.6555L9.21686 23.6247L16.7101 26.166Z" fill="#581958"/>
<path d="M48.0766 33.0906V37.4712C48.0766 38.2186 48.6818 38.8244 49.4301 38.8244C50.1777 38.8244 50.7832 38.2186 50.7832 37.4712V33.0906C50.7832 32.7206 50.634 32.3854 50.3939 32.1414H48.4669C48.2264 32.3854 48.0766 32.7206 48.0766 33.0906Z" fill="#C743C7"/>
<path d="M48.2941 31.3325V32.1413H48.4668H50.3938H50.5654V31.3325H50.0028H48.8572H48.2941Z" fill="#C743C7"/>
</svg>
