<?xml version="1.0" encoding="UTF-8"?>
<svg xmlns="http://www.w3.org/2000/svg" xmlns:xlink="http://www.w3.org/1999/xlink" xmlns:svgjs="http://svgjs.com/svgjs" version="1.1" width="512" height="512" x="0" y="0" viewBox="0 0 512 512" style="enable-background:new 0 0 512 512" xml:space="preserve" class="">
  <g>
    <g fill-rule="evenodd" clip-rule="evenodd">
      <path fill="#e6bc7f" d="M197.12 297.47h117.75v131.87H197.12z" data-original="#ffd18d" class="" opacity="1"/>
      <path fill="#e6bc7f" d="M314.88 303.2v14.46c-17.4 10.03-37.53 15.76-58.88 15.76-12.13 0-23.87-1.84-34.92-5.3-5.19-1.59-10.37 2.24-10.37 7.65v39.29h-13.58V303.2c16.92 11.34 37.19 17.94 58.88 17.94 21.73 0 41.97-6.63 58.87-17.94z" data-original="#e6bc7f" class="" opacity="1"/>
      <path fill="#0773bb" d="m341.46 365.96 85.44 29.2c17.83 6.09 29.28 22.11 29.28 40.96v50.57c0 9.44-7.68 17.12-17.12 17.12H72.91c-9.41 0-17.09-7.68-17.09-17.12v-50.57c0-18.85 11.45-34.87 29.28-40.96l85.44-29.2 86.91 8.7z" data-original="#eceaec" class="" opacity="1"/>
      <path fill="#213359" d="m255.52 502.39 85.94-136.43-85.46 7.22-85.46-7.22z" data-original="#1badde" class="" opacity="1"/>
      <path fill="#213359" d="M242.17 8.2h27.64c61.2 0 111.23 50.06 111.23 111.23v47.74c0 34.92-28.57 63.5-63.47 63.5H194.43c-34.92 0-63.5-28.57-63.5-63.5v-47.74C130.94 58.25 181 8.2 242.17 8.2z" data-original="#4e3d4d" class="" opacity="1"/>
      <path fill="#e6bc7f" d="M140.49 177.71h8.82c8.33 0 14.2-6.83 15.11-15.08v-23.64c0-6.15 5.92-10.46 11.79-8.56 27.92 9.1 73.47 12.42 111.69-33 3.4-4.05 9.47-4.34 13.21-.62 9.75 9.64 27.16 21.12 40.39 25.65 3.71 1.28 6.09 4.59 6.09 8.5v31.66c0 8.31 6.77 15.08 15.08 15.08h8.82c11.91 0 21.66 9.75 21.66 21.66s-9.75 21.63-21.66 21.63h-9.47c-3.17 55.62-49.63 100.15-106.02 100.15-56.04 0-102.84-44.19-106.02-100.15h-9.5c-11.91 0-21.63-9.72-21.63-21.63.01-11.9 9.73-21.65 21.64-21.65z" data-original="#ffd18d" class="" opacity="1"/>
      <path fill="#0773bb" d="m286.39 373.52-8.65 43.09c-.68 3.46-2.66 6.32-5.39 8.16l7.82 38.47-24.75 39.15-23.78-38.3 7.99-39.4c-2.61-1.87-4.54-4.71-5.41-8.08l-11.25-43.09z" data-original="#736572" class="" opacity="1"/>
      <path fill="#213359" d="M170.54 365.96 196.1 407c2.95 4.73 10.23 5.56 14.63 2.07L256 373.18l-59.44-32.09c-5.53-2.98-12.42-.96-15.28 4.48zM341.46 365.96 315.9 407c-2.95 4.73-10.26 5.56-14.63 2.07L256 373.18l59.44-32.09c5.53-2.98 12.42-.96 15.28 4.48z" data-original="#dbd8db" class="" opacity="1"/>
      <path fill="#e6bc7f" d="M181.73 229.38V132.1c-1.9-.51-3.77-1.08-5.53-1.67-5.87-1.9-11.79 2.41-11.79 8.56v23.64c-.91 8.25-6.77 15.08-15.11 15.08h-8.82c-2.95 0-5.78.62-8.36 1.7-7.77 3.29-13.27 11-13.27 19.96 0 11.91 9.72 21.63 21.63 21.63h9.5c1.96 34.33 20.3 64.2 47.14 82.2 16.92 11.34 37.19 17.94 58.88 17.94 1.16 0 2.35-.03 3.51-.06-20.98-.79-39.97-9.67-53.91-23.61-14.71-14.65-23.87-34.89-23.87-57.17z" data-original="#e6bc7f" class="" opacity="1"/>
      <path fill="#213359" d="M164.41 162.63v-23.64c0-6.15 5.92-10.46 11.79-8.56 1.76.6 3.63 1.16 5.53 1.67V26.17c-30.5 19.9-50.8 54.31-50.8 93.26v47.74c0 4.2.43 8.28 1.19 12.25 2.58-1.08 5.41-1.7 8.36-1.7h8.82c8.34-.01 14.21-6.84 15.11-15.09z" data-original="#463745" class="" opacity="1"/>
      <g fill="#d4d3d4">
        <path d="m101.88 401.76 17.83-6.09v-12.33L85.1 395.15c-17.83 6.09-29.28 22.11-29.28 40.96v50.57c0 9.44 7.68 17.12 17.09 17.12h3.32c-2.27-2.92-3.63-6.55-3.63-10.52v-50.57c0-18.84 11.45-34.86 29.28-40.95zM135.7 380.58v9.61l41.16-14.06-6.32-10.18L135.27 378c.29.83.43 1.68.43 2.58z" fill="#213359" data-original="#d4d3d4" class="" opacity="1"/>
      </g>
    </g>
    <path d="m429.51 387.58-82.42-28.18-9.28-17.57c-2.39-4.49-6.4-7.78-11.31-9.27-1.2-.36-2.41-.6-3.63-.73v-24.44c4.04-2.94 7.92-6.15 11.6-9.65 19.41-18.42 31.62-42.59 34.85-68.73h2.18c16.34 0 29.64-13.31 29.64-29.66 0-9.98-4.96-18.82-12.55-24.19.3-2.68.47-5.35.47-7.98v-47.74C389.06 53.69 335.57.2 269.82.2h-27.64c-65.75 0-119.24 53.49-119.24 119.24v47.74c0 2.69.17 5.36.46 7.99-7.58 5.37-12.54 14.21-12.54 24.18 0 16.36 13.29 29.66 29.64 29.66h2.15c3.99 32.35 21.45 60.36 46.45 78.47v24.35c-1.23.13-2.45.37-3.65.74-4.91 1.5-8.91 4.8-11.27 9.28l-9.26 17.54-82.43 28.2c-21.08 7.21-34.7 26.26-34.7 48.54v50.57c0 13.86 11.27 25.13 25.13 25.13h366.15c13.86 0 25.13-11.27 25.13-25.13v-50.57c0-22.29-13.61-41.34-34.69-48.55zm-54.55 66.55c5.24 0 9.51 4.27 9.51 9.51 0 5.23-4.27 9.48-9.51 9.48-5.23 0-9.48-4.25-9.48-9.48-.01-5.25 4.25-9.51 9.48-9.51zm-162.85-36.58c1.28-.59 2.5-1.32 3.61-2.21l8.21-6.52 2.56 9.8c.85 3.25 2.37 6.24 4.42 8.75l-3.11 15.37zm28.03 44.99 7.34-36.26c.62-3.07-.61-6.23-3.15-8.07-1.11-.81-1.94-2.09-2.34-3.62l-4.35-16.64 18.35-14.56 17.49 13.87-3.57 17.74c-.27 1.34-.98 2.43-2.03 3.14-2.68 1.81-4 5.06-3.36 8.22l7.16 35.29-16.16 25.58-13.97-22.43zm43.9-20.49-2.94-14.47c2.22-2.65 3.77-5.85 4.5-9.39l1.96-9.76 8.71 6.91c1.03.81 2.14 1.49 3.3 2.05zm39.61-92.74 8.56 16.22-23.77 36.99c-.21.33-.53.53-.95.6-.26.04-.78.06-1.26-.33l-18.77-14.89c-.06-.05-.12-.1-.19-.15l-16.79-13.32 48.06-25.92c.09-.05.17-.09.26-.14l.43-.23a3.37 3.37 0 0 1 2.63-.27c.56.17 1.33.57 1.79 1.44zM138.96 167.16v-47.74c0-56.92 46.31-103.22 103.22-103.22h27.64c56.92 0 103.22 46.31 103.22 103.22v47.74c0 .85-.02 1.71-.06 2.57-.49-.02-.98-.04-1.48-.04h-8.82c-3.92 0-7.1-3.19-7.1-7.1v-31.63c0-7.37-4.5-13.69-11.49-16.11-11.4-3.88-27.8-14.31-37.36-23.75-3.39-3.34-8.05-5.13-12.77-4.9-4.71.23-9.16 2.43-12.18 6.04-36.84 43.8-80.41 37.95-103.11 30.56-5.18-1.68-10.89-.79-15.27 2.4-4.45 3.23-7 8.25-7 13.77v23.13c-.52 3.72-2.9 7.58-7.07 7.58h-8.82c-.5 0-.99.01-1.48.04-.05-.84-.07-1.7-.07-2.56zm19 53.37a8.003 8.003 0 0 0-7.99-7.55h-9.47c-7.51 0-13.62-6.12-13.62-13.65 0-5.57 3.37-10.37 8.17-12.48l.36-.15c1.57-.64 3.29-.99 5.09-.99h8.82c11.98 0 21.67-9.37 23.04-22.27.03-.28.04-.56.04-.85v-23.61c0-.13 0-.53.4-.82s.78-.17.91-.13c26.53 8.64 77.44 15.51 120.33-35.49.18-.22.41-.33.68-.34.28-.02.55.09.76.3 11.19 11.06 29.87 22.89 43.4 27.5.46.16.68.47.68.96v31.63c0 12.75 10.37 23.12 23.12 23.12h8.82c1.8 0 3.52.36 5.1 1l.36.15c4.8 2.11 8.16 6.9 8.16 12.47 0 7.53-6.11 13.65-13.62 13.65H362c-4.25 0-7.76 3.32-8 7.56-1.78 31.46-18.29 58.79-42.6 75.44-.69.33-1.32.75-1.88 1.25-15.44 10.06-33.84 15.9-53.54 15.9a97.71 97.71 0 0 1-53.49-15.88c-.58-.53-1.25-.98-1.97-1.32-24.27-16.66-40.76-43.96-42.56-75.4zm98.03 108.62c17.86 0 35.21-4.17 50.87-12.02v19.49l-50.87 27.43-50.87-27.45v-19.42c15.35 7.67 32.63 11.97 50.87 11.97zm-67.64 20.15c.46-.87 1.22-1.26 1.77-1.43.51-.16 1.54-.33 2.64.27l.18.1c.24.15.49.28.74.4l47.8 25.79-35.73 28.36c-.49.39-1.01.37-1.28.33-.41-.07-.71-.26-.92-.59l-23.78-37zM63.81 486.68v-50.57c0-15.32 9.37-28.43 23.87-33.38l32.03-10.96v33.62c-11.97 3.48-20.75 14.54-20.75 27.61v26.5c0 4.42 3.58 8.01 8.01 8.01s8.01-3.58 8.01-8.01V453c0-7.03 5.72-12.74 12.74-12.74s12.74 5.72 12.74 12.74v26.5c0 4.42 3.58 8.01 8.01 8.01s8.01-3.58 8.01-8.01V453c0-13.08-8.78-24.14-20.75-27.61v-39.1l31.36-10.73 60.77 97.56 14.05 22.67H72.92c-5.02.01-9.11-4.08-9.11-9.11zm384.38 0c0 5.02-4.09 9.11-9.11 9.11H269.1l75.77-120.24 22.07 7.55v56.3c-10.15 3.37-17.49 12.95-17.49 24.23 0 14.06 11.44 25.5 25.5 25.5 14.08 0 25.53-11.44 25.53-25.5 0-11.28-7.35-20.86-17.52-24.23v-50.82l41.36 14.14c14.5 4.96 23.87 18.07 23.87 33.38zM230.67 237.89c18.45 11.97 34.41 12.06 50.25.29 3.55-2.64 8.57-1.9 11.2 1.65 2.64 3.55 1.9 8.57-1.65 11.2-10.73 7.98-21.9 11.97-33.42 11.97-11.38 0-23.11-3.89-35.1-11.68-3.71-2.41-4.77-7.37-2.36-11.08 2.41-3.7 7.37-4.76 11.08-2.35zm55.07-79.77c0-4.42 3.58-8.01 8.01-8.01h19.87c4.42 0 8.01 3.58 8.01 8.01s-3.58 8.01-8.01 8.01h-19.87c-4.43 0-8.01-3.59-8.01-8.01zm-67.48 8.01h-19.87c-4.42 0-8.01-3.58-8.01-8.01s3.58-8.01 8.01-8.01h19.87c4.42 0 8.01 3.58 8.01 8.01s-3.59 8.01-8.01 8.01zm-1.95 17.98v10.8c0 4.42-3.58 8.01-8.01 8.01s-8.01-3.58-8.01-8.01v-10.8c0-4.42 3.58-8.01 8.01-8.01s8.01 3.59 8.01 8.01zm95.39 0v10.8c0 4.42-3.58 8.01-8.01 8.01s-8.01-3.58-8.01-8.01v-10.8c0-4.42 3.58-8.01 8.01-8.01s8.01 3.59 8.01 8.01z" fill="#000000" data-original="#000000" class=""/>
  </g>
</svg>
