<?xml version="1.0" encoding="UTF-8"?>
<svg xmlns="http://www.w3.org/2000/svg" xmlns:xlink="http://www.w3.org/1999/xlink" version="1.1" width="512" height="512" x="0" y="0" viewBox="0 0 783.044 783.044" style="enable-background:new 0 0 512 512" xml:space="preserve" class="">
  <g>
    <path d="M751.123 715c-.5-3.4-1.301-6.6-2.4-9.7-7.9-30.399-26-85.8-34.199-110.6-.9-4.3-2.301-8.5-4.102-12.4v-.1c-5-10.8-13.199-19.8-23.299-25.8-.6-.4-1.9-1.101-3.6-2-.701-.301-1.4-.7-2.102-1-19.898-9.4-81-33.801-81-33.801-30.6-13.199-62.199-24.5-94.5-36-5.799 24-60.5 183.301-69.199 205.4l-6.9-148c2.301-3.5 3.9-7.5 5.701-11.3l22.799-45.101c-16.1 13.4-40.199 21.9-67.1 21.9-26.3 0-49.899-8.1-66-21l22.4 44.2c1.8 3.8 3.4 7.8 5.7 11.3l-6.9 148c-8.8-22.1-63.6-181.5-69.3-205.5-32.3 11.5-63.9 22.8-94.5 36 0 0-61.1 24.5-81 33.8-.7.3-1.4.601-2.1 1-1.7.8-3 1.5-3.6 2-10.1 6.101-18.3 15.101-23.3 25.9v.1c-1.8 3.9-3.2 8.101-4.1 12.4-8.2 24.8-26.3 80.1-34.2 110.6-1.1 3.101-1.9 6.4-2.4 9.7-.5 2.9-.7 6-.7 9 0 32.6 26.4 59 59 59h56.3c80.6 0 161.2.1 241.8 0h304.5c32.6 0 59-26.4 59-59 0-2.998-.299-6.098-.699-8.998zM545.523 209.5c0-10.4 2-48.2 2-56.9C547.623 68.3 479.222 0 394.921 0h-7c-84.3 0-152.7 68.4-152.7 152.7 0 8.7 2 46.4 2 56.9-3.7.2-37.9-8-34.2 32.9 7.8 86.8 40.9 70 41.9 70 16.3 52.3 41.6 85.7 66.4 107 38.7 33.2 76.2 36.8 76.899 36.8 1.101 0 2.101.101 3.2.101 1 0 2.101 0 3.201-.101.6 0 37.9-3.6 76.4-36.399 24.898-21.2 50.398-54.7 66.799-107.4 1 0 34.1 16.8 41.9-70 3.701-41.001-30.498-32.801-34.197-33.001z" fill="#111111" opacity="1" data-original="#000000" class=""/>
  </g>
</svg>
