<svg width="14" height="14" viewBox="0 0 14 14" fill="none" xmlns="http://www.w3.org/2000/svg">
<g clip-path="url(#clip0_1680_1785)">
<path d="M5.625 3.33301C5.625 2.90203 5.7962 2.48871 6.10095 2.18396C6.4057 1.87921 6.81902 1.70801 7.25 1.70801C7.68098 1.70801 8.0943 1.87921 8.39905 2.18396C8.7038 2.48871 8.875 2.90203 8.875 3.33301V6.04134C8.875 6.47232 8.7038 6.88564 8.39905 7.19039C8.0943 7.49514 7.68098 7.66634 7.25 7.66634C6.81902 7.66634 6.4057 7.49514 6.10095 7.19039C5.7962 6.88564 5.625 6.47232 5.625 6.04134V3.33301Z" stroke="#A14BF6" stroke-width="0.8125" stroke-linecap="round" stroke-linejoin="round"/>
<path d="M3.45898 6.04199C3.45898 7.0476 3.85846 8.01203 4.56954 8.7231C5.28061 9.43418 6.24504 9.83366 7.25065 9.83366C8.25626 9.83366 9.22069 9.43418 9.93176 8.7231C10.6428 8.01203 11.0423 7.0476 11.0423 6.04199" stroke="#A14BF6" stroke-width="0.8125" stroke-linecap="round" stroke-linejoin="round"/>
<path d="M5.08398 12H9.41732" stroke="#A14BF6" stroke-width="0.8125" stroke-linecap="round" stroke-linejoin="round"/>
<path d="M7.25 9.83301V11.9997" stroke="#A14BF6" stroke-width="0.8125" stroke-linecap="round" stroke-linejoin="round"/>
</g>
<defs>
<clipPath id="clip0_1680_1785">
<rect width="13" height="13" fill="white" transform="translate(0.75 0.625)"/>
</clipPath>
</defs>
</svg>
