<?xml version="1.0" encoding="UTF-8"?>
<svg xmlns="http://www.w3.org/2000/svg" xmlns:xlink="http://www.w3.org/1999/xlink" version="1.1" width="512" height="512" x="0" y="0" viewBox="0 0 512 512" style="enable-background:new 0 0 512 512" xml:space="preserve" class="">
  <g>
    <path d="M371.416 42.094h3.459M371.416 74.382h3.459M157.958 42.094h80.719M157.958 74.382h138.376M162.496 394h206.559M162.496 434h206.559M162.496 282h126.235M162.496 322h126.235M162.496 170h126.235M162.496 210h126.235M407.481 110.779V37.5c0-16.569-13.431-30-30-30H80.269c-16.569 0-30 13.431-30 30v73.279" style="stroke-width:15;stroke-linecap:round;stroke-linejoin:round;stroke-miterlimit:10;" fill="none" stroke="#000000" stroke-width="15" stroke-linecap="round" stroke-linejoin="round" stroke-miterlimit="10" data-original="#000000" opacity="1" class=""/>
    <circle cx="102.607" cy="58.238" r="18.45" style="stroke-width:15;stroke-linecap:round;stroke-linejoin:round;stroke-miterlimit:10;" fill="none" stroke="#000000" stroke-width="15" stroke-linecap="round" stroke-linejoin="round" stroke-miterlimit="10" data-original="#000000" opacity="1" class=""/>
    <path d="M120.696 434h-24a8 8 0 0 1-8-8v-24a8 8 0 0 1 8-8h24a8 8 0 0 1 8 8v24a8 8 0 0 1-8 8zM120.696 322h-24a8 8 0 0 1-8-8v-24a8 8 0 0 1 8-8h24a8 8 0 0 1 8 8v24a8 8 0 0 1-8 8zM120.696 210h-24a8 8 0 0 1-8-8v-24a8 8 0 0 1 8-8h24a8 8 0 0 1 8 8v24a8 8 0 0 1-8 8zM384.198 198.282l7.6 15.399a10 10 0 0 0 7.529 5.47l16.994 2.469c8.202 1.192 11.477 11.272 5.542 17.057l-12.297 11.987a10 10 0 0 0-2.876 8.851l2.903 16.925c1.401 8.169-7.173 14.399-14.509 10.542l-15.2-7.991a9.998 9.998 0 0 0-9.307 0l-15.2 7.991c-7.336 3.857-15.911-2.373-14.509-10.542l2.903-16.925a10 10 0 0 0-2.876-8.851l-12.297-11.987c-5.935-5.785-2.66-15.865 5.542-17.057l16.994-2.469a9.998 9.998 0 0 0 7.529-5.47l7.6-15.399c3.669-7.433 14.267-7.433 17.935 0z" style="stroke-width:15;stroke-linecap:round;stroke-linejoin:round;stroke-miterlimit:10;" fill="none" stroke="#000000" stroke-width="15" stroke-linecap="round" stroke-linejoin="round" stroke-miterlimit="10" data-original="#000000" opacity="1" class=""/>
    <path d="M461.731 216v-45.145c0-8.284-6.716-15-15-15h-143c-8.284 0-15 6.716-15 15v143c0 8.284 6.716 15 15 15h15.75v25.017c0 4.163 4.789 6.502 8.073 3.945l37.177-28.961h82c8.284 0 15-6.716 15-15V251M407.481 155.855v-45.076H180" style="stroke-width:15;stroke-linecap:round;stroke-linejoin:round;stroke-miterlimit:10;" fill="none" stroke="#000000" stroke-width="15" stroke-linecap="round" stroke-linejoin="round" stroke-miterlimit="10" data-original="#000000" opacity="1" class=""/>
    <path d="M50.269 431v43.5c0 16.569 13.431 30 30 30h297.212c16.568 0 30-13.431 30-30V328.855M145 110.779H50.269V396" style="stroke-width:15;stroke-linecap:round;stroke-linejoin:round;stroke-miterlimit:10;" fill="none" stroke="#000000" stroke-width="15" stroke-linecap="round" stroke-linejoin="round" stroke-miterlimit="10" data-original="#000000" opacity="1" class=""/>
  </g>
</svg>
