<svg width="1820" height="1664" viewBox="0 0 1820 1664" fill="none" xmlns="http://www.w3.org/2000/svg">
<path d="M996.893 266.82C992.52 267.523 988.052 267.354 983.745 266.325C979.437 265.295 975.375 263.424 971.793 260.82C680.633 50.1503 272.343 115.63 61.6331 406.8C59.0994 410.539 55.8405 413.73 52.0499 416.185C48.2592 418.64 44.014 420.308 39.5662 421.091C35.1185 421.874 30.5587 421.756 26.1576 420.743C21.7564 419.73 17.6036 417.844 13.9455 415.195C10.2874 412.547 7.19858 409.191 4.86235 405.326C2.52612 401.461 0.990069 397.166 0.345361 392.696C-0.299348 388.226 -0.0395795 383.672 1.10925 379.304C2.25808 374.937 4.27256 370.844 7.03315 367.27C239.513 46.0002 690.033 -26.2598 1011.32 206.22C1016.73 210.129 1020.85 215.552 1023.17 221.804C1025.49 228.056 1025.9 234.855 1024.36 241.342C1022.81 247.83 1019.38 253.713 1014.49 258.248C1009.6 262.783 1003.48 265.766 996.893 266.82Z" fill="#F5EEFD" fill-opacity="0.952941"/>
<path d="M913.284 382.37C908.91 383.072 904.44 382.903 900.131 381.874C895.822 380.844 891.759 378.974 888.174 376.37C778.174 296.78 643.564 264.83 509.174 286.37C374.784 307.91 256.854 380.37 177.264 490.37C174.732 494.108 171.476 497.3 167.687 499.756C163.898 502.212 159.655 503.882 155.209 504.667C150.763 505.452 146.204 505.336 141.804 504.327C137.403 503.317 133.25 501.434 129.591 498.789C125.932 496.144 122.841 492.791 120.502 488.929C118.163 485.067 116.624 480.774 115.975 476.306C115.326 471.838 115.581 467.285 116.725 462.917C117.869 458.55 119.879 454.456 122.634 450.88C212.784 326.3 346.264 244.24 498.494 219.88C650.724 195.52 803.174 231.67 927.754 321.82C933.153 325.73 937.271 331.153 939.589 337.403C941.907 343.653 942.321 350.45 940.778 356.934C939.235 363.419 935.804 369.301 930.92 373.837C926.035 378.374 919.916 381.36 913.334 382.42L913.284 382.37Z" fill="#F5EEFD" fill-opacity="0.952941"/>
<path d="M829.634 497.92C825.261 498.622 820.793 498.453 816.485 497.424C812.178 496.394 808.116 494.524 804.534 491.92C725.364 434.63 628.454 411.63 531.664 427.15C434.874 442.67 350.054 494.84 292.764 574C290.199 577.664 286.93 580.78 283.149 583.168C279.368 585.557 275.15 587.169 270.739 587.911C266.329 588.654 261.815 588.511 257.461 587.493C253.106 586.474 248.998 584.599 245.374 581.978C241.751 579.356 238.686 576.04 236.357 572.222C234.027 568.404 232.481 564.161 231.807 559.74C231.133 555.319 231.345 550.808 232.432 546.469C233.518 542.131 235.456 538.052 238.134 534.47C378.414 340.63 650.234 297.03 844.134 437.3C849.545 441.211 853.673 446.641 855.994 452.901C858.315 459.161 858.725 465.97 857.172 472.463C855.619 478.956 852.172 484.842 847.27 489.375C842.367 493.907 836.229 496.881 829.634 497.92Z" fill="#F5EEFD" fill-opacity="0.952941"/>
<path d="M746.051 613.47C741.678 614.173 737.209 614.005 732.902 612.975C728.594 611.945 724.533 610.074 720.951 607.47C672.819 572.734 612.876 558.504 554.267 567.902C495.659 577.299 443.169 609.557 408.311 657.6C405.745 661.263 402.477 664.38 398.696 666.768C394.915 669.156 390.696 670.769 386.286 671.511C381.876 672.253 377.362 672.111 373.008 671.092C368.653 670.074 364.545 668.199 360.921 665.577C357.298 662.955 354.233 659.639 351.903 655.821C349.574 652.004 348.028 647.761 347.354 643.34C346.68 638.918 346.892 634.407 347.978 630.069C349.065 625.731 351.003 621.652 353.681 618.07C399.026 555.542 467.325 513.557 543.591 501.328C619.856 489.099 697.858 507.625 760.481 552.84C765.884 556.748 770.007 562.171 772.327 568.423C774.647 574.675 775.062 581.475 773.517 587.962C771.972 594.449 768.538 600.333 763.649 604.868C758.76 609.403 752.635 612.386 746.051 613.44V613.47Z" fill="#F5EEFD" fill-opacity="0.952941"/>
<path d="M671.942 849.2C719.668 801.474 719.668 724.095 671.942 676.369C624.216 628.643 546.837 628.643 499.111 676.369C451.385 724.095 451.385 801.474 499.111 849.2C546.837 896.926 624.216 896.926 671.942 849.2Z" fill="#915FD8"/>
<path d="M614.045 758.21L654.915 787.78L630.965 820.89L590.095 791.32L560.525 832.18L527.415 808.23L556.995 767.36L516.125 737.83L540.075 704.68L580.945 734.26L610.515 693.39L643.625 717.38L614.045 758.21Z" fill="white"/>
<path d="M458.912 0L390.602 226.32L483.252 304.87L435.202 404.64L583.912 632.98L525.592 394.15L606.262 273.13L532.072 184.95L662.802 12.23L458.912 0Z" fill="#915FD8"/>
<path d="M1016.19 774.94L1035.15 976.13L858.676 982.61L843.406 824.86L847.276 757.57L1016.19 774.94Z" fill="white"/>
<path d="M858.63 985.78C857.841 985.78 857.081 985.486 856.498 984.955C855.915 984.424 855.552 983.695 855.48 982.909L840.25 825.169C840.24 825.006 840.24 824.843 840.25 824.679L844.12 757.389C844.143 756.963 844.252 756.545 844.441 756.162C844.63 755.778 844.895 755.437 845.22 755.159C845.547 754.884 845.926 754.676 846.335 754.549C846.744 754.422 847.174 754.378 847.6 754.419L1016.52 771.789C1017.25 771.865 1017.93 772.19 1018.44 772.709C1018.96 773.229 1019.28 773.911 1019.35 774.639L1038.35 975.84C1038.39 976.266 1038.34 976.695 1038.21 977.103C1038.08 977.51 1037.87 977.887 1037.59 978.21C1037.31 978.533 1036.97 978.796 1036.58 978.984C1036.2 979.171 1035.78 979.278 1035.35 979.299L858.88 985.77L858.63 985.78ZM846.63 824.799L861.63 979.329L1031.77 973.09L1013.36 777.83L850.36 761.059L846.63 824.799Z" fill="black"/>
<path d="M987.631 854.81C1023.79 864.75 1152.69 887.69 1142.48 758.89C1148.96 755.48 1164.08 751.64 1165.53 746.09C1166.98 740.54 1156.64 714.29 1153.05 696.71C1149.33 616.3 1120.05 519.78 1054.37 512.47C906.381 496 850.631 587.91 837.981 622.73C825.331 657.55 830.191 791.73 830.191 791.73" fill="white"/>
<path d="M1046.93 866.1C1026.63 865.902 1006.43 863.136 986.812 857.87C986.399 857.771 986.011 857.589 985.669 857.337C985.328 857.084 985.04 856.765 984.824 856.399C984.609 856.033 984.468 855.628 984.412 855.207C984.356 854.786 984.385 854.358 984.498 853.948C984.611 853.538 984.805 853.155 985.068 852.822C985.331 852.489 985.659 852.212 986.032 852.008C986.404 851.804 986.814 851.677 987.237 851.634C987.66 851.592 988.087 851.635 988.492 851.76C1002.41 855.58 1073.9 873.02 1113.49 840.3C1133.6 823.67 1142.3 796.37 1139.36 759.14C1139.32 758.531 1139.46 757.924 1139.76 757.392C1140.06 756.859 1140.5 756.425 1141.04 756.14C1143.56 754.904 1146.15 753.8 1148.78 752.83C1153.36 751.03 1161.88 747.69 1162.5 745.34C1163.12 742.99 1159.5 731.25 1156.92 722.71C1154.4 714.44 1151.54 705.06 1149.92 697.4C1149.89 697.238 1149.87 697.075 1149.86 696.91C1145.92 611.57 1114.75 522.43 1054 515.66C891.752 497.56 845.642 610.88 840.922 623.86C828.602 657.74 833.272 790.31 833.322 791.65C833.337 792.065 833.27 792.479 833.124 792.868C832.979 793.257 832.758 793.614 832.475 793.917C832.192 794.221 831.852 794.466 831.474 794.638C831.096 794.81 830.687 794.906 830.272 794.92C829.857 794.95 829.441 794.895 829.048 794.759C828.655 794.622 828.294 794.407 827.987 794.126C827.68 793.845 827.433 793.505 827.262 793.126C827.091 792.746 826.999 792.336 826.992 791.92C826.792 786.42 822.232 656.77 834.992 621.75C839.882 608.29 887.662 490.83 1054.72 509.42C1119.13 516.59 1152.08 608.42 1156.2 696.42C1157.72 703.75 1160.49 712.86 1162.95 720.91C1167.23 734.98 1169.61 743.13 1168.6 747C1167.16 752.46 1158.98 755.67 1151.06 758.77C1149.16 759.52 1147.33 760.24 1145.8 760.91C1148.41 799.22 1138.89 827.6 1117.49 845.29C1097.9 861.4 1071.24 866.1 1046.93 866.1Z" fill="black"/>
<path d="M1133.86 668.33C1128.81 665.966 1123.14 665.265 1117.67 666.33C1112.41 667.367 1107.67 670.194 1104.27 674.33" fill="white"/>
<path d="M1104.27 677.49C1103.67 677.489 1103.09 677.32 1102.58 677.001C1102.08 676.683 1101.67 676.229 1101.41 675.691C1101.16 675.153 1101.05 674.553 1101.12 673.96C1101.19 673.368 1101.42 672.806 1101.8 672.34C1105.66 667.612 1111.05 664.383 1117.04 663.21C1123.18 662.011 1129.54 662.799 1135.21 665.46C1135.97 665.818 1136.55 666.464 1136.84 667.255C1137.12 668.047 1137.08 668.919 1136.73 669.68C1136.37 670.441 1135.72 671.029 1134.93 671.314C1134.14 671.599 1133.27 671.558 1132.51 671.2C1128.07 669.121 1123.1 668.498 1118.29 669.42C1113.75 670.304 1109.67 672.741 1106.74 676.31C1106.44 676.679 1106.06 676.976 1105.63 677.181C1105.21 677.385 1104.74 677.491 1104.27 677.49Z" fill="black"/>
<path d="M1120.07 711.9C1114.2 711.77 1109.61 704.9 1109.79 696.49C1109.97 688.08 1114.86 681.36 1120.72 681.49C1126.58 681.62 1131.18 688.49 1131 696.91C1130.82 705.33 1125.89 712.05 1120.07 711.9Z" fill="black"/>
<path d="M842.787 876.42C842.787 876.42 872.167 884.42 908.267 865.8C943.207 847.8 971.007 773.95 971.007 773.95C971.007 773.95 935.907 688.26 971.207 681.08C1006.51 673.9 1020.21 710.41 1020.21 710.41C1020.21 710.41 1061.73 740.41 1052.12 617C1052.12 617 1152.5 636.7 1194.12 589.39C1240.12 537.09 1231.5 444.17 1164.12 433.39C1096.74 422.61 1066.64 476.12 1066.64 476.12C1066.64 476.12 1039.38 376.18 979.717 402.18C920.057 428.18 926.287 492.51 926.287 492.51C926.287 492.51 844.287 453.76 778.097 537.51C711.907 621.26 842.787 876.42 842.787 876.42Z" fill="black"/>
<path d="M1014.22 698.67C1014.22 698.67 963.902 641.67 934.662 688.67C905.422 735.67 943.262 782.04 996.362 782.39" fill="white"/>
<path d="M996.361 785.55C966.761 785.35 940.721 771.35 928.361 749C917.761 729.77 919.031 707.74 931.951 687C939.581 674.74 949.331 668 960.951 667.07C988.221 664.79 1015.45 695.29 1016.6 696.59C1016.88 696.902 1017.09 697.265 1017.22 697.659C1017.36 698.052 1017.42 698.469 1017.39 698.884C1017.37 699.3 1017.26 699.706 1017.08 700.08C1016.89 700.455 1016.64 700.789 1016.33 701.065C1016.01 701.341 1015.65 701.552 1015.26 701.688C1014.86 701.823 1014.45 701.88 1014.03 701.854C1013.62 701.829 1013.21 701.722 1012.84 701.539C1012.46 701.356 1012.13 701.102 1011.85 700.79C1011.59 700.49 985.511 671.36 961.471 673.38C951.981 674.17 943.871 679.88 937.361 690.38C925.711 709.11 924.491 728.86 933.941 745.99C945.151 766.33 969.081 779.08 996.391 779.26C997.232 779.26 998.038 779.594 998.633 780.188C999.227 780.783 999.561 781.589 999.561 782.43C999.561 783.271 999.227 784.077 998.633 784.671C998.038 785.266 997.232 785.6 996.391 785.6L996.361 785.55Z" fill="black"/>
<path d="M979.293 705.11C975.346 707.056 971.96 709.975 969.453 713.592C966.946 717.209 965.401 721.404 964.964 725.783C964.527 730.162 965.212 734.58 966.954 738.621C968.697 742.662 971.439 746.192 974.923 748.88" fill="white"/>
<path d="M974.922 752.05C974.223 752.054 973.542 751.822 972.992 751.39C969.082 748.373 966.005 744.411 964.049 739.876C962.094 735.342 961.325 730.384 961.816 725.47C962.306 720.556 964.039 715.848 966.851 711.789C969.664 707.73 973.463 704.454 977.892 702.27C978.267 702.062 978.681 701.932 979.108 701.888C979.535 701.845 979.966 701.889 980.376 702.017C980.785 702.145 981.165 702.355 981.491 702.634C981.817 702.913 982.083 703.256 982.272 703.64C982.462 704.025 982.572 704.445 982.594 704.873C982.617 705.302 982.553 705.731 982.405 706.133C982.257 706.536 982.029 706.905 981.735 707.217C981.44 707.529 981.086 707.779 980.692 707.95C977.228 709.658 974.255 712.22 972.055 715.395C969.855 718.57 968.499 722.253 968.116 726.097C967.733 729.941 968.335 733.819 969.865 737.365C971.395 740.912 973.803 744.011 976.862 746.37C977.386 746.774 977.771 747.332 977.961 747.966C978.152 748.6 978.14 749.278 977.926 749.904C977.712 750.531 977.307 751.074 976.768 751.459C976.23 751.844 975.584 752.05 974.922 752.05Z" fill="black"/>
<path d="M786.27 967.57C786.27 967.57 639.91 950.93 564.71 1023.44C506.71 1079.36 337.36 1387.38 406.87 1489.64C486.87 1607.33 939.59 1480.29 937.87 1475C936.15 1469.71 892.78 1301.68 892.78 1301.68L595.16 1333.1L794.51 1066.7L786.27 967.57Z" fill="#915FD8"/>
<path d="M1240.63 1603.13C1230.32 1698.41 609.684 1673.04 619.994 1577.76C619.994 1577.76 631.054 1305.91 639.654 1094.46C641.056 1060.89 655.16 1029.11 679.11 1005.55C703.061 981.991 735.069 968.41 768.654 967.56L1074.31 967.61C1140.38 965.86 1197.93 1012.97 1208.63 1078.16C1238.23 1258.2 1245.1 1477.63 1240.63 1603.13Z" fill="#915FD8"/>
<path d="M620.003 1580.93H619.833C619.417 1580.91 619.009 1580.81 618.633 1580.63C618.256 1580.45 617.919 1580.2 617.64 1579.89C617.362 1579.58 617.147 1579.22 617.008 1578.83C616.87 1578.43 616.81 1578.02 616.833 1577.6C616.943 1575.6 627.983 1370.92 636.493 1161.91C636.508 1161.5 636.606 1161.09 636.78 1160.71C636.955 1160.34 637.202 1160 637.509 1159.72C637.815 1159.44 638.174 1159.23 638.564 1159.09C638.955 1158.95 639.369 1158.89 639.783 1158.91C640.617 1158.95 641.4 1159.33 641.961 1159.94C642.523 1160.56 642.818 1161.38 642.783 1162.21C634.273 1371.21 623.223 1575.94 623.113 1577.98C623.058 1578.77 622.708 1579.51 622.132 1580.06C621.556 1580.61 620.796 1580.92 620.003 1580.93Z" fill="black"/>
<path d="M1813.68 553.86L1682.93 957.25C1680.94 963.414 1677.74 969.123 1673.54 974.052C1669.33 978.981 1664.19 983.034 1658.42 985.977C1652.65 988.921 1646.35 990.699 1639.89 991.209C1633.43 991.719 1626.94 990.951 1620.77 988.95L1405.77 919.25C1393.32 915.215 1382.99 906.399 1377.04 894.741C1371.09 883.084 1370.01 869.541 1374.04 857.09L1504.82 453.73C1506.82 447.567 1510.01 441.857 1514.21 436.926C1518.41 431.996 1523.54 427.941 1529.31 424.995C1535.08 422.048 1541.37 420.267 1547.83 419.753C1554.29 419.239 1560.78 420.003 1566.94 422L1781.94 491.73C1788.11 493.723 1793.82 496.911 1798.75 501.113C1803.69 505.315 1807.74 510.447 1810.69 516.217C1813.64 521.987 1815.42 528.282 1815.93 534.741C1816.45 541.2 1815.68 547.697 1813.68 553.86Z" fill="black"/>
<path d="M1635.97 994.53C1630.47 994.527 1625.02 993.66 1619.8 991.96L1404.8 922.27C1391.55 917.96 1380.56 908.575 1374.23 896.173C1367.9 883.77 1366.74 869.363 1371.02 856.11L1501.81 452.76C1503.93 446.201 1507.32 440.124 1511.8 434.877C1516.27 429.63 1521.73 425.316 1527.87 422.181C1534.01 419.045 1540.71 417.151 1547.58 416.605C1554.45 416.059 1561.37 416.873 1567.93 419L1782.93 488.74C1789.48 490.864 1795.56 494.259 1800.8 498.732C1806.05 503.204 1810.36 508.666 1813.49 514.805C1816.62 520.944 1818.52 527.641 1819.06 534.512C1819.61 541.383 1818.79 548.294 1816.67 554.85L1685.91 958.25C1682.47 968.789 1675.79 977.972 1666.82 984.488C1657.85 991.003 1647.05 994.518 1635.97 994.53ZM1551.69 422.74C1541.94 422.767 1532.44 425.877 1524.57 431.624C1516.69 437.372 1510.83 445.463 1507.84 454.74L1377.05 858.07C1373.28 869.723 1374.3 882.392 1379.86 893.298C1385.43 904.203 1395.1 912.454 1406.75 916.24L1621.75 985.94C1633.39 989.701 1646.06 988.69 1656.96 983.128C1667.87 977.566 1676.12 967.908 1679.92 956.27L1810.64 552.88C1812.51 547.115 1813.22 541.037 1812.74 534.995C1812.26 528.952 1810.6 523.063 1807.84 517.664C1805.09 512.265 1801.3 507.462 1796.68 503.529C1792.07 499.595 1786.73 496.609 1780.97 494.74L1565.97 425.01C1561.35 423.508 1556.53 422.742 1551.69 422.74Z" fill="black"/>
<path d="M1791.08 546.53L1660.33 949.92C1658.33 956.084 1655.13 961.793 1650.93 966.722C1646.72 971.651 1641.58 975.704 1635.81 978.647C1630.04 981.591 1623.74 983.369 1617.28 983.879C1610.82 984.389 1604.33 983.621 1598.17 981.62L1383.17 911.92C1370.71 907.885 1360.38 899.069 1354.43 887.411C1348.48 875.754 1347.4 862.211 1351.44 849.76L1482.21 446.4C1486.24 433.955 1495.05 423.621 1506.7 417.671C1518.35 411.721 1531.89 410.642 1544.34 414.67L1759.34 484.4C1765.5 486.389 1771.22 489.576 1776.15 493.777C1781.09 497.978 1785.14 503.11 1788.09 508.881C1791.04 514.653 1792.82 520.948 1793.33 527.409C1793.85 533.869 1793.08 540.367 1791.08 546.53Z" fill="white"/>
<path d="M1613.45 987.22C1607.92 987.214 1602.43 986.34 1597.18 984.63L1382.18 914.93C1375.62 912.805 1369.54 909.408 1364.29 904.933C1359.04 900.459 1354.73 894.994 1351.59 888.851C1348.45 882.709 1346.56 876.009 1346.01 869.133C1345.46 862.258 1346.27 855.342 1348.4 848.78L1479.19 445.43C1483.48 432.184 1492.86 421.184 1505.26 414.849C1517.65 408.515 1532.06 407.364 1545.31 411.65L1760.31 481.39C1766.87 483.512 1772.94 486.906 1778.19 491.377C1783.44 495.849 1787.75 501.311 1790.88 507.451C1794.02 513.591 1795.91 520.289 1796.45 527.161C1797 534.033 1796.18 540.944 1794.05 547.5L1663.33 950.89C1659.91 961.43 1653.24 970.618 1644.28 977.142C1635.32 983.666 1624.53 987.194 1613.45 987.22ZM1529.08 415.41C1519.33 415.438 1509.84 418.548 1501.96 424.295C1494.08 430.043 1488.22 438.133 1485.22 447.41L1354.43 850.74C1352.56 856.51 1351.85 862.591 1352.33 868.637C1352.81 874.683 1354.47 880.575 1357.23 885.977C1359.99 891.379 1363.78 896.184 1368.4 900.119C1373.01 904.054 1378.36 907.041 1384.13 908.91L1599.13 978.61C1610.78 982.388 1623.45 981.384 1634.36 975.82C1645.27 970.256 1653.52 960.588 1657.3 948.94L1788.05 545.55C1789.92 539.785 1790.64 533.708 1790.16 527.665C1789.68 521.623 1788.02 515.734 1785.26 510.335C1782.51 504.936 1778.72 500.133 1774.1 496.202C1769.49 492.27 1764.15 489.286 1758.38 487.42L1543.38 417.69C1538.76 416.182 1533.94 415.413 1529.08 415.41Z" fill="black"/>
<path d="M1666.54 978.27L1572.4 1081L1570.22 1083.35L1374.06 1008.09L1375.06 1004.04L1375.34 998.34L1399.93 917.34L1554.84 967.54L1594.18 932.1L1583.53 912C1581.31 907.595 1579.97 902.793 1579.6 897.87C1579.22 892.948 1579.83 888 1581.37 883.309C1582.91 878.619 1585.36 874.278 1588.57 870.535C1591.79 866.791 1595.72 863.718 1600.12 861.49C1604.53 859.263 1609.33 857.926 1614.25 857.554C1619.18 857.182 1624.12 857.784 1628.81 859.324C1633.5 860.865 1637.84 863.314 1641.59 866.532C1645.33 869.751 1648.41 873.675 1650.63 878.08L1675.34 929.21C1679.24 937.271 1680.48 946.357 1678.9 955.168C1677.32 963.98 1673 972.066 1666.54 978.27Z" fill="white"/>
<path d="M1570.22 1086.5C1569.84 1086.5 1569.46 1086.43 1569.09 1086.29L1372.93 1011C1372.21 1010.73 1371.6 1010.21 1371.23 1009.53C1370.86 1008.85 1370.76 1008.05 1370.93 1007.3L1371.83 1003.54L1372.09 998.13C1372.11 997.873 1372.15 997.618 1372.22 997.37L1396.81 916.37C1396.94 915.968 1397.14 915.594 1397.41 915.27C1397.67 914.947 1398 914.68 1398.38 914.485C1398.75 914.291 1399.16 914.172 1399.57 914.137C1399.99 914.102 1400.42 914.151 1400.81 914.28L1554.04 964L1590.2 931.44L1580.73 913.5C1577.46 907.293 1575.85 900.346 1576.05 893.332C1576.24 886.318 1578.25 879.474 1581.87 873.463C1585.49 867.452 1590.61 862.478 1596.71 859.023C1602.82 855.567 1609.72 853.748 1616.73 853.74C1624.4 853.758 1631.9 855.923 1638.39 859.988C1644.89 864.053 1650.11 869.857 1653.47 876.74L1678.19 927.87C1682.39 936.511 1683.75 946.259 1682.06 955.718C1680.38 965.176 1675.75 973.858 1668.82 980.52L1572.56 1085.52C1572.26 1085.83 1571.9 1086.08 1571.5 1086.25C1571.09 1086.42 1570.66 1086.51 1570.22 1086.5ZM1377.79 1006.1L1569.36 1079.61L1570.08 1078.83L1664.21 976.12L1664.35 975.98C1670.34 970.246 1674.34 962.763 1675.8 954.607C1677.26 946.451 1676.1 938.042 1672.47 930.59L1647.75 879.46C1644.92 873.653 1640.51 868.756 1635.03 865.326C1629.55 861.895 1623.22 860.068 1616.75 860.05C1610.83 860.065 1605.01 861.607 1599.86 864.528C1594.71 867.449 1590.4 871.65 1587.34 876.724C1584.29 881.798 1582.59 887.575 1582.42 893.495C1582.25 899.416 1583.62 905.28 1586.37 910.52L1596.98 930.63C1597.32 931.255 1597.43 931.971 1597.31 932.667C1597.18 933.363 1596.83 933.997 1596.3 934.47L1556.93 969.9C1556.52 970.273 1556.02 970.53 1555.47 970.646C1554.93 970.761 1554.36 970.732 1553.83 970.56L1401.99 921.36L1378.45 998.86L1378.19 1004.18C1378.18 1004.38 1378.16 1004.57 1378.11 1004.76L1377.79 1006.1Z" fill="black"/>
<path d="M1601.89 1085.23L1494.37 1480.78L1281.27 1353.9L1353.86 989.9L1601.89 1085.23Z" fill="#915FD8"/>
<path d="M1047.95 968L1191.24 970.66C1222 971.231 1251.81 981.427 1276.47 999.814C1301.13 1018.2 1319.41 1043.86 1328.74 1073.17L1492.82 1419.68C1496.81 1437.16 1497.21 1455.26 1493.99 1472.89C1490.77 1490.52 1484.01 1507.32 1474.1 1522.26C1464.2 1537.2 1451.36 1549.97 1436.37 1559.8C1421.38 1569.63 1404.55 1576.31 1386.9 1579.44C1354.34 1585.22 1320.8 1578.59 1292.88 1560.87C1264.96 1543.15 1244.68 1515.62 1236.04 1483.7L1047.95 968Z" fill="#915FD8"/>
<path d="M1492.83 1422.4C1492.23 1422.4 1491.64 1422.23 1491.13 1421.91C1490.63 1421.59 1490.22 1421.13 1489.96 1420.59L1325.88 1074.09C1325.52 1073.33 1325.48 1072.46 1325.76 1071.67C1326.04 1070.88 1326.63 1070.23 1327.39 1069.88C1328.15 1069.52 1329.02 1069.47 1329.81 1069.75C1330.6 1070.04 1331.24 1070.62 1331.6 1071.38L1495.69 1417.88C1496.05 1418.64 1496.09 1419.51 1495.81 1420.3C1495.53 1421.09 1494.94 1421.74 1494.18 1422.1C1493.76 1422.3 1493.3 1422.4 1492.83 1422.4Z" fill="black"/>
<path d="M1240.63 1500.37C1239.99 1500.38 1239.35 1500.2 1238.82 1499.84C1238.28 1499.48 1237.87 1498.97 1237.63 1498.37C1235.83 1493.77 1234.28 1489.08 1232.98 1484.31L1095.51 1155.57C1095.33 1155.18 1095.22 1154.76 1095.21 1154.33C1095.19 1153.91 1095.26 1153.48 1095.41 1153.08C1095.56 1152.68 1095.8 1152.31 1096.1 1152C1096.39 1151.7 1096.75 1151.45 1097.15 1151.29C1097.54 1151.12 1097.97 1151.04 1098.4 1151.04C1098.82 1151.04 1099.25 1151.13 1099.64 1151.3C1100.03 1151.48 1100.39 1151.72 1100.68 1152.04C1100.98 1152.35 1101.2 1152.72 1101.35 1153.12L1238.9 1482.06C1238.95 1482.19 1239 1482.32 1239.04 1482.45C1240.32 1487.05 1241.85 1491.57 1243.63 1496C1243.82 1496.49 1243.89 1497.01 1243.83 1497.53C1243.77 1498.04 1243.58 1498.54 1243.29 1498.97C1242.99 1499.39 1242.59 1499.74 1242.13 1499.98C1241.67 1500.22 1241.15 1500.34 1240.63 1500.33V1500.37Z" fill="black"/>
<path d="M1104.87 795.75C1104.38 795.749 1103.9 795.638 1103.47 795.425C1103.03 795.212 1102.65 794.902 1102.36 794.52C1094.19 784.021 1082.28 777.087 1069.12 775.17C1068.31 775.017 1067.6 774.562 1067.13 773.899C1066.66 773.237 1066.46 772.417 1066.57 771.61C1066.69 770.804 1067.11 770.072 1067.75 769.567C1068.38 769.063 1069.19 768.824 1070.01 768.9C1084.8 771.053 1098.18 778.843 1107.37 790.64C1107.73 791.108 1107.95 791.668 1108.01 792.257C1108.07 792.847 1107.97 793.441 1107.71 793.973C1107.45 794.505 1107.04 794.953 1106.54 795.267C1106.04 795.581 1105.46 795.748 1104.87 795.75Z" fill="black"/>
<path d="M1582.38 746.54L1639.54 597.63C1642.73 589.322 1643.1 580.199 1640.61 571.657C1638.12 563.114 1632.9 555.623 1625.75 550.33C1620.29 546.282 1613.9 543.666 1607.17 542.72C1600.44 541.774 1593.58 542.529 1587.22 544.916C1580.86 547.302 1575.19 551.244 1570.74 556.382C1566.29 561.52 1563.2 567.69 1561.75 574.33L1527.75 730.17C1526.39 736.384 1527.15 742.873 1529.9 748.609C1532.65 754.346 1537.23 759.002 1542.92 761.84C1546.49 763.623 1550.38 764.64 1554.36 764.827C1558.35 765.014 1562.32 764.367 1566.04 762.926C1569.75 761.485 1573.13 759.283 1575.94 756.461C1578.76 753.639 1580.95 750.26 1582.38 746.54Z" fill="#915FD8"/>
<path d="M1532.68 853.975C1553.3 852.609 1568.91 834.785 1567.55 814.164C1566.18 793.542 1548.36 777.933 1527.74 779.299C1507.12 780.665 1491.51 798.489 1492.87 819.111C1494.24 839.732 1512.06 855.341 1532.68 853.975Z" fill="#915FD8"/>
</svg>
