<svg width="25" height="26" viewBox="0 0 25 26" fill="none" xmlns="http://www.w3.org/2000/svg">
<g clip-path="url(#clip0_673_17706)">
<path d="M10.6175 5.93241C10.6175 5.39685 10.8303 4.88323 11.209 4.50453C11.5877 4.12584 12.1013 3.91309 12.6369 3.91309C13.1724 3.91309 13.686 4.12584 14.0647 4.50453C14.4434 4.88323 14.6562 5.39685 14.6562 5.93241C15.8157 6.48068 16.8041 7.33415 17.5156 8.40134C18.2271 9.46852 18.6347 10.7092 18.6948 11.9904V15.0194C18.7708 15.6471 18.9931 16.2482 19.3439 16.7743C19.6946 17.3004 20.164 17.7368 20.7142 18.0484H4.55957C5.10977 17.7368 5.57914 17.3004 5.92987 16.7743C6.2806 16.2482 6.50291 15.6471 6.57889 15.0194V11.9904C6.63903 10.7092 7.04667 9.46852 7.75813 8.40134C8.46959 7.33415 9.45804 6.48068 10.6175 5.93241Z" stroke="black" stroke-width="1.51449" stroke-linecap="round" stroke-linejoin="round"/>
<path d="M9.60742 18.0483V19.058C9.60742 19.8613 9.92655 20.6318 10.4946 21.1998C11.0626 21.7679 11.8331 22.087 12.6364 22.087C13.4397 22.087 14.2102 21.7679 14.7782 21.1998C15.3463 20.6318 15.6654 19.8613 15.6654 19.058V18.0483" stroke="black" stroke-width="1.51449" stroke-linecap="round" stroke-linejoin="round"/>
</g>
<defs>
<clipPath id="clip0_673_17706">
<rect width="24.2319" height="24.2319" fill="white" transform="translate(0.520508 0.884033)"/>
</clipPath>
</defs>
</svg>
