<svg width="25" height="25" viewBox="0 0 25 25" fill="none" xmlns="http://www.w3.org/2000/svg">
<g clip-path="url(#clip0_186_3719)">
<path d="M10.097 5.04862C10.097 4.51306 10.3098 3.99944 10.6885 3.62074C11.0672 3.24205 11.5808 3.0293 12.1164 3.0293C12.6519 3.0293 13.1655 3.24205 13.5442 3.62074C13.9229 3.99944 14.1357 4.51306 14.1357 5.04862C15.2952 5.59689 16.2836 6.45036 16.9951 7.51755C17.7066 8.58473 18.1142 9.8254 18.1743 11.1066V14.1356C18.2503 14.7633 18.4726 15.3644 18.8234 15.8905C19.1741 16.4166 19.6434 16.853 20.1937 17.1646H4.03906C4.58927 16.853 5.05863 16.4166 5.40936 15.8905C5.7601 15.3644 5.9824 14.7633 6.05839 14.1356V11.1066C6.11852 9.8254 6.52616 8.58473 7.23762 7.51755C7.94908 6.45036 8.93753 5.59689 10.097 5.04862Z" fill="#915FD8"/>
<path d="M9.08789 17.1641V18.1737C9.08789 18.9771 9.40701 19.7475 9.97506 20.3155C10.5431 20.8836 11.3135 21.2027 12.1169 21.2027C12.9202 21.2027 13.6906 20.8836 14.2587 20.3155C14.8267 19.7475 15.1459 18.9771 15.1459 18.1737V17.1641" stroke="#915FD8" stroke-width="1.51449" stroke-linecap="round" stroke-linejoin="round"/>
</g>
<defs>
<clipPath id="clip0_186_3719">
<rect width="24.2319" height="24.2319" fill="white"/>
</clipPath>
</defs>
</svg>
