<svg width="20" height="21" viewBox="0 0 20 21" fill="none" xmlns="http://www.w3.org/2000/svg">
<g clip-path="url(#clip0_212_11697)">
<path d="M10 14.6666V18" stroke="#777777" stroke-width="1.125" stroke-linecap="round" stroke-linejoin="round"/>
<path d="M8.3335 17.1667L11.6668 15.5" stroke="#777777" stroke-width="1.125" stroke-linecap="round" stroke-linejoin="round"/>
<path d="M8.3335 15.5L11.6668 17.1667" stroke="#777777" stroke-width="1.125" stroke-linecap="round" stroke-linejoin="round"/>
<path d="M4.1665 14.6666V18" stroke="#777777" stroke-width="1.125" stroke-linecap="round" stroke-linejoin="round"/>
<path d="M2.5 17.1667L5.83333 15.5" stroke="#777777" stroke-width="1.125" stroke-linecap="round" stroke-linejoin="round"/>
<path d="M2.5 15.5L5.83333 17.1667" stroke="#777777" stroke-width="1.125" stroke-linecap="round" stroke-linejoin="round"/>
<path d="M15.8335 14.6666V18" stroke="#777777" stroke-width="1.125" stroke-linecap="round" stroke-linejoin="round"/>
<path d="M14.1665 17.1667L17.4998 15.5" stroke="#777777" stroke-width="1.125" stroke-linecap="round" stroke-linejoin="round"/>
<path d="M14.1665 15.5L17.4998 17.1667" stroke="#777777" stroke-width="1.125" stroke-linecap="round" stroke-linejoin="round"/>
<path d="M5.8335 12.1667V5.50004C5.8335 5.05801 6.00909 4.63409 6.32165 4.32153C6.63421 4.00897 7.05814 3.83337 7.50016 3.83337H12.5002C12.9422 3.83337 13.3661 4.00897 13.6787 4.32153C13.9912 4.63409 14.1668 5.05801 14.1668 5.50004V12.1667" stroke="#777777" stroke-width="1.125" stroke-linecap="round" stroke-linejoin="round"/>
<path d="M9.1665 4.66663H10.8332" stroke="#777777" stroke-width="1.125" stroke-linecap="round" stroke-linejoin="round"/>
<path d="M10 14.6666V14.6741" stroke="#777777" stroke-width="1.125" stroke-linecap="round" stroke-linejoin="round"/>
</g>
<defs>
<clipPath id="clip0_212_11697">
<rect width="20" height="20" fill="white" transform="translate(0 0.5)"/>
</clipPath>
</defs>
</svg>
