<svg width="24" height="25" viewBox="0 0 24 25" fill="none" xmlns="http://www.w3.org/2000/svg">
<g clip-path="url(#clip0_708_2753)">
<path d="M12 19L9 17.5L3 20.5V7.5L9 4.5L15 7.5L21 4.5V11.5" stroke="#915FD8" stroke-width="1.6" stroke-linecap="round" stroke-linejoin="round"/>
<path d="M9 4.5V17.5" stroke="#915FD8" stroke-width="1.6" stroke-linecap="round" stroke-linejoin="round"/>
<path d="M15 7.5V12.5" stroke="#915FD8" stroke-width="1.6" stroke-linecap="round" stroke-linejoin="round"/>
<path d="M21.121 20.6212C21.5406 20.2016 21.8265 19.6671 21.9423 19.0851C22.0581 18.5031 21.9988 17.8999 21.7717 17.3517C21.5447 16.8034 21.1602 16.3349 20.6668 16.0052C20.1734 15.6755 19.5934 15.4995 19 15.4995C18.4066 15.4995 17.8266 15.6755 17.3332 16.0052C16.8398 16.3349 16.4553 16.8034 16.2283 17.3517C16.0012 17.8999 15.9419 18.5031 16.0577 19.0851C16.1735 19.6671 16.4594 20.2016 16.879 20.6212C17.297 21.0402 18.004 21.6662 19 22.5002C20.051 21.6102 20.759 20.9842 21.121 20.6212Z" stroke="#915FD8" stroke-width="1.6" stroke-linecap="round" stroke-linejoin="round"/>
<path d="M19 18.5V18.51" stroke="#915FD8" stroke-width="1.6" stroke-linecap="round" stroke-linejoin="round"/>
</g>
<defs>
<clipPath id="clip0_708_2753">
<rect width="24" height="24" fill="white" transform="translate(0 0.5)"/>
</clipPath>
</defs>
</svg>
