<svg width="20" height="20" viewBox="0 0 20 20" fill="none" xmlns="http://www.w3.org/2000/svg">
<path d="M16.875 2.5H16.25V1.875C16.25 1.52954 15.9702 1.25 15.625 1.25C15.2798 1.25 15 1.52954 15 1.875V2.5H10.625V1.875C10.625 1.52954 10.3452 1.25 10 1.25C9.65485 1.25 9.375 1.52954 9.375 1.875V2.5H5V1.875C5 1.52954 4.72015 1.25 4.375 1.25C4.02985 1.25 3.75 1.52954 3.75 1.875V2.5H3.125C2.09106 2.5 1.25 3.34106 1.25 4.375V16.875C1.25 17.9089 2.09106 18.75 3.125 18.75H16.875C17.9089 18.75 18.75 17.9089 18.75 16.875V4.375C18.75 3.34106 17.9089 2.5 16.875 2.5ZM3.125 3.75H3.75V4.375C3.75 4.72046 4.02985 5 4.375 5C4.72015 5 5 4.72046 5 4.375V3.75H9.375V4.375C9.375 4.72046 9.65485 5 10 5C10.3452 5 10.625 4.72046 10.625 4.375V3.75H15V4.375C15 4.72046 15.2798 5 15.625 5C15.9702 5 16.25 4.72046 16.25 4.375V3.75H16.875C17.2195 3.75 17.5 4.03015 17.5 4.375V6.25H2.5V4.375C2.5 4.03015 2.78046 3.75 3.125 3.75ZM17.5 16.875C17.5 17.2198 17.2195 17.5 16.875 17.5H3.125C2.78046 17.5 2.5 17.2198 2.5 16.875V7.5H17.5V16.875ZM6.18744 11.7499C6.02997 11.6321 5.9375 11.4465 5.9375 11.25C5.9375 11.0535 6.02997 10.8679 6.18744 10.7501L8.68744 8.87512C8.96484 8.66821 9.35547 8.72437 9.56238 9.00024C9.76959 9.27612 9.71375 9.66797 9.43756 9.87488L8.43739 10.625H10.9375C12.6605 10.625 13.75 12.027 13.75 13.75V15.625C13.75 15.9705 13.4702 16.25 13.125 16.25C12.7798 16.25 12.5 15.9705 12.5 15.625V13.75C12.5 12.7161 11.9714 11.875 10.9375 11.875H8.43739L9.43756 12.6251C9.71375 12.832 9.76959 13.2239 9.56238 13.4998C9.4397 13.6639 9.25201 13.75 9.06189 13.75C8.93158 13.75 8.80005 13.7091 8.68744 13.6249L6.18744 11.7499Z" fill="black"/>
</svg>
