<svg width="22" height="17" viewBox="0 0 22 17" fill="none" xmlns="http://www.w3.org/2000/svg">
<path d="M0 15C0 15.9937 0.80625 16.8 1.8 16.8H19.8C20.7938 16.8 21.6 15.9937 21.6 15V8.4H0V15ZM7.2 12.45C7.2 12.2025 7.4025 12 7.65 12H12.75C12.9975 12 13.2 12.2025 13.2 12.45V13.95C13.2 14.1975 12.9975 14.4 12.75 14.4H7.65C7.4025 14.4 7.2 14.1975 7.2 13.95V12.45ZM2.4 12.45C2.4 12.2025 2.6025 12 2.85 12H5.55C5.7975 12 6 12.2025 6 12.45V13.95C6 14.1975 5.7975 14.4 5.55 14.4H2.85C2.6025 14.4 2.4 14.1975 2.4 13.95V12.45ZM21.6 1.8V3.6H0V1.8C0 0.80625 0.80625 0 1.8 0H19.8C20.7938 0 21.6 0.80625 21.6 1.8Z" fill="#800020"/>
</svg>
