<svg width="22" height="19" viewBox="0 0 22 19" fill="none" xmlns="http://www.w3.org/2000/svg">
<path d="M1.34994 17.55C1.34994 18.2967 1.95322 18.9 2.69994 18.9H9.44994V12.15H1.34994V17.55ZM12.1499 18.9H18.8999C19.6467 18.9 20.2499 18.2967 20.2499 17.55V12.15H12.1499V18.9ZM20.2499 5.4H18.4738C18.7354 4.88953 18.8999 4.32422 18.8999 3.7125C18.8999 1.66641 17.2335 0 15.1874 0C13.4324 0 12.2976 0.898594 10.8421 2.88141C9.38666 0.898594 8.25181 0 6.49681 0C4.45072 0 2.78431 1.66641 2.78431 3.7125C2.78431 4.32422 2.94463 4.88953 3.21041 5.4H1.34994C0.60322 5.4 -6.10352e-05 6.00328 -6.10352e-05 6.75V10.125C-6.10352e-05 10.4963 0.303689 10.8 0.674939 10.8H20.9249C21.2962 10.8 21.5999 10.4963 21.5999 10.125V6.75C21.5999 6.00328 20.9967 5.4 20.2499 5.4ZM6.4926 5.4C5.56025 5.4 4.8051 4.64485 4.8051 3.7125C4.8051 2.78016 5.56025 2.025 6.4926 2.025C7.33213 2.025 7.95228 2.16422 10.1249 5.4H6.4926ZM15.1874 5.4H11.5551C13.7235 2.17266 14.3268 2.025 15.1874 2.025C16.1198 2.025 16.8749 2.78016 16.8749 3.7125C16.8749 4.64485 16.1198 5.4 15.1874 5.4Z" fill="#800020"/>
</svg>
