<?xml version="1.0" encoding="UTF-8"?>
<svg xmlns="http://www.w3.org/2000/svg" xmlns:xlink="http://www.w3.org/1999/xlink" version="1.1" width="512" height="512" x="0" y="0" viewBox="0 0 512 512" style="enable-background:new 0 0 512 512" xml:space="preserve" class="">
  <g>
    <path d="M99.4 512c-37.3 0-67.5-30.3-67.6-67.6V232.1c-.5-37.3 29.4-67.9 66.7-68.4s67.9 29.4 68.4 66.7v213.9c0 37.4-30.2 67.7-67.5 67.7zm0-327.5c-26.3 0-47.6 21.3-47.6 47.6v212.3c-.4 26.3 20.6 47.9 46.9 48.3s47.9-20.6 48.3-46.9V232.1c-.1-26.3-21.3-47.5-47.6-47.6zM256 512c-37.3 0-67.5-30.3-67.5-67.6v-376C188 31.1 217.9.5 255.2 0s67.9 29.4 68.4 66.7V444.4c-.1 37.3-30.3 67.6-67.6 67.6zm0-491.2c-26.3 0-47.5 21.3-47.6 47.6v376.1c-.4 26.3 20.6 47.9 46.9 48.3s47.9-20.6 48.3-46.9V68.4c0-26.3-21.3-47.6-47.6-47.6zM412.6 512c-37.3 0-67.5-30.3-67.6-67.6v-48.6c0-37.3 30.2-67.6 67.6-67.6s67.6 30.2 67.6 67.6v48.6c-.1 37.3-30.3 67.6-67.6 67.6zm0-163.7c-26.3 0-47.6 21.3-47.6 47.6v48.6c0 26.3 21.3 47.6 47.6 47.6s47.6-21.3 47.6-47.6v-48.6c0-26.3-21.3-47.6-47.6-47.6z" fill="#060606" opacity="1" data-original="#000000"/>
  </g>
</svg>
