<svg width="425" height="499" viewBox="0 0 425 499" fill="none" xmlns="http://www.w3.org/2000/svg">
<path d="M4.88086 234.057H419.282V493.102H4.88086V234.057Z" fill="#F55766"/>
<path opacity="0.1" d="M212.082 234.057H402.286V466.098L388.355 465.737C385.289 465.646 382.224 465.602 379.158 465.602C334.255 465.602 288.722 474.843 243.504 493.102H212.082V234.057Z" fill="black"/>
<path d="M390.727 198.231V452.199C331.204 450.525 271.682 464.184 212.159 493.086C212.114 493.086 212.114 493.131 212.068 493.131V234.054C247.891 216.505 283.712 206.418 319.535 201.578C343.28 198.367 366.981 197.462 390.727 198.231Z" fill="#FDFDFF"/>
<path opacity="0.1" d="M210.101 234.057H19.897V466.098L33.8273 465.737C36.8933 465.646 39.9583 465.602 43.0243 465.602C87.9272 465.602 133.461 474.843 178.678 493.102H210.101V234.057Z" fill="black"/>
<path d="M212.066 234.065V493.142C212.021 493.142 212.021 493.097 211.975 493.097C211.342 492.781 210.709 492.464 210.075 492.193C200.17 487.399 190.265 483.102 180.359 479.213C173.303 476.408 166.247 473.83 159.191 471.478C138.069 464.423 116.901 459.311 95.7786 456.1C92.2505 455.557 88.7223 455.06 85.1951 454.652C67.9169 452.526 50.6397 451.712 33.4062 452.21V198.243C35.7132 198.152 38.0202 198.107 40.2813 198.061C43.5375 198.017 46.7947 197.972 50.051 198.017C68.3243 198.061 86.5518 199.193 104.825 201.635C107.222 201.952 109.619 202.314 112.017 202.675C117.625 203.535 123.234 204.575 128.888 205.705C130.743 206.113 132.642 206.52 134.542 206.927C136.396 207.334 138.25 207.786 140.151 208.238C143.136 208.962 146.121 209.685 149.151 210.499C155.122 212.082 161.137 213.846 167.108 215.791C170.093 216.786 173.123 217.827 176.109 218.867C179.591 220.134 183.074 221.445 186.602 222.801C189.09 223.797 191.578 224.836 194.065 225.877C196.689 226.963 199.312 228.094 201.89 229.27C205.281 230.808 208.674 232.392 212.066 234.065Z" fill="#FDFDFF"/>
<path opacity="0.1" d="M319.534 201.584C312.433 213.751 303.251 224.788 292.26 234.06C287.149 238.402 281.677 242.336 275.751 245.864C279.007 249.393 280.997 254.187 280.997 259.388V285.712C280.997 286.617 280.952 287.521 280.816 288.381C279.595 297.698 271.906 305.025 262.453 305.794L249.969 317.69C244.858 322.575 238.118 325.243 231.017 325.243H193.115C186.059 325.243 179.32 322.575 174.209 317.69L161.68 305.794C152.227 305.025 144.629 297.743 143.362 288.426C143.227 287.522 143.181 286.618 143.181 285.713V259.389C143.181 254.143 145.171 249.393 148.473 245.821C142.593 242.338 137.121 238.403 131.964 234.061C121.108 224.834 111.926 213.842 104.826 201.631V201.586C107.223 201.903 109.62 202.264 112.018 202.672C117.626 203.531 123.28 204.526 128.889 205.702C130.744 206.109 132.643 206.517 134.543 206.923C139.383 207.963 144.268 209.139 149.152 210.496C155.123 212.034 161.138 213.843 167.109 215.788C170.094 216.783 173.124 217.824 176.11 218.864C179.592 220.131 183.075 221.442 186.603 222.799C189.091 223.794 191.579 224.834 194.066 225.875C196.69 226.96 199.313 228.091 201.891 229.267C205.283 230.804 208.675 232.388 212.068 234.062C247.89 216.51 283.713 206.424 319.534 201.584Z" fill="black"/>
<path d="M256.964 292.328L247.522 301.292L240.62 307.865C238.05 310.316 234.615 311.689 231.029 311.689H193.142C189.557 311.689 186.121 310.315 183.551 307.865L176.649 301.292L167.207 292.328H256.964Z" fill="#FDFDFF"/>
<path d="M267.654 234.91C264.098 237.002 261.38 240.138 259.886 243.814C258.959 246.025 258.451 248.415 258.451 250.865V252.778H165.677V250.835C165.677 248.415 165.199 246.025 164.303 243.814C162.809 240.139 160.119 237.002 156.594 234.94C123.667 215.818 101.527 180.142 101.527 139.298C101.527 75.6255 155.518 24.4732 220.205 29.104C274.884 33.0176 318.955 77.4783 322.392 132.156C325.142 175.929 302.404 214.622 267.654 234.91Z" fill="#F7D100"/>
<path opacity="0.2" d="M258.587 248.566C258.504 249.322 258.447 250.079 258.447 250.863V252.768H165.681V250.835C165.681 244.281 162.263 238.203 156.605 234.926C123.666 215.796 101.539 180.14 101.539 139.303C101.539 84.7128 141.201 39.3377 193.269 30.4307C149.63 45.2197 118.177 86.5048 118.177 135.101C118.177 175.939 140.304 211.594 173.243 230.753C178.901 234.03 182.318 240.108 182.318 246.634V248.566H258.587Z" fill="white"/>
<path opacity="0.1" d="M167.207 292.328H256.963L247.521 301.292H176.648L167.207 292.328Z" fill="black"/>
<path opacity="0.1" d="M259.889 243.818C258.962 246.03 258.454 248.419 258.454 250.87V252.782H165.68V250.84C165.68 248.419 165.202 246.03 164.306 243.818H259.889Z" fill="black"/>
<path d="M267.412 259.393V285.722C267.412 289.373 264.453 292.332 260.802 292.332H163.358C159.707 292.332 156.748 289.373 156.748 285.722V259.393C156.748 255.743 159.707 252.783 163.358 252.783H260.802C264.453 252.783 267.412 255.743 267.412 259.393Z" fill="#5963A0"/>
<path opacity="0.2" d="M267.413 259.393V265.668H175.963C172.322 265.668 169.353 268.637 169.353 272.278V292.332H163.358C159.717 292.332 156.748 289.363 156.748 285.722V259.393C156.748 255.752 159.717 252.783 163.358 252.783H260.802C264.444 252.783 267.413 255.752 267.413 259.393Z" fill="white"/>
<path d="M259.15 123.291V152.21C259.15 155.833 257.01 159.093 253.752 160.673C226.439 173.88 198.201 173.832 169.016 160.601C165.635 159.069 163.422 155.737 163.422 152.015V123.292L259.15 123.291Z" fill="#5963A0"/>
<path opacity="0.2" d="M216.88 170.425C201.218 171.252 185.262 167.969 169.016 160.6C165.635 159.068 163.422 155.736 163.422 152.014V123.291H172.834V152.014C172.834 155.736 175.047 159.068 178.428 160.6C191.416 166.51 204.258 169.768 216.88 170.425Z" fill="white"/>
<path opacity="0.1" d="M259.15 123.291V136.497L219.701 148.755C217.269 149.509 214.716 149.899 212.186 149.899C209.632 149.899 207.079 149.509 204.646 148.755L163.422 135.962V123.291H259.15Z" fill="black"/>
<path d="M134.56 113.379L204.837 90.1162C208.456 88.9179 212.361 88.895 215.994 90.0494L289.575 113.429C292.506 114.36 292.492 118.511 289.555 119.423L217.547 141.788C214.054 142.872 210.313 142.872 206.821 141.788L134.615 119.361C131.698 118.456 131.66 114.339 134.56 113.379Z" fill="#5963A0"/>
<path opacity="0.2" d="M289.56 119.42L287.372 120.101L215.989 97.4338C212.365 96.2664 208.449 96.2903 204.825 97.4826L136.774 120.028L134.61 119.347C131.691 118.447 131.667 114.337 134.561 113.364L204.825 90.1125C208.449 88.9212 212.365 88.8963 215.989 90.0398L289.585 113.437C292.504 114.36 292.479 118.495 289.56 119.42Z" fill="white"/>
<path d="M287.066 177.747C287.066 183.218 282.599 195.877 277.128 195.877C271.623 195.877 267.189 183.219 267.189 177.747C267.189 172.243 271.639 167.792 277.144 167.792C282.616 167.792 287.066 172.243 287.066 177.747Z" fill="#FDFDFF"/>
<path opacity="0.2" d="M271.798 179.053C271.798 183.334 274.522 192.089 278.365 195.64C277.952 195.786 277.539 195.859 277.125 195.859C271.629 195.859 267.202 183.188 267.202 177.739C267.202 172.218 271.629 167.768 277.15 167.768C278.95 167.768 280.628 168.254 282.088 169.105C281.99 169.081 281.869 169.081 281.747 169.081C276.225 169.081 271.798 173.532 271.798 179.053Z" fill="white"/>
<path d="M33.2197 193.373C30.597 193.474 28.5281 195.629 28.5281 198.251V229.173H4.88285C2.18443 229.173 0 231.356 0 234.056V493.128C0 495.826 2.18344 498.011 4.88285 498.011H419.278C421.976 498.011 424.161 495.827 424.161 493.128V234.055C424.161 231.356 421.977 229.172 419.278 229.172H395.614V198.25C395.614 195.614 393.525 193.458 390.888 193.372C361.005 192.371 335.708 194.089 311.509 197.955C323.022 178.431 328.758 155.583 327.267 131.859C323.667 74.5981 277.798 28.3276 220.57 24.2366C151.563 19.3329 96.6599 74.2535 96.6599 139.311C96.6599 160.191 102.406 180.35 112.709 197.845C92.9644 194.526 60.2228 192.328 33.2197 193.373ZM9.7657 488.245V238.938H28.5281V452.216C28.5281 454.919 30.7116 457.131 33.5534 457.099C88.6215 455.452 139.905 467.233 189.39 488.245H9.7657ZM193.144 306.826C190.812 306.826 188.594 305.94 186.902 304.328L179.42 297.209H244.739L237.268 304.328C235.57 305.94 233.353 306.826 231.021 306.826H193.144ZM163.357 287.444C162.404 287.444 161.631 286.672 161.631 285.718V259.388C161.631 258.435 162.403 257.657 163.357 257.657H260.804C261.758 257.657 262.53 258.434 262.53 259.388V285.718C262.53 286.671 261.759 287.444 260.804 287.444C238.057 287.444 185.735 287.444 163.357 287.444ZM395.614 452.217V238.938H414.395V488.245H234.641C286.586 466.121 338.936 455.599 390.592 457.099C393.495 457.13 395.614 454.86 395.614 452.217ZM385.848 203.001V447.23C329.732 446.534 273.048 459.302 216.95 485.418V316.592H231.021C235.865 316.592 240.472 314.751 243.995 311.404L258.905 297.21H260.803C267.14 297.21 272.294 292.055 272.294 285.719V259.389C272.294 254.049 268.617 249.586 263.673 248.301C264.419 244.508 266.69 241.112 270.115 239.115C283.594 231.257 294.998 220.983 304.045 209.079C331.413 204.02 358.245 202.368 385.848 203.001ZM106.426 139.312C106.426 79.8575 156.594 29.487 219.874 33.9744C272.247 37.7217 314.226 80.0677 317.521 132.47C320.053 172.756 300.003 210.387 265.195 230.68C258.892 234.357 254.681 240.779 253.756 247.894H170.38C169.473 240.761 165.307 234.352 159.06 230.724C126.595 211.85 106.426 176.823 106.426 139.312ZM120.167 209.021C129.269 221.052 140.747 231.373 154.154 239.167C157.518 241.119 159.746 244.502 160.47 248.305C155.535 249.596 151.866 254.054 151.866 259.388V285.718C151.866 292.055 157.021 297.209 163.357 297.209H165.256L180.169 311.403C183.684 314.746 188.29 316.591 193.144 316.591H207.186V485.417C154.172 460.627 97.0474 446.365 38.2928 447.229V202.996C61.6323 202.352 92.6905 203.967 120.167 209.021Z" fill="#2E2E6D"/>
<path d="M58.7548 321.673C58.9261 324.362 61.3157 326.388 63.9424 326.231C102.331 323.722 141.363 331.304 179.866 348.689C182.272 349.785 185.196 348.743 186.322 346.247C187.432 343.792 186.34 340.902 183.88 339.791C143.918 321.744 103.356 313.924 63.3129 316.485C60.6235 316.661 58.5825 318.983 58.7548 321.673Z" fill="#2E2E6D"/>
<path d="M183.88 377.955C143.918 359.903 103.346 352.054 63.3129 354.643C60.6235 354.819 58.5825 357.141 58.7548 359.831C58.9261 362.52 61.1962 364.49 63.9424 364.389C102.374 361.915 141.373 369.472 179.866 386.852C182.272 387.949 185.196 386.907 186.322 384.41C187.432 381.955 186.34 379.065 183.88 377.955Z" fill="#2E2E6D"/>
<path d="M183.88 416.105C143.918 398.053 103.346 390.205 63.3129 392.794C60.6235 392.97 58.5825 395.292 58.7548 397.981C58.9261 400.671 61.1623 402.668 63.9424 402.539C102.374 400.06 141.373 407.617 179.866 425.002C182.272 426.099 185.196 425.057 186.322 422.561C187.432 420.105 186.34 417.216 183.88 416.105Z" fill="#2E2E6D"/>
<path d="M237.841 346.248C238.97 348.752 241.898 349.784 244.296 348.69C282.799 331.305 321.812 323.734 360.22 326.232C362.875 326.379 365.236 324.363 365.408 321.674C365.579 318.984 363.539 316.662 360.849 316.486C320.816 313.921 280.248 321.741 240.282 339.793C237.822 340.903 236.73 343.793 237.841 346.248Z" fill="#2E2E6D"/>
<path d="M360.849 354.643C320.774 352.054 280.243 359.903 240.282 377.955C237.822 379.065 236.73 381.955 237.841 384.41C238.97 386.914 241.898 387.946 244.296 386.852C282.794 369.472 321.784 361.915 360.22 364.389C362.995 364.48 365.236 362.52 365.408 359.831C365.58 357.141 363.539 354.819 360.849 354.643Z" fill="#2E2E6D"/>
<path d="M360.849 392.794C320.774 390.205 280.243 398.053 240.282 416.105C237.822 417.216 236.73 420.105 237.841 422.561C238.97 425.064 241.898 426.096 244.296 425.002C282.794 407.617 321.784 400.06 360.22 402.539C362.995 402.687 365.236 400.671 365.408 397.981C365.58 395.293 363.539 392.97 360.849 392.794Z" fill="#2E2E6D"/>
<path d="M158.552 152.035C158.552 157.609 161.875 162.716 167.015 165.043C196.326 178.362 226.306 179.368 255.879 165.08C260.837 162.687 264.042 157.638 264.042 152.207V132.468L272.258 129.916V163.804C266.487 165.839 262.316 171.288 262.316 177.746C262.316 183.291 266.774 200.757 277.14 200.757C286.767 200.757 291.958 184.426 291.958 177.746C291.958 171.282 287.788 165.828 282.021 163.798V126.883L291 124.094C294.366 123.05 296.636 119.979 296.65 116.455C296.66 112.932 294.409 109.846 291.052 108.783L217.47 85.405C212.826 83.9317 207.933 83.9556 203.298 85.4906L133.028 108.754C129.705 109.851 127.491 112.941 127.525 116.44C127.554 119.941 129.823 122.992 133.166 124.031L158.552 131.917V152.035ZM254.276 152.206C254.276 153.937 253.265 155.501 251.635 156.288C225.452 168.933 199.1 168.891 171.049 156.15C169.389 155.396 168.316 153.785 168.316 152.035V134.95L205.379 146.462C209.795 147.835 214.526 147.847 218.997 146.462L254.276 135.501V152.206ZM282.194 177.745C282.194 181.916 279.099 189.188 277.13 190.81C275.17 189.203 272.08 181.931 272.08 177.745C272.08 174.946 274.354 172.672 277.154 172.672C279.934 172.671 282.194 174.946 282.194 177.745ZM141.252 116.317L206.371 94.7603C209.022 93.8777 211.836 93.8638 214.515 94.7124L282.814 116.412L276.671 118.321L211.841 111.057C209.146 110.804 206.749 112.688 206.443 115.367C206.142 118.047 208.073 120.464 210.753 120.765L253.414 125.545L216.102 137.135C213.537 137.927 210.829 137.927 208.273 137.135L141.252 116.317Z" fill="#2E2E6D"/>
<path d="M304.013 26.4543V4.88285C304.013 2.18443 301.829 0 299.13 0C296.43 0 294.247 2.18344 294.247 4.88285V26.4543C294.247 29.1527 296.43 31.3371 299.13 31.3371C301.829 31.3371 304.013 29.1527 304.013 26.4543Z" fill="#2E2E6D"/>
<path d="M335.13 17.7662L319.882 33.0144C317.974 34.9219 317.974 38.0118 319.882 39.9183C321.789 41.8258 324.879 41.8258 326.786 39.9183L342.034 24.6701C343.941 22.7626 343.941 19.6727 342.034 17.7662C340.126 15.8597 337.037 15.8587 335.13 17.7662Z" fill="#2E2E6D"/>
<path d="M328.475 60.6895C328.475 63.3879 330.658 65.5723 333.357 65.5723H354.929C357.627 65.5723 359.812 63.3889 359.812 60.6895C359.812 57.9911 357.628 55.8066 354.929 55.8066H333.357C330.659 55.8066 328.475 57.9911 328.475 60.6895Z" fill="#2E2E6D"/>
<path d="M129.92 26.4543V4.88285C129.92 2.18443 127.736 0 125.037 0C122.337 0 120.154 2.18344 120.154 4.88285V26.4543C120.154 32.9189 129.92 32.9119 129.92 26.4543Z" fill="#2E2E6D"/>
<path d="M104.284 39.9187C106.192 38.0112 106.192 34.9213 104.284 33.0148L89.0309 17.7666C87.1233 15.8591 84.0335 15.8591 82.1269 17.7666C80.2194 19.6741 80.2194 22.764 82.1269 24.6705L97.3801 39.9187C99.2876 41.8252 102.378 41.8252 104.284 39.9187Z" fill="#2E2E6D"/>
<path d="M64.3604 60.6895C64.3604 63.3879 66.5438 65.5723 69.2432 65.5723H90.8096C93.508 65.5723 95.6925 63.3889 95.6925 60.6895C95.6925 57.9911 93.509 55.8066 90.8096 55.8066H69.2432C66.5448 55.8066 64.3604 57.9911 64.3604 60.6895Z" fill="#2E2E6D"/>
</svg>
