<svg width="14" height="14" viewBox="0 0 14 14" fill="none" xmlns="http://www.w3.org/2000/svg">
<g clip-path="url(#clip0_1680_2358)">
<path d="M5.12565 3.45801H4.04232C3.755 3.45801 3.47945 3.57214 3.27629 3.77531C3.07312 3.97847 2.95898 4.25402 2.95898 4.54134V11.0413C2.95898 11.3287 3.07312 11.6042 3.27629 11.8074C3.47945 12.0105 3.755 12.1247 4.04232 12.1247H9.45898C9.7463 12.1247 10.0219 12.0105 10.225 11.8074C10.4282 11.6042 10.5423 11.3287 10.5423 11.0413V4.54134C10.5423 4.25402 10.4282 3.97847 10.225 3.77531C10.0219 3.57214 9.7463 3.45801 9.45898 3.45801H8.37565" stroke="#FF3666" stroke-width="0.8125" stroke-linecap="round" stroke-linejoin="round"/>
<path d="M5.125 3.45833C5.125 3.17102 5.23914 2.89547 5.4423 2.6923C5.64547 2.48914 5.92102 2.375 6.20833 2.375H7.29167C7.57898 2.375 7.85453 2.48914 8.0577 2.6923C8.26086 2.89547 8.375 3.17102 8.375 3.45833C8.375 3.74565 8.26086 4.0212 8.0577 4.22437C7.85453 4.42753 7.57898 4.54167 7.29167 4.54167H6.20833C5.92102 4.54167 5.64547 4.42753 5.4423 4.22437C5.23914 4.0212 5.125 3.74565 5.125 3.45833Z" stroke="#FF3666" stroke-width="0.8125" stroke-linecap="round" stroke-linejoin="round"/>
<path d="M5.125 7.25H8.375" stroke="#FF3666" stroke-width="0.8125" stroke-linecap="round" stroke-linejoin="round"/>
<path d="M5.125 9.41699H8.375" stroke="#FF3666" stroke-width="0.8125" stroke-linecap="round" stroke-linejoin="round"/>
</g>
<defs>
<clipPath id="clip0_1680_2358">
<rect width="13" height="13" fill="white" transform="translate(0.25 0.75)"/>
</clipPath>
</defs>
</svg>
