<svg width="20" height="20" viewBox="0 0 20 20" fill="none" xmlns="http://www.w3.org/2000/svg">
<g clip-path="url(#clip0_786_12807)">
<path d="M4.16602 10.8333C4.16602 11.5994 4.3169 12.3579 4.61005 13.0657C4.9032 13.7734 5.33288 14.4164 5.87456 14.9581C6.41623 15.4998 7.0593 15.9295 7.76703 16.2226C8.47476 16.5158 9.2333 16.6667 9.99935 16.6667C10.7654 16.6667 11.5239 16.5158 12.2317 16.2226C12.9394 15.9295 13.5825 15.4998 14.1241 14.9581C14.6658 14.4164 15.0955 13.7734 15.3886 13.0657C15.6818 12.3579 15.8327 11.5994 15.8327 10.8333C15.8327 10.0673 15.6818 9.30875 15.3886 8.60101C15.0955 7.89328 14.6658 7.25022 14.1241 6.70854C13.5825 6.16687 12.9394 5.73719 12.2317 5.44404C11.5239 5.15088 10.7654 5 9.99935 5C9.2333 5 8.47476 5.15088 7.76703 5.44404C7.0593 5.73719 6.41623 6.16687 5.87456 6.70854C5.33288 7.25022 4.9032 7.89328 4.61005 8.60101C4.3169 9.30875 4.16602 10.0673 4.16602 10.8333Z" stroke="#777777" stroke-width="1.5" stroke-linecap="round" stroke-linejoin="round"/>
<path d="M5.83268 3.33301L3.54102 4.99967" stroke="#777777" stroke-width="1.5" stroke-linecap="round" stroke-linejoin="round"/>
<path d="M14.166 3.33301L16.4577 4.99967" stroke="#777777" stroke-width="1.5" stroke-linecap="round" stroke-linejoin="round"/>
<path d="M8.33398 10.833H11.6673" stroke="#777777" stroke-width="1.5" stroke-linecap="round" stroke-linejoin="round"/>
</g>
<defs>
<clipPath id="clip0_786_12807">
<rect width="20" height="20" fill="white"/>
</clipPath>
</defs>
</svg>
