<svg width="24" height="24" viewBox="0 0 24 24" fill="none" xmlns="http://www.w3.org/2000/svg">
<g clip-path="url(#clip0_2284_13531)">
<path d="M4.20016 12.5541C4.08417 12.3661 3.83784 12.3079 3.64985 12.4239L1.57491 13.7043C0.518246 14.356 0.187822 15.7395 0.841971 16.8011L2.11737 18.8674C2.76927 19.9235 4.15777 20.2519 5.21413 19.6008L7.28867 18.32C7.47661 18.204 7.535 17.9577 7.41901 17.7698C6.77656 16.7289 4.84256 13.595 4.20016 12.5541ZM3.40872 17.099C3.0154 17.099 2.85682 16.586 3.18624 16.3661L3.78619 15.9661C3.97018 15.8436 4.21866 15.8936 4.34115 16.0771C4.46364 16.2611 4.41365 16.5096 4.23016 16.6321L3.63021 17.032C3.56171 17.0775 3.48472 17.099 3.40872 17.099Z" fill="#915FD8"/>
<path d="M21.6496 16.7281C20.701 17.3134 19.4569 17.0199 18.8713 16.0701L10.8549 3.07962C10.2705 2.13219 10.5654 0.885789 11.5129 0.301334C12.4644 -0.285371 13.7067 0.0114061 14.2912 0.959283L22.3075 13.9493C22.892 14.8967 22.597 16.1431 21.6496 16.7281Z" fill="#915FD8"/>
<path d="M17.0121 15.7656C14.1224 15.6433 11.2733 16.248 8.64728 17.5474C8.46229 17.6389 8.23836 17.5751 8.12997 17.3995C7.31528 16.0792 5.65196 13.3836 4.85052 12.0846C4.74213 11.909 4.78557 11.6802 4.95031 11.5559C7.28968 9.79131 9.10754 7.51564 10.2935 4.87749C10.4247 4.58581 10.8296 4.56096 10.9975 4.83309C12.2685 6.89298 16.0998 13.1021 17.3673 15.1562C17.5352 15.4283 17.3316 15.7791 17.0121 15.7656Z" fill="#915FD8"/>
<path d="M19.9397 8.58907C18.9126 6.92469 18.3393 5.99572 18.0214 5.48061C17.8427 5.19098 18.0853 4.81941 18.4211 4.87525C20.1211 5.15783 21.1674 6.86905 20.6603 8.50422C20.5596 8.82915 20.1184 8.87859 19.9397 8.58907Z" fill="#915FD8"/>
<path d="M10.5355 24.0001C10.0541 24.0001 9.57761 23.8136 9.21514 23.4536L6.23332 20.491C6.04984 20.3086 6.08503 20.0027 6.30517 19.8669L8.36176 18.5974C8.77258 18.3725 9.18549 18.1674 9.60441 17.9804C9.78165 17.9013 9.99023 17.9615 10.0988 18.1224L12.091 21.0753C12.936 22.3282 12.0226 24.0001 10.5355 24.0001Z" fill="#915FD8"/>
<path d="M22.0081 5.44995C21.6181 5.44995 21.4576 4.94554 21.7791 4.72151L22.4996 4.22055C22.6806 4.09456 22.93 4.13905 23.056 4.32054C23.1825 4.50202 23.1375 4.751 22.9565 4.87699L22.2361 5.37846C22.1666 5.42695 22.0866 5.44995 22.0081 5.44995Z" fill="#915FD8"/>
<path d="M23.4162 9.90649C23.2853 10.0874 23.035 10.1257 22.8578 9.99748L22.1273 9.47202C21.9478 9.34303 21.9073 9.09305 22.0363 8.91357C22.1653 8.73458 22.4153 8.69358 22.5943 8.82257L23.3252 9.34853C23.5042 9.47752 23.5452 9.7275 23.4162 9.90649Z" fill="#915FD8"/>
<path d="M19.4074 1.70026V2.60019C19.4074 2.82118 19.2284 3.00016 19.0074 3.00016C18.7864 3.00016 18.6074 2.82118 18.6074 2.60019V1.70026C18.6074 1.47928 18.7864 1.30029 19.0074 1.30029C19.2284 1.30029 19.4074 1.47928 19.4074 1.70026Z" fill="#915FD8"/>
</g>
<defs>
<clipPath id="clip0_2284_13531">
<rect width="24" height="24" fill="white"/>
</clipPath>
</defs>
</svg>
