<svg width="40" height="40" viewBox="0 0 40 40" fill="none" xmlns="http://www.w3.org/2000/svg">
<g clip-path="url(#clip0_2387_14390)">
<path d="M19.7645 0.000326967C18.1331 0.00790509 16.5752 0.147046 15.2044 0.389624C11.1662 1.10306 10.433 2.59626 10.433 5.35009V8.98705H19.9757V10.1993H10.433H6.85168C4.07832 10.1993 1.64981 11.8663 0.890274 15.0374C0.0141023 18.6723 -0.0247258 20.9406 0.890274 24.736C1.56863 27.561 3.18856 29.574 5.96191 29.574H9.24293V25.2141C9.24293 22.0643 11.9682 19.286 15.2044 19.286H24.7361C27.3893 19.286 29.5074 17.1014 29.5074 14.4368V5.35009C29.5074 2.764 27.3257 0.821264 24.7361 0.389624C23.0968 0.116733 21.3958 -0.00725116 19.7645 0.000326967ZM14.6038 2.92548C15.5895 2.92548 16.3944 3.74361 16.3944 4.74947C16.3944 5.75181 15.5895 6.56236 14.6038 6.56236C13.6146 6.56236 12.8132 5.75181 12.8132 4.74947C12.8132 3.74353 13.6146 2.92548 14.6038 2.92548Z" fill="url(#paint0_linear_2387_14390)"/>
<path d="M30.6974 10.1994V14.4369C30.6974 17.7222 27.9121 20.4873 24.736 20.4873H15.2044C12.5935 20.4873 10.433 22.7218 10.433 25.3365V34.4232C10.433 37.0093 12.6818 38.5305 15.2044 39.2724C18.2251 40.1606 21.1218 40.3212 24.736 39.2724C27.1385 38.5769 29.5074 37.177 29.5074 34.4232V30.7862H19.9757V29.5739H29.5074H34.2788C37.0521 29.5739 38.0856 27.6395 39.0502 24.7359C40.0465 21.7466 40.0041 18.872 39.0502 15.0373C38.3648 12.2764 37.0557 10.1992 34.2788 10.1992H30.6974V10.1994ZM25.3367 33.2109C26.3259 33.2109 27.1273 34.0215 27.1273 35.0238C27.1273 36.0298 26.3259 36.8479 25.3367 36.8479C24.351 36.8479 23.546 36.0298 23.546 35.0238C23.546 34.0215 24.3509 33.2109 25.3367 33.2109Z" fill="url(#paint1_linear_2387_14390)"/>
</g>
<defs>
<linearGradient id="paint0_linear_2387_14390" x1="-0.716763" y1="1.13755" x2="21.2927" y2="19.907" gradientUnits="userSpaceOnUse">
<stop stop-color="#5A9FD4"/>
<stop offset="1" stop-color="#306998"/>
</linearGradient>
<linearGradient id="paint1_linear_2387_14390" x1="29.5738" y1="31.5744" x2="21.681" y2="20.5058" gradientUnits="userSpaceOnUse">
<stop stop-color="#FFD43B"/>
<stop offset="1" stop-color="#FFE873"/>
</linearGradient>
<clipPath id="clip0_2387_14390">
<rect width="40" height="40" fill="white"/>
</clipPath>
</defs>
</svg>
