<svg width="322" height="322" viewBox="0 0 322 322" fill="none" xmlns="http://www.w3.org/2000/svg">
<rect x="3.5" y="3.5" width="315" height="315" rx="26.5" stroke="#915FD8" stroke-width="7" stroke-dasharray="107 107"/>
<path d="M121.068 40.4194H40.4199V121.067H121.068V40.4194ZM100.454 100.454H61.0337V61.0334H100.454V100.454Z" fill="black"/>
<path d="M40.6152 281.581H121.263V200.933H40.6152V281.581ZM58.6333 218.951H103.245V263.563H58.6333V218.951Z" fill="black"/>
<path d="M89.9478 232.247H71.9297V250.265H89.9478V232.247Z" fill="black"/>
<path d="M100.613 141.132H80.7441V161H100.613V141.132Z" fill="black"/>
<path d="M60.8763 141.132H41.0078V161V180.868H60.8763H80.7446V161H60.8763V141.132Z" fill="black"/>
<path d="M261.126 161H241.258V180.868H261.126V161Z" fill="black"/>
<path d="M221.389 161H201.521V180.868H200.738H190.804H180.87H170.509H161.001V161H145.929H141.133H121.265H120.482H110.547H100.613V180.868H110.547H120.482H121.265H141.133V187.772V200.737V201.52V218.951V221.388H161.001H180.87V218.951V201.52V200.737H190.804H200.738H201.521H216.886H221.389H241.258V180.868H221.389V161Z" fill="black"/>
<path d="M241.257 141.132H221.389V161H241.257V141.132Z" fill="black"/>
<path d="M261.125 187.772V200.737V201.52V218.95V221.388H280.993V218.95V201.52V200.737V187.772V180.868H261.125V187.772Z" fill="black"/>
<path d="M201.52 261.125V280.993H221.388H241.256V261.125H221.388H201.52Z" fill="black"/>
<path d="M241.258 241.257V261.125H261.126V241.257V221.388H241.258V241.257Z" fill="black"/>
<path d="M280.993 261.125H261.125V280.993H280.993V261.125Z" fill="black"/>
<path d="M161.001 41.0063H141.133V60.8747H161.001V41.0063Z" fill="black"/>
<path d="M90.679 70.8091H70.8105V90.6774H90.679V70.8091Z" fill="black"/>
<path d="M200.934 40.4194V121.067H281.582V40.4194H200.934ZM260.968 100.454H221.548V61.0334H260.968V100.454Z" fill="black"/>
<path d="M251.191 70.8091H231.322V90.6774H251.191V70.8091Z" fill="black"/>
<path d="M180.87 161H194.625H200.738V141.132H194.625H180.87V121.263H161.001V120.48V104.285V100.612H180.87V80.7433V60.875H161.001V80.7433H141.133V100.612V104.285V120.48V121.263V141.132H161.001V161H170.509H180.87Z" fill="black"/>
<path d="M163.552 241.257H161.001H141.133V261.125V280.993H161.001V261.125H180.87H200.738V241.257H201.521H213.639H221.389V221.388H213.639H201.521H200.738H190.804H180.87V241.257H163.552Z" fill="black"/>
</svg>
