<svg width="14" height="14" viewBox="0 0 14 14" fill="none" xmlns="http://www.w3.org/2000/svg">
<g clip-path="url(#clip0_2387_15596)">
<mask id="mask0_2387_15596" style="mask-type:luminance" maskUnits="userSpaceOnUse" x="0" y="-1" width="14" height="15">
<path d="M0 -0.000975609H14V13.999H0V-0.000975609Z" fill="white"/>
</mask>
<g mask="url(#mask0_2387_15596)">
<path d="M7 8.09277C7 7.42244 7.37874 6.80967 7.97828 6.50987L8.26427 6.36689C8.80775 6.09515 9.15105 5.53969 9.15105 4.93208V4.84797C9.15105 3.96204 8.43281 3.24382 7.54688 3.24382H6.45312C5.56719 3.24382 4.84895 3.96204 4.84895 4.84797M7 10.2438V10.7542M4.05705 0.545898H9.94295C10.8132 0.545898 11.6478 0.891606 12.2631 1.50695L12.4921 1.7359C13.1074 2.35122 13.4531 3.18583 13.4531 4.05607V9.94198C13.4531 10.8122 13.1074 11.6468 12.4921 12.2621L12.2631 12.4911C11.6478 13.1064 10.8132 13.4521 9.94295 13.4521H4.05705C3.1868 13.4521 2.35219 13.1064 1.73688 12.4911L1.50793 12.2621C0.892582 11.6468 0.546875 10.8122 0.546875 9.94198V4.05607C0.546875 3.18583 0.892582 2.35122 1.50793 1.7359L1.73688 1.50695C2.35219 0.891606 3.1868 0.545898 4.05705 0.545898Z" stroke="black" stroke-width="0.543171" stroke-miterlimit="10" stroke-linecap="round" stroke-linejoin="round"/>
</g>
</g>
<defs>
<clipPath id="clip0_2387_15596">
<rect width="14" height="14" fill="white"/>
</clipPath>
</defs>
</svg>
