<svg width="40" height="40" viewBox="0 0 40 40" fill="none" xmlns="http://www.w3.org/2000/svg">
<g clip-path="url(#clip0_2387_14398)">
<path d="M20 22.8125C21.5533 22.8125 22.8125 21.5533 22.8125 20C22.8125 18.4467 21.5533 17.1875 20 17.1875C18.4467 17.1875 17.1875 18.4467 17.1875 20C17.1875 21.5533 18.4467 22.8125 20 22.8125Z" fill="#61DAFB"/>
<path d="M24.8023 22.768C26.6418 19.4561 27.8682 16.0437 28.2118 13.2814C28.5553 10.5191 27.9879 8.6331 26.6344 8.03827C25.2808 7.44343 23.2519 8.18846 20.9939 10.1095C18.736 12.0305 16.4339 14.9702 14.5941 18.2819C12.7542 21.5937 11.5272 25.0063 11.183 27.7691C10.8388 30.532 11.4056 32.4188 12.7587 33.0145C14.1117 33.6103 16.1403 32.8662 18.3981 30.946C20.656 29.0257 22.9582 26.0866 24.7984 22.775L24.8023 22.768ZM15.2016 22.775C17.0418 26.0866 19.344 29.0257 21.6019 30.946C23.8597 32.8662 25.8883 33.6103 27.2413 33.0145C28.5944 32.4188 29.1612 30.532 28.817 27.7691C28.4728 25.0063 27.2458 21.5937 25.4059 18.2819C23.5661 14.9702 21.264 12.0305 19.0061 10.1095C16.7481 8.18846 14.7192 7.44343 13.3656 8.03827C12.0121 8.6331 11.4447 10.5191 11.7882 13.2814C12.1318 16.0437 13.3582 19.4561 15.1977 22.768L15.2016 22.775ZM20.0039 25.543C23.7953 25.5426 27.4311 24.9579 30.1115 23.9175C32.7919 22.8772 34.2974 21.4663 34.2969 19.9954C34.2964 18.5244 32.7899 17.1137 30.1087 16.0736C27.4276 15.0335 23.7914 14.4492 20 14.4492C16.2086 14.4492 12.5724 15.0335 9.89127 16.0736C7.21015 17.1137 5.70364 18.5244 5.70313 19.9954C5.70261 21.4663 7.20812 22.8772 9.88851 23.9175C12.5689 24.9579 16.2047 25.5426 19.9961 25.543H20.0039Z" stroke="#61DAFB" stroke-width="1.40625"/>
</g>
<defs>
<clipPath id="clip0_2387_14398">
<rect width="40" height="40" fill="white"/>
</clipPath>
</defs>
</svg>
