<svg width="20" height="20" viewBox="0 0 20 20" fill="none" xmlns="http://www.w3.org/2000/svg">
<g clip-path="url(#clip0_494_17709)">
<path fill-rule="evenodd" clip-rule="evenodd" d="M7.1875 1.27844C5.59375 1.42406 4.09373 2.1225 2.94998 3.26375C1.66248 4.55281 0.9375 6.30156 0.9375 8.125V11.0609C0.9375 11.5559 0.690591 12.0181 0.278091 12.2925C0.103091 12.4084 0 12.6034 0 12.8125V13.4375C0 14.4322 0.393753 15.3859 1.09688 16.0891C1.8 16.7925 2.75625 17.1875 3.75 17.1875H5C5 18.7409 6.25938 20 7.8125 20C8.65 20 9.40312 19.6334 9.91875 19.0516C10.1469 18.7931 10.1219 18.3978 9.86565 18.1691C9.60627 17.9406 9.2125 17.9644 8.98125 18.2228C8.69687 18.5459 8.27812 18.75 7.8125 18.75C6.95 18.75 6.25 18.0503 6.25 17.1875H8.39691C8.74066 17.1875 9.02191 16.9075 9.02191 16.5625C9.02191 16.2175 8.74066 15.9375 8.39691 15.9375C8.39691 15.9375 5.90938 15.9375 3.75 15.9375C3.0875 15.9375 2.45003 15.6741 1.98128 15.2053C1.51253 14.7366 1.25 14.1006 1.25 13.4375V13.12C1.84063 12.6056 2.1875 11.8562 2.1875 11.0609C2.1875 10.3087 2.1875 9.25344 2.1875 8.125C2.1875 6.63312 2.78126 5.2025 3.83438 4.1475C4.89063 3.0925 6.32188 2.5 7.8125 2.5C10.9187 2.5 13.4375 5.01812 13.4375 8.12437C13.4375 8.46937 13.7188 8.74937 14.0625 8.74937C14.4062 8.74937 14.6875 8.46937 14.6875 8.12437C14.6875 4.53843 11.9406 1.59375 8.4375 1.27812V0.625C8.4375 0.28 8.15625 0 7.8125 0C7.46875 0 7.1875 0.28 7.1875 0.625V1.27844ZM14.6875 9.375C11.7563 9.375 9.375 11.7553 9.375 14.6875C9.375 17.6197 11.7563 20 14.6875 20C17.6187 20 20 17.6197 20 14.6875C20 11.7553 17.6187 9.375 14.6875 9.375ZM14.6875 10.625C16.9312 10.625 18.75 12.4453 18.75 14.6875C18.75 16.9297 16.9312 18.75 14.6875 18.75C12.4469 18.75 10.625 16.9297 10.625 14.6875C10.625 12.4453 12.4469 10.625 14.6875 10.625ZM16.5625 14.0625H15.3125V11.875C15.3125 11.53 15.0312 11.25 14.6875 11.25C14.3438 11.25 14.0625 11.53 14.0625 11.875V14.6875C14.0625 15.0328 14.3406 15.3125 14.6875 15.3125H16.5625C16.9062 15.3125 17.1875 15.0325 17.1875 14.6875C17.1875 14.3425 16.9062 14.0625 16.5625 14.0625Z" fill="black"/>
</g>
<defs>
<clipPath id="clip0_494_17709">
<rect width="20" height="20" fill="white"/>
</clipPath>
</defs>
</svg>
