<svg width="108" height="131" viewBox="0 0 108 131" fill="none" xmlns="http://www.w3.org/2000/svg">
<path d="M103.4 96.0405C105.583 96.0405 107.353 94.2706 107.353 92.0874C107.353 89.9041 105.583 88.1343 103.4 88.1343C101.217 88.1343 99.4468 89.9041 99.4468 92.0874C99.4468 94.2706 101.217 96.0405 103.4 96.0405Z" fill="#D0DBFF"/>
<path d="M94.2376 41.0293L89.4326 43.1862C88.9347 43.4097 88.3989 42.9591 88.5338 42.4302L90.0463 36.5008C90.0898 36.3304 90.0626 36.1496 89.9708 35.9995L87.4297 31.8431C87.1283 31.35 87.5699 30.7375 88.133 30.8677L94.6659 32.3784C94.8101 32.4118 94.9615 32.395 95.0949 32.331L99.3636 30.2819C99.8846 30.0318 100.449 30.5328 100.263 31.0798L98.6071 35.9442C98.5496 36.1132 98.5639 36.2984 98.6467 36.4567L101.234 41.4C101.493 41.8935 101.053 42.4628 100.51 42.3378L94.651 40.9887C94.5125 40.9568 94.3673 40.9711 94.2376 41.0293Z" fill="#523F88"/>
<path d="M20.6506 15.5195L15.7512 17.7188C15.2435 17.9467 14.6972 17.4872 14.8347 16.9479L16.3769 10.9021C16.4213 10.7284 16.3935 10.544 16.3 10.391L13.709 6.15299C13.4016 5.65022 13.8519 5.02571 14.426 5.15847L21.0872 6.69882C21.2343 6.73284 21.3886 6.71577 21.5247 6.65044L25.8772 4.5611C26.4083 4.30613 26.9841 4.81695 26.7942 5.37471L25.1058 10.3346C25.0471 10.5069 25.0617 10.6958 25.1461 10.8571L27.7845 15.8976C28.0479 16.4008 27.5998 16.9812 27.0463 16.8538L21.072 15.4782C20.9308 15.4456 20.7828 15.4602 20.6506 15.5195Z" fill="#D0DBFF"/>
<path d="M65.2732 89.3606C53.0989 88.291 34.0187 76.8558 25.682 67.5483C21.3487 62.7196 18.2521 56.7599 17.0132 50.1505C16.8928 49.4283 17.0532 47.6221 15.9295 48.0035C14.7857 48.4049 14.8259 51.0134 14.6052 51.9567C13.146 58.3061 1.66327 108.561 0.69907 112.718C0.217492 114.805 2.28428 116.591 4.27085 115.808C5.02358 115.524 21.18 109.286 25.682 107.521C19.4211 103.889 14.0032 98.7717 9.96981 92.7316L12.137 83.3607C17.575 91.7886 24.8391 99.0931 33.2671 104.571H33.2871C70.5446 90.056 69.2498 90.8768 69.2665 90.3438C69.2665 88.8995 66.0765 89.4276 65.2732 89.3606ZM37.6015 93.9961C29.5548 89.9024 22.6117 83.3406 18.0566 75.535C17.581 74.6778 18.8284 73.9009 19.3609 74.7722C23.7555 82.3373 30.4778 88.6784 38.2837 92.6515C39.1759 93.121 38.5102 94.4509 37.6015 93.9961Z" fill="#852CE5"/>
<path d="M66.5775 46.9407C49.8622 34.5392 31.6819 30.7468 25.9628 38.4523C20.2439 46.1578 29.1736 62.4722 45.8889 74.8531C62.6044 87.2541 80.8048 91.067 86.5237 83.3412C92.2226 75.6357 83.3131 59.3417 66.5775 46.9407ZM34.6718 47.4423C33.1467 47.2615 32.0632 45.8771 32.2236 44.352C32.4042 42.8269 33.7888 41.7232 35.3139 41.9039C36.839 42.0842 37.9426 43.4689 37.762 44.994C37.5815 46.5191 36.2169 47.6226 34.6718 47.4423ZM37.0999 62.0305C35.9561 61.9102 35.1333 60.8868 35.2738 59.7429C35.3941 58.5992 36.4376 57.7965 37.5614 57.917C38.7052 58.0574 39.5279 59.0808 39.3874 60.2044C39.267 61.3483 38.2236 62.1709 37.0999 62.0305ZM57.7684 70.4184C57.5877 71.9435 56.2032 73.047 54.6781 72.8665C53.1531 72.6857 52.0494 71.3213 52.23 69.7762C52.4105 68.2511 53.7951 67.1674 55.3202 67.3281C56.8453 67.5089 57.9489 68.8934 57.7684 70.4184ZM65.5141 59.9638C64.6713 59.8634 64.0492 59.1009 64.1496 58.2379C64.2499 57.3953 65.0124 56.7731 65.8752 56.8735C66.718 56.9739 67.3401 57.7563 67.2398 58.5992C67.1395 59.4622 66.3769 60.064 65.5141 59.9638ZM75.6878 82.6989C74.825 82.5987 74.223 81.8362 74.3032 80.9735C74.4035 80.1306 75.1862 79.5086 76.0289 79.6088C76.8918 79.709 77.4937 80.4718 77.3934 81.3345C77.2931 82.1774 76.5306 82.7993 75.6878 82.6989Z" fill="#D0DBFF"/>
<path d="M21.3198 32.5046C23.5031 32.5046 25.2729 30.7347 25.2729 28.5515C25.2729 26.3683 23.5031 24.5984 21.3198 24.5984C19.1366 24.5984 17.3667 26.3683 17.3667 28.5515C17.3667 30.7347 19.1366 32.5046 21.3198 32.5046Z" fill="#1F2456"/>
<path d="M12.0169 7.75052L10.4717 13.8107C10.1583 14.9749 11.4576 15.969 12.4181 15.4359L17.2943 13.2688L23.234 14.6332C23.7759 14.7537 24.3377 14.5529 24.6789 14.1115C25.02 13.6701 25.0801 13.088 24.8192 12.5864L22.1706 7.60992L23.8762 2.65354C24.2692 1.4748 23.0584 0.397883 21.9097 0.927598L17.6154 3.0146L10.9533 1.46943C9.74784 1.16833 8.7663 2.51721 9.42824 3.57652L12.0169 7.75052ZM17.2743 4.47942C17.5953 4.53968 17.9163 4.4995 18.2174 4.35915L22.4514 2.17196L20.7458 7.12834C20.6254 7.4894 20.6656 7.91096 20.8461 8.25218L23.5751 13.1684L17.5953 11.7839C17.495 11.7638 17.3947 11.7437 17.2743 11.7437C17.0937 11.7437 16.8931 11.7839 16.7124 11.864L11.9165 14.1717L13.4616 8.13167C13.5619 7.77061 13.5018 7.36913 13.3011 7.04799L10.6122 2.93425L17.2743 4.47942Z" fill="black"/>
<path d="M93.0649 35.242L91.5599 41.1615C91.2399 42.3501 92.5342 43.3164 93.4864 42.787L98.2622 40.6398L104.081 41.9843C105.263 42.2904 106.196 40.9925 105.647 39.9777L103.058 35.1014L104.724 30.2454C105.108 29.0928 103.941 27.9831 102.777 28.5195L98.5832 30.5663L92.0415 29.0613C90.8786 28.76 89.8702 30.0821 90.5365 31.1483L93.0649 35.242ZM98.2421 32.0312C98.5631 32.1115 98.8843 32.0713 99.1652 31.931L103.299 29.7639L101.633 34.6198C101.513 34.9811 101.553 35.3826 101.734 35.7236L104.423 40.5195L98.5631 39.175C98.2622 39.1147 97.9411 39.1348 97.6802 39.2553L93.0048 41.5429L94.5299 35.6031C94.6101 35.242 94.5498 34.8609 94.3693 34.5196L91.7205 30.5262L98.2421 32.0312Z" fill="black"/>
<path d="M41.1933 119.215C33.4136 120.63 25.3488 120.018 17.8689 117.453C16.9248 117.136 16.4415 118.553 17.3809 118.876C25.1179 121.531 33.4452 122.155 41.4618 120.696C42.4394 120.519 42.1755 119.042 41.1933 119.215Z" fill="black"/>
<path d="M16.152 121.482C15.2943 120.991 14.5393 122.299 15.4113 122.791C19.9647 125.368 20.4224 126.851 21.2265 126.851C21.9072 126.851 22.2402 126.009 21.736 125.544C20.0379 123.984 18.1596 122.616 16.152 121.482Z" fill="black"/>
<path d="M12.9089 125.484C12.5124 124.569 11.1327 125.173 11.5294 126.083L13.3459 130.259C13.7421 131.171 15.1226 130.571 14.7255 129.66L12.9089 125.484Z" fill="black"/>
<path d="M94.5703 64.1375C90.6761 57.9424 82.667 57.7947 78.0556 62.6127C72.5815 55.4635 65.0752 49.1246 57.5876 44.5726C61.5539 38.7564 60.4097 30.8887 56.0425 26.3726C58.8435 20.3049 54.6027 13.1037 48.4976 11.2624C43.6615 9.79759 38.0228 11.4628 34.4309 15.4161C34.17 15.7171 34.1901 16.1987 34.491 16.4794C34.7921 16.7606 35.2736 16.7405 35.5546 16.4194C38.7451 12.8877 43.7618 11.4028 48.056 12.7071C53.1002 14.2133 56.8419 19.9792 54.8787 25.309C51.4175 22.5242 47.3147 22.397 44.4441 24.0446C42.3371 25.2688 40.8321 27.9979 42.0361 30.2654C43.8676 33.7247 51.3524 33.7685 55.2801 27.7571C59.1753 32.2666 59.6044 38.9791 56.3034 43.8103C50.3838 40.3388 44.3838 37.8908 38.8856 36.7268C31.1577 35.1109 22.2878 35.9555 20.4123 43.6264C-3.9084 149.987 8.13758 97.307 4.65476 112.538C4.1449 114.708 5.81615 116.751 7.99494 116.751C8.98566 116.751 4.40468 118.392 79.2595 89.3412C79.2796 89.3412 79.2796 89.3412 79.2997 89.3211C87.2086 86.3663 86.6056 77.8258 82.8915 70.278C83.8177 67.5002 81.8274 64.9242 79.0589 63.9572C79.0187 63.917 78.9986 63.8769 78.9787 63.8367C82.8591 59.5849 89.5901 59.4999 93.1055 64.6793C87.0505 67.4413 85.9897 74.2128 89.3932 76.1174C90.7778 76.9201 92.7041 76.6392 94.0485 75.4955C96.5788 73.3101 96.7667 68.7308 95.2928 65.5024C103.939 63.2634 108.334 73.1297 104.423 78.7259C104.182 79.0671 104.262 79.5289 104.604 79.7694C104.873 79.9942 105.41 79.9612 105.647 79.5889C110.44 72.8297 104.761 61.141 94.5703 64.1375ZM43.3605 29.5428C42.6181 28.1382 43.7217 26.2119 45.2066 25.3492C47.5228 24.0056 51.1299 24.0548 54.1964 26.6935C51.0618 31.9178 44.7141 32.0248 43.3605 29.5428ZM8.68767 115.115C7.25679 115.674 5.76448 114.389 6.12154 112.877L20.4848 50.0319C24.242 67.4663 52.7005 89.9847 72.6481 90.3237L8.68767 115.115ZM78.6977 87.9969C78.6977 87.9969 78.6901 88.0038 78.6851 88.0096C78.4148 88.0648 78.4493 88.0865 78.142 88.1943C70.3286 90.7913 56.1705 86.3979 42.9391 76.5789C20.4059 59.8627 13.7296 37.5295 32.5245 37.5295C40.1257 37.5295 48.8651 41.2048 55.4005 45.0343C54.6379 45.9375 53.755 46.76 52.7917 47.4425C51.1369 43.9012 47.9131 43.2025 45.8287 44.8136C42.6854 47.2777 45.9388 52.8005 51.969 49.7098C52.975 54.3369 49.6605 58.6208 45.1865 59.0608C44.7651 59.101 44.4642 59.4824 44.5042 59.8836C44.5444 60.2849 44.8655 60.5658 45.2468 60.5658H45.327C50.8967 59.9935 54.8422 54.6008 53.3335 48.9073C54.6178 48.0644 55.7616 47.0008 56.7047 45.7969C64.1951 50.3949 71.552 56.6028 76.8917 63.4555C72.0913 63.0514 67.2041 66.7719 66.4972 71.6024C66.4371 72.0039 66.738 72.3851 67.1393 72.4453C67.5407 72.5056 67.9421 72.2244 68.0022 71.8031C68.5413 67.8756 72.5781 64.8058 76.39 64.9405C73.1003 70.8612 79.0436 75.4257 82.0488 71.783C85.056 78.3361 85.3965 85.4526 78.6977 87.9969ZM51.5075 48.2449C51.4473 48.2851 51.4071 48.3052 51.347 48.3253C50.0225 49.0276 48.9189 49.2684 47.9758 49.0876C47.0527 48.9073 46.0695 48.0843 46.1096 47.1412C46.1753 46.1869 47.327 45.2974 48.638 45.5159C50.0198 45.7873 50.8753 46.9804 51.5075 48.2449ZM81.507 68.1508C81.9752 69.6488 80.8881 71.5623 79.4402 71.5623C79.4402 71.5623 79.4402 71.5623 79.4201 71.5623C78.4569 71.5623 77.4536 70.7395 77.1124 69.636C76.6489 68.1523 77.2076 66.5256 77.9753 65.181C79.4993 65.5626 81.048 66.6145 81.507 68.1508ZM93.0653 74.3516C92.2025 75.094 90.9784 75.2745 90.1357 74.813C88.7712 74.0307 88.7109 71.8633 89.4534 70.1976C90.2761 68.3718 91.8413 66.8668 93.8479 66.004C95.1277 68.7317 95.0691 72.5934 93.0653 74.3516Z" fill="black"/>
</svg>
