<svg width="16" height="16" viewBox="0 0 16 16" fill="none" xmlns="http://www.w3.org/2000/svg">
<g clip-path="url(#clip0_708_2767)">
<path d="M11.334 2.22651C12.3395 2.80708 13.1759 3.6402 13.7605 4.64338C14.3451 5.64656 14.6576 6.78503 14.6669 7.94607C14.6763 9.10712 14.3823 10.2505 13.814 11.263C13.2457 12.2755 12.4228 13.122 11.4268 13.7187C10.4308 14.3155 9.29623 14.6417 8.13538 14.6652C6.97454 14.6887 5.82768 14.4086 4.80835 13.8527C3.78902 13.2967 2.93256 12.4842 2.32376 11.4955C1.71496 10.5069 1.37492 9.37632 1.33732 8.21585L1.33398 7.99985L1.33732 7.78385C1.37465 6.63251 1.70968 5.51049 2.30974 4.52718C2.90981 3.54386 3.75442 2.73282 4.76125 2.1731C5.76807 1.61339 6.90275 1.32411 8.05465 1.33347C9.20656 1.34283 10.3364 1.65051 11.334 2.22651ZM10.472 6.19518C10.3572 6.0804 10.2045 6.01144 10.0424 6.00126C9.88042 5.99107 9.72025 6.04035 9.59198 6.13985L9.52932 6.19518L7.33398 8.38985L6.47198 7.52851L6.40932 7.47318C6.28104 7.37375 6.1209 7.32453 5.95892 7.33475C5.79694 7.34497 5.64426 7.41393 5.52949 7.52869C5.41473 7.64345 5.34577 7.79614 5.33555 7.95812C5.32533 8.12009 5.37455 8.28024 5.47398 8.40851L5.52932 8.47118L6.86265 9.80451L6.92532 9.85985C7.04223 9.95056 7.18601 9.99979 7.33398 9.99979C7.48196 9.99979 7.62574 9.95056 7.74265 9.85985L7.80532 9.80451L10.472 7.13785L10.5273 7.07518C10.6268 6.94691 10.6761 6.78674 10.6659 6.62473C10.6557 6.46271 10.5868 6.30998 10.472 6.19518Z" fill="#915FD8"/>
</g>
<defs>
<clipPath id="clip0_708_2767">
<rect width="16" height="16" fill="white"/>
</clipPath>
</defs>
</svg>
