<svg width="40" height="40" viewBox="0 0 40 40" fill="none" xmlns="http://www.w3.org/2000/svg">
<g clip-path="url(#clip0_2387_14439)">
<path d="M31.8516 31.0391L33.4813 10.9062L27.1891 23.2031L11.8766 32.4219C18.1938 31.9785 25.2516 31.4945 31.8531 31.0422L31.8516 31.0391Z" fill="#A00403"/>
<path d="M33.0773 13.9826L25 7.65625L22.8906 14.9219C31.4685 15.6498 30.0596 14.1683 33.0773 13.9826ZM15 22.0312L25.625 25.3906L22.8906 14.9219L15 22.0312ZM8.04688 23.5156C11.4844 34.375 12.3438 36.7188 15 22.0312L7.96875 23.6719L8.04688 23.5156ZM21.5625 5.3125L29.1406 5.39062L25 7.65625C24.1406 7.10938 22.1875 5.78125 21.5625 5.3125ZM6.64062 19.2188L6.32812 26.9531L8.125 23.5938L6.64062 19.2188ZM23.2812 6.64062C25.3125 8.67188 23.2031 13.5938 19.1406 17.5781C15.0781 21.5625 9.92188 24.0625 7.89062 22.0312C5.9375 20.0086 7.94531 15 12.0195 11.0156C16.0938 7.03125 21.332 4.60938 23.2852 6.64062H23.2812Z" fill="#B11205"/>
<path d="M15 22.0312L25.3906 25.3906C21.6406 28.9062 14.6484 32.1484 11.875 32.4219L15 22.0312Z" fill="#9F0D02"/>
<path d="M22.8906 14.9219L25.4688 25.3125C28.5938 22.0313 31.4062 18.4375 32.8125 14.0625L22.8906 14.9219ZM31.8516 31.0391L30.2359 19.1406L25.4688 25.3125L31.8516 31.0391Z" fill="#891102"/>
<path d="M32.8906 14.1406C33.9062 10.9375 34.1406 6.25 29.1406 5.39062L25 7.65625L32.8906 14.1406Z" fill="#AA1401"/>
<path d="M6.32812 26.9531C6.48438 32.2656 10.2344 32.3438 11.875 32.4219L8.04688 23.5938L6.32812 26.9531Z" fill="#9E1209"/>
<path d="M15 22.0312L19.2188 30.0781C21.7188 28.75 23.6719 27.1094 25.3906 25.3125L15 22.0312Z" fill="#900E04"/>
<path d="M8.04688 23.5935L7.42188 30.7029C8.51562 32.2654 10.0781 32.3435 11.7188 32.2654C10.5469 29.3748 8.20312 23.5154 8.04688 23.5935Z" fill="#8B1104"/>
</g>
<defs>
<clipPath id="clip0_2387_14439">
<rect width="40" height="40" fill="white"/>
</clipPath>
</defs>
</svg>
