<svg width="23" height="24" viewBox="0 0 23 24" fill="none" xmlns="http://www.w3.org/2000/svg">
<path d="M21.9799 3.50249C21.9349 3.09 21.5899 2.78247 21.1774 2.78247C17.9674 2.78998 14.7049 1.875 11.7874 0.112472C11.5324 -0.0374906 11.2174 -0.0374906 10.9624 0.112472C8.04488 1.875 4.79736 2.79749 1.56486 2.78247C1.15988 2.78247 0.814863 3.08999 0.769863 3.50249C-0.0701291 11.1525 2.32988 20.9025 11.3749 24C20.4199 20.9025 22.8199 11.1525 21.9799 3.50249ZM15.8299 15.9975C15.8299 16.44 15.4774 16.8 15.0349 16.8H7.71488C7.27986 16.8 6.91988 16.44 6.91988 15.9975V8.93999C6.91988 8.49747 7.27986 8.13749 7.71488 8.13749C7.72239 8.13749 8.04488 8.14499 8.02986 8.12998C8.17236 3.71252 14.5699 3.71252 14.7124 8.12998V8.13749H15.0349C15.4774 8.13749 15.8299 8.49747 15.8299 8.93999V15.9975Z" fill="#915FD8"/>
<path d="M8.51758 15.2026H14.2326V9.73511H8.51758V15.2026ZM10.5726 11.8426C10.5726 11.4001 10.9326 11.0401 11.3751 11.0401C11.8176 11.0401 12.1776 11.4001 12.1776 11.8426V13.7326C12.1776 14.1676 11.8176 14.5276 11.3751 14.5276C10.9326 14.5276 10.5726 14.1676 10.5726 13.7326V11.8426Z" fill="#915FD8"/>
<path d="M13.1071 8.12994C13.0471 5.83494 9.68707 5.83494 9.62706 8.12994C9.60458 8.15996 13.1071 8.11497 13.1071 8.12994Z" fill="#915FD8"/>
</svg>
