<svg width="24" height="24" viewBox="0 0 24 24" fill="none" xmlns="http://www.w3.org/2000/svg">
<g clip-path="url(#clip0_51_26338)">
<path fill-rule="evenodd" clip-rule="evenodd" d="M22.5322 21.0782H1.46946C1.10988 21.0782 0.817383 20.7857 0.817383 20.4258V19.2036C0.817383 18.8439 1.10988 18.5513 1.46946 18.5513L22.5322 18.5514C22.8919 18.5514 23.1844 18.8439 23.1844 19.2038V20.4259C23.1844 20.7857 22.8918 21.0782 22.5322 21.0782ZM1.46946 19.1143C1.42081 19.1143 1.37989 19.1554 1.37989 19.2039V20.4261C1.37989 20.4747 1.42095 20.5157 1.46946 20.5157H22.5322C22.5809 20.5157 22.6218 20.4746 22.6218 20.4261V19.2039C22.6218 19.1553 22.5807 19.1143 22.5322 19.1143H1.46946Z" fill="black"/>
<path fill-rule="evenodd" clip-rule="evenodd" d="M21.5942 23.9998H2.40728C1.94786 23.9998 1.57422 23.626 1.57422 23.1664V20.7969C1.57422 20.6416 1.70022 20.5156 1.85547 20.5156H22.1462C22.3014 20.5156 22.4274 20.6418 22.4274 20.7969V23.1667C22.4276 23.6261 22.0538 23.9998 21.5944 23.9998H21.5942ZM2.13686 21.0781V23.1664C2.13686 23.3159 2.25836 23.4371 2.40757 23.4371H21.5944C21.7437 23.4371 21.8649 23.3159 21.8649 23.1664V21.0781H2.13672H2.13686Z" fill="black"/>
<path fill-rule="evenodd" clip-rule="evenodd" d="M14.4207 9.90263C13.8254 9.90263 13.0212 9.48033 13.3529 9.11344C13.4572 8.99827 13.6351 8.98941 13.7502 9.09347C14.12 9.42788 14.7215 9.42788 15.0909 9.09347C15.3655 8.84527 15.7425 9.26222 15.468 9.51071C15.1793 9.77199 14.8001 9.90263 14.4207 9.90263Z" fill="black"/>
<path fill-rule="evenodd" clip-rule="evenodd" d="M15.9396 7.37551C15.5669 7.37551 15.6583 6.88234 15.6583 6.47706C15.6583 6.10693 16.2208 6.10693 16.2208 6.47706C16.2208 6.88248 16.3122 7.37551 15.9396 7.37551Z" fill="black"/>
<path fill-rule="evenodd" clip-rule="evenodd" d="M12.9018 7.33703C12.5369 7.33703 12.6206 6.87268 12.6206 6.51563C12.6206 6.14551 13.1831 6.14551 13.1831 6.51563C13.1831 6.87324 13.2669 7.33703 12.9018 7.33703Z" fill="black"/>
<path fill-rule="evenodd" clip-rule="evenodd" d="M13.5239 6.29182C13.2407 6.29182 13.4159 5.98976 12.3601 5.98976C11.9951 5.98976 11.9871 5.43668 12.3535 5.4274C14.0079 5.38605 14.004 6.29182 13.5239 6.29182Z" fill="black"/>
<path fill-rule="evenodd" clip-rule="evenodd" d="M15.3332 6.29671C14.8541 6.29671 14.8457 5.38601 16.4878 5.42975C16.8603 5.43959 16.8416 6.00364 16.4736 5.99211C15.5286 5.96244 15.584 6.29671 15.3332 6.29671Z" fill="black"/>
<path fill-rule="evenodd" clip-rule="evenodd" d="M21.3745 19.1142H7.30029C7.14504 19.1142 7.01904 18.9881 7.01904 18.833V15.4447C7.01904 13.634 8.46931 12.1807 10.3206 12.1364L11.9736 12.0966C12.0996 11.8681 12.2033 11.4356 12.2578 10.908C11.4757 10.205 11.1766 9.34945 11.1766 8.32612C10.957 8.32612 10.575 8.38279 10.575 8.045V5.87782C10.575 5.78768 10.6184 5.70289 10.6916 5.64987C11.786 4.85955 11.6775 3.57986 11.6763 3.56721C11.6503 3.29116 12.0008 3.14617 12.1769 3.36569C12.24 3.4436 13.7813 5.27749 16.8246 3.02242C17.0281 2.87195 17.3117 3.04816 17.2692 3.29524C17.2657 3.31535 16.9472 5.31153 18.2292 5.91551C18.3276 5.96192 18.3904 6.06092 18.3904 6.17004C18.3904 8.49248 18.5738 8.32457 17.6858 8.32443C17.6858 9.42553 17.3183 10.3593 16.4294 11.0543C16.486 11.5156 16.5831 11.8873 16.7003 12.0961L18.354 12.1359C20.2052 12.1805 21.6556 13.6337 21.6556 15.4443V18.8325C21.6555 18.9878 21.5295 19.1141 21.3742 19.1141L21.3745 19.1142ZM7.58155 18.5514H21.0933V15.4446C21.0933 13.942 19.8842 12.7356 18.3405 12.6983L16.5436 12.655C16.1655 12.6459 15.9701 11.7554 15.9091 11.3873C14.9185 11.8967 13.737 11.8582 12.7772 11.2892C12.7178 11.6916 12.5245 12.6454 12.1313 12.6549L10.3344 12.6982C8.79079 12.7353 7.58155 13.9416 7.58155 15.4444V18.5513V18.5514ZM12.7324 10.5737C14.4957 12.0161 17.1231 10.7352 17.1231 8.48994C17.1231 7.74097 17.0757 7.76221 17.8278 7.76193V6.33978C16.8152 5.75464 16.6589 4.5499 16.6668 3.81386C14.4397 5.23629 12.9232 4.62977 12.2076 4.13027C12.1283 4.65916 11.8795 5.42614 11.1378 6.01733V7.76333C11.7841 7.76333 11.7393 7.77993 11.7393 8.49008C11.7393 9.25284 12.1336 10.1524 12.7325 10.574L12.7324 10.5737Z" fill="black"/>
<path fill-rule="evenodd" clip-rule="evenodd" d="M18.109 6.45141C17.9188 6.45141 17.7814 6.26409 17.8423 6.08114C18.1041 5.29546 18.2065 4.3949 18.2075 4.3859C18.5824 1.63667 16.0574 0.851837 15.9496 0.819774C15.9264 0.812462 14.1267 0.254741 12.6755 0.812462C11.6706 1.19918 10.9229 1.12282 10.4745 0.992322C10.7097 1.81189 11.3856 1.6707 11.4722 2.01003C11.4953 2.10017 11.4719 2.19608 11.4102 2.26583C11.3513 2.33305 9.97005 3.94166 11.0941 5.72789C11.2915 6.04148 10.8151 6.34073 10.6179 6.02756C9.57587 4.37141 10.3517 2.82214 10.7691 2.19115C9.86669 1.68125 9.64773 0.465398 10.037 0.292991C10.3735 0.144069 10.7692 0.942962 12.4733 0.287225C14.1108 -0.342636 16.0333 0.256007 16.1141 0.281741C16.1391 0.288913 19.2052 1.22731 18.7652 4.45466C18.7617 4.48673 18.6563 5.415 18.3754 6.25861C18.3364 6.37673 18.2269 6.45112 18.1089 6.45112L18.109 6.45141Z" fill="black"/>
<path fill-rule="evenodd" clip-rule="evenodd" d="M15.4969 15.3983C15.4222 15.3983 15.3508 15.3688 15.2979 15.3159L14.1382 14.1563C14.017 14.0348 14.0321 13.8327 14.1702 13.731L16.3834 12.0984C16.5183 11.9989 16.7109 12.0394 16.7943 12.185L17.3614 13.1754C17.4219 13.2809 17.4076 13.4131 17.3263 13.5032L15.7054 15.3052L15.4969 15.3984V15.3983ZM14.7672 13.9898L15.4861 14.7087L16.7725 13.2785L16.4634 12.7385L14.7673 13.9898H14.7672Z" fill="black"/>
<path fill-rule="evenodd" clip-rule="evenodd" d="M13.1776 15.3983L12.9684 15.3049L11.3476 13.5029C11.2663 13.4126 11.2522 13.2804 11.3126 13.175C11.6159 12.6451 11.9173 11.823 12.2908 12.0981L14.5037 13.7307C14.6417 13.8325 14.6569 14.0346 14.5357 14.156L13.3761 15.3157C13.3237 15.3687 13.2521 15.3983 13.1774 15.3983H13.1776ZM11.9022 13.2783L13.1884 14.7085L13.9073 13.9896L12.2113 12.7383L11.9022 13.2783Z" fill="black"/>
<path fill-rule="evenodd" clip-rule="evenodd" d="M14.3376 16.1064C14.1205 16.1064 13.4851 15.3703 13.2048 15.0901C12.9429 14.8281 13.341 14.4301 13.6027 14.6922L14.3376 15.4276L15.0728 14.6924C15.335 14.4301 15.7322 14.8286 15.4706 15.0902C15.1902 15.3706 14.555 16.1064 14.3376 16.1064Z" fill="black"/>
<path fill-rule="evenodd" clip-rule="evenodd" d="M13.0092 19.1145C12.8328 19.1145 12.6988 18.953 12.7328 18.7794L13.4429 15.1526C13.5142 14.7885 14.066 14.8977 13.9948 15.2605L13.2847 18.8872C13.2584 19.0214 13.1408 19.1145 13.0092 19.1145ZM15.4743 19.1145C15.3367 19.1145 15.2163 19.0131 15.1962 18.873L14.6781 15.2463C14.6258 14.8791 15.1828 14.8006 15.2351 15.1665L15.7532 18.7931C15.7772 18.9623 15.6445 19.1142 15.4743 19.1142V19.1145Z" fill="black"/>
<path fill-rule="evenodd" clip-rule="evenodd" d="M18.9917 19.1145C18.8364 19.1145 18.7104 18.9883 18.7104 18.8332V15.9835C18.7104 15.6132 19.273 15.6133 19.273 15.9835V18.8332C19.273 18.9883 19.147 19.1145 18.9917 19.1145Z" fill="black"/>
<path fill-rule="evenodd" clip-rule="evenodd" d="M9.68262 19.1145C9.52737 19.1145 9.40137 18.9883 9.40137 18.8332V15.9835C9.40137 15.6132 9.96387 15.6133 9.96387 15.9835V18.8332C9.96387 18.9883 9.83815 19.1145 9.68262 19.1145Z" fill="black"/>
<path fill-rule="evenodd" clip-rule="evenodd" d="M2.62647 19.1144C2.47122 19.1144 2.34521 18.9883 2.34521 18.8332V15.1612C2.34521 15.0606 2.39879 14.9678 2.48584 14.9177L3.39063 14.3953C3.71111 14.2101 3.99278 14.697 3.67188 14.8823L2.90772 15.3234V18.8332C2.90772 18.9883 2.782 19.1144 2.62647 19.1144Z" fill="black"/>
<path fill-rule="evenodd" clip-rule="evenodd" d="M4.38243 15.3902C3.08839 15.3902 2.62208 13.6964 3.70335 13.0237C4.24813 12.6847 4.82371 12.219 5.36104 12.219C6.64889 12.219 7.12631 13.91 6.04026 14.5856C5.49576 14.9243 4.91948 15.3902 4.38243 15.3902ZM5.3609 12.7815C5.02269 12.7815 4.38875 13.2596 4.00049 13.5014C3.19709 14.0014 3.95985 15.2183 4.75902 14.7202L5.74312 14.1079C6.3509 13.7299 6.08653 12.7816 5.3609 12.7816V12.7815Z" fill="black"/>
</g>
<defs>
<clipPath id="clip0_51_26338">
<rect width="24" height="24" fill="white"/>
</clipPath>
</defs>
</svg>
