<svg clip-rule="evenodd" fill-rule="evenodd" height="512" image-rendering="optimizeQuality" shape-rendering="geometricPrecision" text-rendering="geometricPrecision" viewBox="0 0 4335 4335" width="512" xmlns="http://www.w3.org/2000/svg"><g id="Layer_x0020_1"><path d="m451 2139c-71-112-94-214-67-304 25-88 91-136 125-157 51-99 163-162 292-162s240 63 292 162c35 21 102 70 129 158 27 90 4 192-66 303-13 45 44 225-133 366l49 84 98 3c110-191 317-320 552-320h87l84-147c-248-184-172-452-187-504-98-151-129-288-94-407 35-118 126-182 168-206 66-133 214-217 386-217 171 0 320 84 385 217 44 24 138 88 174 208 36 119 5 255-92 405-15 51 61 322-190 506l83 145h87c235 0 442 129 552 320l98-3 50-85c-175-142-118-319-131-365-71-112-94-214-67-304 25-88 90-136 125-157 51-99 163-162 292-162 128 0 240 63 291 162 36 21 103 70 130 158 26 90 4 192-67 303-13 45 44 225-132 366l48 84h53c264 0 478 215 478 478v418c0 33-27 59-59 59h-4213c-32 0-59-26-59-59v-418c0-263 214-478 478-478h53l49-85c-128-104-131-215-131-365zm1546-87c55 26 106 46 172 46 187 0 345-152 345-345v-146c-16-447-682-302-690-1v147c0 128 70 240 173 299zm-1 131-82 143 253 337 254-337-82-142c-107 43-236 42-343-1zm-248-733c157-279 696-369 848-13 27-70 32-132 16-187-40-133-140-125-161-176-90-219-480-219-570 0-21 50-118 43-156 175-17 58-9 125 23 201zm-489 1227c-35 90-55 131-55 231v518h280v-395c0-76 118-76 118 0v395h1131v-395c0-76 118-76 118 0v395h279v-532c-7-271-233-504-517-504h-91l-307 407c-23 30-72 30-95 0l-307-407h-91c-202 0-378 117-463 287zm-154 76c4-15 8-30 13-45h-51l-218 288c-23 31-71 31-94 0l-218-288h-57c-198 0-360 161-360 359v359h966v-518c0-53 7-104 19-155zm2112-45c21 65 31 132 32 200v518h965v-359c0-198-161-359-359-359h-57l-218 288c-22 30-72 30-94 0l-218-288zm317-126c-41 0-81-7-118-20l-48 82 165 218 164-218-47-81c-36 12-75 19-116 19zm-234-458c0 132-8 236 124 312 151 87 344-34 344-206v-105c-11-302-458-202-468-1zm-67-150c135-183 479-227 606-14 38-156-95-167-116-216-60-147-323-147-383 0-20 49-158 62-107 230zm-2196 151v-1c-21-312-465-189-467-1-2 133-8 235 123 313 151 90 344-37 344-206zm-234 457c-41 0-81-7-118-20l-47 82 164 218 165-218-48-81c-36 12-75 19-116 19zm305-622c38-156-95-167-115-216-61-147-323-147-384 0-20 49-158 62-107 230 137-186 480-226 606-14z" fill="rgb(0,0,0)"/></g></svg>