<?xml version="1.0" encoding="UTF-8"?>
<svg xmlns="http://www.w3.org/2000/svg" xmlns:xlink="http://www.w3.org/1999/xlink" xmlns:svgjs="http://svgjs.com/svgjs" version="1.1" width="512" height="512" x="0" y="0" viewBox="0 0 512 512" style="enable-background:new 0 0 512 512" xml:space="preserve" class="">
  <g>
    <path fill="#dc9101" d="M89.17 67.89h-30a23.541 23.541 0 0 0-23.54 23.54v381.03A23.541 23.541 0 0 0 59.17 496h30a23.541 23.541 0 0 1-23.54-23.54V91.43a23.541 23.541 0 0 1 23.54-23.54zM126.44 41.1v39.76h30V41.1a25.1 25.1 0 0 1 25.1-25.1h-30a25.1 25.1 0 0 0-25.1 25.1z" data-original="#d4e1f4" opacity="1" class=""/>
    <g fill="#0635c9">
      <path d="M140.677 303.742h12.643a6 6 0 0 0 0-12h-12.643a6 6 0 1 0 0 12zM182.308 291.742a6 6 0 0 0 0 12h12.643a6 6 0 0 0 0-12zM219.938 291.742a6 6 0 0 0 0 12h12.643a6 6 0 0 0 0-12zM331.062 291.742h-73.494a6 6 0 1 0 0 12h73.494a6 6 0 0 0 0-12zM140.677 162.724h29.691a6 6 0 0 0 0-12h-29.691a6 6 0 1 0 0 12zM331.062 162.724a6 6 0 0 0 0-12H291.37a6 6 0 0 0 0 12zM264.158 162.724a6 6 0 0 0 0-12H196.9a6 6 0 0 0 0 12zM140.677 378.979h85.261a6 6 0 0 0 0-12h-85.261a6 6 0 1 0 0 12zM140.677 326.821h145.261a6 6 0 0 0 0-12H140.677a6 6 0 0 0 0 12zM140.677 182.462h75.261a6 6 0 0 0 0-12h-75.261a6 6 0 0 0 0 12zM140.677 355.634h188.676a6 6 0 1 0 0-12H140.677a6 6 0 0 0 0 12zM140.677 202.616h150.385a6 6 0 0 0 0-12H140.677a6 6 0 0 0 0 12zM78.521 178.7a6 6 0 0 0 8.484 0l31.006-31.006a6 6 0 1 0-8.485-8.484l-26.763 26.761-6.457-6.456A6 6 0 0 0 67.821 168zM67.821 222.564l10.7 10.7a6 6 0 0 0 8.484 0l31.006-31.006a6 6 0 0 0-8.485-8.485l-26.763 26.763-6.457-6.456a6 6 0 0 0-8.485 8.484zM67.821 314.364l10.7 10.7a6 6 0 0 0 8.484 0l31.006-31a6 6 0 0 0-8.485-8.485l-26.763 26.757-6.457-6.456a6 6 0 1 0-8.485 8.484zM67.821 368.93l10.7 10.7a6 6 0 0 0 8.484 0l31.006-31.006a6 6 0 1 0-8.485-8.484L82.763 366.9l-6.457-6.456a6 6 0 0 0-8.485 8.485zM127.806 458.767a6 6 0 0 0 8.485.01l16.992-16.946 15.932 16.823a5.994 5.994 0 0 0 5.781 1.7l13.324-3.254 8.628 3.079a6.026 6.026 0 0 0 2.017.348h22.055a6 6 0 0 0 5.181-2.975l6.284-10.768 2.41 23.77A6 6 0 0 0 245.1 474.2l16.06-16.038h39.04a6 6 0 0 0 0-12h-41.518a6 6 0 0 0-4.24 1.755l-8.881 8.869-3-29.547a6 6 0 0 0-11.151-2.419l-13.84 23.714H200l-9.344-3.335a6.007 6.007 0 0 0-3.441-.176l-11.687 2.856-17.769-18.765a6 6 0 0 0-4.271-1.874h-.086a6 6 0 0 0-4.237 1.752l-21.353 21.3a6 6 0 0 0-.006 8.475zM140.677 222.616h190.385a6 6 0 0 0 0-12H140.677a6 6 0 0 0 0 12zM241.761 34.25h-60.275a6 6 0 0 0 0 12h60.275a6 6 0 0 0 0-12zM153.968 34.25h-9.5a6 6 0 0 0 0 12h9.5a6 6 0 0 0 0-12z" fill="#dc9101" data-original="#0635c9" class="" opacity="1"/>
      <path d="M349.388 61.892h-61.27V41.1a31.1 31.1 0 0 0-31.1-31.1H151.544a31.1 31.1 0 0 0-31.1 31.1v20.79H59.172a29.54 29.54 0 0 0-29.541 29.543v34.291a6 6 0 0 0 12 0V91.433a17.541 17.541 0 0 1 17.541-17.541h61.27v6.973a6 6 0 0 0 6 6h155.676a6 6 0 0 0 6-6v-6.973h61.27a17.541 17.541 0 0 1 17.541 17.541v267.235h12V91.433a29.541 29.541 0 0 0-29.541-29.541zm-73.27 12.973H132.442V41.1a19.124 19.124 0 0 1 19.1-19.1h105.475a19.123 19.123 0 0 1 19.1 19.1zM366.929 472.459A17.541 17.541 0 0 1 349.388 490H59.172a17.541 17.541 0 0 1-17.541-17.541V175.724a6 6 0 0 0-12 0v296.735A29.54 29.54 0 0 0 59.172 502h290.216a29.541 29.541 0 0 0 29.541-29.541v-54.68h-12z" fill="#dc9101" data-original="#0635c9" class="" opacity="1"/>
    </g>
    <path fill="#dc9101" d="m436.848 287.181-93.812 93.81a71.628 71.628 0 0 0-19.5 36.029L322 424.352c-12.318 12.827-10.971 19.551-7.567 22.955a7.9 7.9 0 0 0 5.737 2.29 14.708 14.708 0 0 0 6.725-1.9 47.522 47.522 0 0 0 10.492-7.956l7.334-1.539a71.63 71.63 0 0 0 36.027-19.5l93.812-93.81a26.665 26.665 0 0 0-37.71-37.711zm-94.594 139.277-8.825 1.852 1.851-8.827a59.671 59.671 0 0 1 10.579-23.464l19.86 19.86a59.641 59.641 0 0 1-23.465 10.579zm32.391-18.624L353.9 387.093l50.233-50.232 20.74 20.741zm58.716-58.717-20.74-20.741 23.211-23.211 20.741 20.741zm32.712-32.711-1.014 1.015-20.742-20.742 1.015-1.014a14.666 14.666 0 1 1 20.741 20.741z" data-original="#1ae5be" class="" opacity="1"/>
  </g>
</svg>
