<svg width="20" height="18" viewBox="0 0 20 18" fill="none" xmlns="http://www.w3.org/2000/svg">
<path d="M0.764648 5.37908H3.82617C5.08143 5.37913 6.09961 6.39725 6.09961 7.65252V15.3049C6.09938 16.5599 5.08129 17.5773 3.82617 17.5773H0.764648C0.356951 17.5773 0.0245512 17.2457 0.0244141 16.8381V6.11932C0.0244141 5.71153 0.356867 5.37908 0.764648 5.37908ZM1.50879 16.0929H3.83105C4.26572 16.0929 4.61989 15.7395 4.62012 15.3049V7.65252C4.62012 7.21771 4.26586 6.8635 3.83105 6.86346H1.50879V16.0929Z" fill="#915FD8" stroke="#915FD8" stroke-width="0.0489895"/>
<path d="M11.0654 0.5C11.8531 0.500044 12.6133 0.81413 13.1768 1.37305C13.7342 1.93083 14.0488 2.69053 14.0488 3.47852V5.08496H16.1699C17.1667 5.08496 18.1124 5.5325 18.7422 6.30273C19.373 7.07421 19.6283 8.08835 19.4326 9.06738C19.08 10.816 18.6725 12.866 18.3594 14.4268V14.4277C18.0484 15.9819 16.6807 17.1016 15.0967 17.1016H9.5127C8.24937 17.1016 7.01816 16.7289 5.96875 16.0293L5.96582 16.0283L5.43457 15.6768L5.21484 15.5303H5.21387L5.21191 15.5283L5.16211 15.4863C5.11849 15.4384 5.09384 15.3755 5.09375 15.3096L5.09863 7.65723L5.10742 7.58887C5.12504 7.52276 5.1676 7.46482 5.22656 7.42969H5.22852L8.08398 5.71484L8.08789 5.71289C8.65077 5.3692 9.08498 4.83408 9.29492 4.19922L9.2959 4.2002L10.3594 1.01074L10.3604 1.00781C10.4592 0.705635 10.7411 0.5 11.0654 0.5Z" fill="#915FD8" stroke="#915FD8"/>
</svg>
