<svg width="20" height="18" viewBox="0 0 20 18" fill="none" xmlns="http://www.w3.org/2000/svg">
<path fill-rule="evenodd" clip-rule="evenodd" d="M13.875 9.95535C13.875 11.2243 14.9039 12.2531 16.1728 12.2531H19.2348C19.6562 12.2531 19.9991 11.9102 19.9991 11.4888V0.76429C19.9991 0.342952 19.6562 0 19.2348 0H16.1728C14.9039 0 13.875 1.02885 13.875 2.29777V9.95535ZM15.4036 9.95535V2.29777C15.4036 1.87643 15.7465 1.53348 16.1679 1.53348H18.4656V10.7196H16.1679C15.7465 10.7196 15.4036 10.3767 15.4036 9.95535Z" fill="black"/>
<path fill-rule="evenodd" clip-rule="evenodd" d="M15.4041 2.29787C15.4041 2.04311 15.2768 1.80304 15.0612 1.66096C15.0612 1.66096 14.7231 1.4356 14.3067 1.16124C13.175 0.406745 11.8473 0.00500488 10.4853 0.00500488C8.91259 0.00500488 6.63442 0.00500488 4.90007 0.00500488C3.07754 0.00500488 1.50487 1.29352 1.14722 3.08176C0.833666 4.64463 0.427026 6.69253 0.0742774 8.44158C-0.15109 9.56841 0.142867 10.7344 0.867962 11.6212C1.59306 12.508 2.6807 13.0224 3.82713 13.0224H5.44879V14.1149C5.44879 15.0409 5.81624 15.9326 6.47275 16.5891C7.12925 17.2456 8.01602 17.613 8.94689 17.613H9.27514C9.60339 17.613 9.89735 17.4024 10.0002 17.0888L11.1712 13.5711C11.3426 13.0518 11.7003 12.6109 12.1657 12.3267L15.022 10.612C15.2523 10.4748 15.3943 10.2249 15.3943 9.95545V2.29787H15.4041ZM8.73131 16.0649C8.29038 16.0159 7.87394 15.8199 7.56039 15.5014C7.19294 15.134 6.98227 14.6343 6.98227 14.11V12.2483C6.98227 11.827 6.63932 11.484 6.21798 11.484H3.82713C3.14123 11.484 2.48963 11.1754 2.05359 10.6414C1.61755 10.1073 1.44118 9.41164 1.57836 8.73553L2.6513 3.37571C2.86687 2.30277 3.80753 1.52868 4.90497 1.52868H10.4902C11.5484 1.52868 12.5822 1.84224 13.464 2.43015L13.8756 2.70451V9.51452L11.3867 11.0088C10.6028 11.4791 10.0149 12.214 9.72587 13.0812L8.73131 16.0649Z" fill="black"/>
</svg>
