<svg width="20" height="18" viewBox="0 0 20 18" fill="none" xmlns="http://www.w3.org/2000/svg">
<path fill-rule="evenodd" clip-rule="evenodd" d="M6.12369 7.65228C6.12369 6.38345 5.09491 5.35467 3.82608 5.35467H0.764235C0.342925 5.35467 0 5.69759 0 6.1189V16.8378C0 17.2591 0.342925 17.602 0.764235 17.602H3.82608C5.09491 17.602 6.12369 16.5733 6.12369 15.3044V7.65228ZM4.59522 7.65228V15.3044C4.59522 15.7257 4.25229 16.0687 3.83098 16.0687H1.53337V6.88804H3.83098C4.25229 6.88804 4.59522 7.23097 4.59522 7.65228Z" fill="black"/>
<path fill-rule="evenodd" clip-rule="evenodd" d="M4.59375 15.3092C4.59375 15.564 4.72112 15.804 4.93668 15.9461C4.93668 15.9461 5.27471 16.1714 5.69112 16.4458C6.82277 17.2002 8.15039 17.6019 9.5123 17.6019H15.0971C16.9195 17.6019 18.4921 16.3135 18.8497 14.5254C19.1632 12.9626 19.5698 10.9149 19.9226 9.16594C20.1479 8.03918 19.854 6.87323 19.1289 5.98652C18.4039 5.09981 17.3163 4.58542 16.17 4.58542H14.5484V3.47826C14.5484 2.55725 14.181 1.67054 13.5294 1.01898C12.873 0.367422 11.9863 0 11.0653 0C10.5264 0 10.0512 0.342926 9.88462 0.852417L8.82155 4.04164C8.65008 4.56093 8.29246 5.00183 7.82706 5.28597L4.97097 7.0006C4.74072 7.13777 4.59865 7.38762 4.59865 7.65706L4.59375 15.3092ZM11.2661 1.54317C11.707 1.58726 12.1234 1.78322 12.4419 2.10165C12.8093 2.46907 13.0151 2.96387 13.0151 3.47826V5.35456C13.0151 5.77587 13.358 6.11879 13.7793 6.11879H16.17C16.8558 6.11879 17.5074 6.42743 17.9434 6.96141C18.3794 7.4954 18.5558 8.19105 18.4186 8.8671L17.3457 14.2266C17.1302 15.2994 16.1896 16.0735 15.0922 16.0735C13.3531 16.0735 11.08 16.0735 9.5074 16.0735C8.44923 16.0735 7.41555 15.7599 6.53373 15.1721L6.12222 14.8977V8.08817L8.60599 6.59889C9.38983 6.12859 9.9777 5.39375 10.2667 4.52663L11.2661 1.54317Z" fill="black"/>
</svg>
