<svg width="24" height="24" viewBox="0 0 24 24" fill="none" xmlns="http://www.w3.org/2000/svg">
<path fill-rule="evenodd" clip-rule="evenodd" d="M6 15.5787V19.856C6 20.4249 6.22583 20.9702 6.62819 21.3718C7.02984 21.7742 7.57513 22 8.14401 22H10.288C10.6811 22 11.0005 21.682 11.0027 21.2889C11.0063 20.5035 11.6459 19.8667 12.432 19.8667C13.2182 19.8667 13.8578 20.5035 13.8614 21.2889C13.8635 21.682 14.183 22 14.576 22H16.72C17.2889 22 17.8342 21.7742 18.2358 21.3718C18.6382 20.9702 18.864 20.4249 18.864 19.856V15.5787H16.0054C15.6109 15.5787 15.2907 15.2585 15.2907 14.864C15.2907 14.4695 15.6109 14.1494 16.0054 14.1494H18.864V4.14401C18.864 3.57513 18.6382 3.02984 18.2358 2.62819C17.8342 2.22583 17.2889 2 16.72 2C16.72 2 15.4222 2 14.576 2C14.1822 2 13.8628 2.31874 13.8614 2.71252C13.8614 2.71395 13.8614 2.71467 13.8614 2.71467C13.8614 3.50366 13.221 4.14401 12.432 4.14401C11.643 4.14401 11.0027 3.50366 11.0027 2.71467V2.71109C11.0005 2.31731 10.6811 2 10.288 2C9.44256 2 8.14401 2 8.14401 2C6.9598 2 6 2.9598 6 4.14401V14.1494H8.79793C9.19243 14.1494 9.5126 14.4695 9.5126 14.864C9.5126 15.2585 9.19243 15.5787 8.79793 15.5787H6ZM11.796 15.5787H13.1467C13.5412 15.5787 13.8614 15.2585 13.8614 14.864C13.8614 14.4695 13.5412 14.1494 13.1467 14.1494H11.796C11.4015 14.1494 11.0813 14.4695 11.0813 14.864C11.0813 15.2585 11.4015 15.5787 11.796 15.5787Z" fill="black"/>
</svg>
