<svg width="24" height="18" viewBox="0 0 24 18" fill="none" xmlns="http://www.w3.org/2000/svg">
<g clip-path="url(#clip0_973_3406)">
<path d="M21.1424 1.125H2.85672C2.22555 1.125 1.71387 1.62868 1.71387 2.25V4.5C1.71387 5.12132 2.23958 5.60664 2.83603 5.80992C4.17848 6.26743 5.14246 7.5229 5.14248 9C5.14251 10.4771 4.17851 11.7326 2.83604 12.19C2.23958 12.3933 1.71387 12.8787 1.71387 13.5V15.75C1.71387 16.3713 2.22555 16.875 2.85672 16.875H21.1424C21.7736 16.875 22.2853 16.3713 22.2853 15.75V13.5C22.2853 12.8787 21.7596 12.3933 21.1631 12.19C19.8207 11.7325 18.8568 10.4771 18.8567 9C18.8567 7.52291 19.8207 6.26743 21.1631 5.80992C21.7596 5.60664 22.2853 5.12132 22.2853 4.5V2.25C22.2853 1.62868 21.7736 1.125 21.1424 1.125Z" fill="#915FD8" stroke="#915FD8" stroke-width="1.5"/>
<path d="M11.4688 5.02246V12.9774" stroke="white" stroke-width="1.5" stroke-linecap="round" stroke-linejoin="round" stroke-dasharray="4 4"/>
</g>
<defs>
<clipPath id="clip0_973_3406">
<rect width="24" height="18" fill="white"/>
</clipPath>
</defs>
</svg>
