<svg width="33" height="32" viewBox="0 0 33 32" fill="none" xmlns="http://www.w3.org/2000/svg">
<g clip-path="url(#clip0_673_17745)">
<path d="M23.861 2.8418C21.6189 2.8418 19.7949 4.6658 19.7949 6.90786C19.7949 9.14992 21.6189 10.9739 23.861 10.9739C26.103 10.9739 27.927 9.14986 27.927 6.9078C27.927 4.66573 26.103 2.8418 23.861 2.8418ZM23.861 9.91773C22.2014 9.91773 20.8511 8.56755 20.8511 6.90786C20.8511 5.24817 22.2014 3.89798 23.861 3.89798C25.5206 3.89798 26.8708 5.24817 26.8708 6.90786C26.8709 8.56755 25.5207 9.91773 23.861 9.91773Z" fill="#1E1E1E"/>
<path d="M31.9719 27.6555H31.5206V25.2834C31.5206 24.9917 31.2843 24.7553 30.9926 24.7553H27.9058V16.3863C27.9058 16.0947 27.6694 15.8582 27.3777 15.8582H24.6436V14.4618C24.6436 14.1702 24.4072 13.9337 24.1156 13.9337C23.8239 13.9337 23.5875 14.1702 23.5875 14.4618V15.8582H20.8534C20.5618 15.8582 20.3254 16.0947 20.3254 16.3863V18.4085H18.0371C17.7454 18.4085 17.509 18.6449 17.509 18.9366V23.5434C16.3519 23.0051 15.0813 22.7213 13.7653 22.7213C11.9984 22.7213 10.313 23.2326 8.87694 24.1833L8.57169 12.9525C9.44538 12.813 10.1154 12.0542 10.1154 11.1418C10.1154 10.2949 9.538 9.58043 8.75631 9.37068L8.57406 7.11486C8.55194 6.84061 8.32294 6.6293 8.04769 6.6293H7.98263V1.8098C7.98263 1.51818 7.74625 1.28174 7.45456 1.28174C7.16288 1.28174 6.9265 1.51818 6.9265 1.8098V6.62949H6.86144C6.58625 6.62949 6.35725 6.8408 6.33506 7.11505L6.15281 9.37086C5.37113 9.58061 4.79375 10.295 4.79375 11.142C4.79375 12.0544 5.4635 12.8129 6.33706 12.9526L5.93713 27.6556H1.02806C0.736375 27.6556 0.5 27.892 0.5 28.1836C0.5 28.4752 0.736375 28.7117 1.02806 28.7117H31.9719C32.2636 28.7117 32.5 28.4752 32.5 28.1836C32.5 27.8919 32.2636 27.6555 31.9719 27.6555ZM13.7652 23.7776C15.4058 23.7776 16.9664 24.2781 18.2775 25.2076H9.25237C10.5626 24.2784 12.1239 23.7776 13.7652 23.7776ZM7.3485 7.68555H7.56044L7.69156 9.30811H7.21744L7.3485 7.68555ZM7.51188 25.2957C7.37144 25.3891 7.27806 25.5479 7.27569 25.7291L7.27563 27.6555H6.99356L7.39294 12.9758H7.51556L7.84194 24.9841C7.72975 25.0849 7.61963 25.1887 7.51188 25.2957ZM6.6275 11.9196C6.19875 11.9196 5.84981 11.5707 5.84981 11.1419C5.84981 10.7131 6.19869 10.3643 6.6275 10.3643H6.64488H8.26388H8.28131C8.71012 10.3643 9.05894 10.7132 9.05894 11.1419C9.05894 11.5707 8.71012 11.9196 8.28131 11.9196H6.6275ZM19.1985 27.6556H8.33181V27.6555V26.2637H19.1985V27.6556ZM24.0332 20.1633H21.0879C20.7963 20.1633 20.5599 20.3997 20.5599 20.6914C20.5599 20.983 20.7963 21.2194 21.0879 21.2194H24.0332V21.7357H21.0879C20.7963 21.7357 20.5599 21.9722 20.5599 22.2638C20.5599 22.5554 20.7963 22.7919 21.0879 22.7919H24.0332V23.3082H21.0879C20.7963 23.3082 20.5599 23.5446 20.5599 23.8362C20.5599 24.1279 20.7963 24.3643 21.0879 24.3643H24.0332V24.9158H21.0879C20.7963 24.9158 20.5599 25.1522 20.5599 25.4439C20.5599 25.7355 20.7963 25.9719 21.0879 25.9719H24.0332V27.6552H20.2547V25.7288C20.2524 25.5475 20.1589 25.3887 20.0184 25.2954C19.6728 24.9525 19.3036 24.6421 18.9153 24.3643H19.633C19.9247 24.3643 20.1611 24.1279 20.1611 23.8362C20.1611 23.5446 19.9247 23.3082 19.633 23.3082H18.5651V22.7919H19.633C19.9247 22.7919 20.1611 22.5554 20.1611 22.2638C20.1611 21.9722 19.9247 21.7357 19.633 21.7357H18.5651V21.2194H19.633C19.9247 21.2194 20.1611 20.983 20.1611 20.6914C20.1611 20.3997 19.9247 20.1633 19.633 20.1633H18.5651V19.4646H24.0331V20.1633H24.0332ZM26.8495 18.4086H26.0632C25.7716 18.4086 25.5352 18.645 25.5352 18.9366C25.5352 19.2282 25.7716 19.4647 26.0632 19.4647H26.8495V20.1336H26.0632C25.7716 20.1336 25.5352 20.37 25.5352 20.6616C25.5352 20.9532 25.7716 21.1897 26.0632 21.1897H26.8495V21.8586H26.0632C25.7716 21.8586 25.5352 22.095 25.5352 22.3866C25.5352 22.6782 25.7716 22.9147 26.0632 22.9147H26.8495V23.5836H26.0632C25.7716 23.5836 25.5352 23.82 25.5352 24.1116C25.5352 24.4032 25.7716 24.6397 26.0632 24.6397H26.8495V25.3086H26.0632C25.7716 25.3086 25.5352 25.545 25.5352 25.8366C25.5352 26.1282 25.7716 26.3647 26.0632 26.3647H26.8495V27.6553H25.0893V18.9366C25.0893 18.645 24.8529 18.4086 24.5612 18.4086H21.3814V16.9144H26.8495V18.4086ZM30.4644 27.6555H27.9057V25.8114H30.4644V27.6555Z" fill="#1E1E1E"/>
<path d="M31.9719 29.6621H1.02806C0.736375 29.6621 0.5 29.8985 0.5 30.1902C0.5 30.4818 0.736375 30.7182 1.02806 30.7182H31.9719C32.2636 30.7182 32.5 30.4818 32.5 30.1902C32.5 29.8985 32.2636 29.6621 31.9719 29.6621Z" fill="#1E1E1E"/>
</g>
<defs>
<clipPath id="clip0_673_17745">
<rect width="32" height="32" fill="white" transform="translate(0.5)"/>
</clipPath>
</defs>
</svg>
